<svg version="1.1" xmlns="http://www.w3.org/2000/svg" xmlns:xlink="http://www.w3.org/1999/xlink" width="210.67525" height="267.72501" viewBox="0,0,210.67525,267.72501"><defs><linearGradient x1="349.39239" y1="277.07178" x2="369.02795" y2="277.07178" gradientUnits="userSpaceOnUse" id="color-1"><stop offset="0" stop-color="#a20000"/><stop offset="1" stop-color="#780000"/></linearGradient><radialGradient cx="321.85749" cy="256.2478" r="44.83988" gradientUnits="userSpaceOnUse" id="color-2"><stop offset="0" stop-color="#a20000"/><stop offset="1" stop-color="#6e0000"/></radialGradient><linearGradient x1="316.42801" y1="182.69583" x2="316.42801" y2="262.00681" gradientUnits="userSpaceOnUse" id="color-3"><stop offset="0" stop-color="#3c0716"/><stop offset="1" stop-color="#780000" stop-opacity="0.61176"/></linearGradient><linearGradient x1="326.27212" y1="213.20012" x2="364.00162" y2="213.20012" gradientUnits="userSpaceOnUse" id="color-4"><stop offset="0" stop-color="#7c0023"/><stop offset="1" stop-color="#790003"/></linearGradient><linearGradient x1="281.35665" y1="205.27582" x2="313.12609" y2="205.27582" gradientUnits="userSpaceOnUse" id="color-5"><stop offset="0" stop-color="#780000"/><stop offset="1" stop-color="#7c0023"/></linearGradient><radialGradient cx="292.99445" cy="132.20753" r="23.48066" gradientUnits="userSpaceOnUse" id="color-6"><stop offset="0" stop-color="#000000"/><stop offset="1" stop-color="#000000" stop-opacity="0"/></radialGradient><radialGradient cx="292.80562" cy="127.08707" r="23.48066" gradientUnits="userSpaceOnUse" id="color-7"><stop offset="0" stop-color="#ffffff"/><stop offset="1" stop-color="#ffd8d8"/></radialGradient><radialGradient cx="347.30396" cy="130.20471" r="23.48066" gradientUnits="userSpaceOnUse" id="color-8"><stop offset="0" stop-color="#000000"/><stop offset="1" stop-color="#000000" stop-opacity="0"/></radialGradient><radialGradient cx="347.11512" cy="125.08424" r="23.48066" gradientUnits="userSpaceOnUse" id="color-9"><stop offset="0" stop-color="#ffffff"/><stop offset="1" stop-color="#ffd8d8"/></radialGradient><linearGradient x1="335.8086" y1="172.53596" x2="336.24315" y2="184.31917" gradientUnits="userSpaceOnUse" id="color-10"><stop offset="0" stop-color="#a1c3ff" stop-opacity="0.4902"/><stop offset="1" stop-color="#7375ff" stop-opacity="0.23529"/></linearGradient></defs><g transform="translate(-214.66245,-46.13752)"><g stroke-miterlimit="10"><path d="M214.66245,313.86253v-267.72501h210.67525v267.72501z" fill="none" stroke="none" stroke-width="0" stroke-linecap="butt"/><g stroke-linecap="butt"><g stroke="#000000" stroke-width="0"><path d="M276.80872,290.58696l19.39,-131.8421l48.3804,-0.15789l17.38099,132z" fill="#a20000"/><path d="M277.03999,290.58696l19.39,-131.8421l48.3804,-0.15789l17.38099,132z" fill="none"/></g><g stroke="#000000" stroke-width="0"><path d="M276.80872,290.58696l19.39,-131.8421l48.3804,-0.15789l17.38099,132z" fill="#a20000"/><path d="M286.48578,225.4406c3.20614,-21.80015 9.9442,-66.69569 9.9442,-66.69569l48.3804,-0.15789c0,0 5.78527,44.73627 8.68042,66.72351c0.04456,0.33842 -67.00503,0.13015 -67.00502,0.13008z" fill="#910000"/></g><g stroke="#000000" stroke-width="0"><path d="M287.89257,214.78276c3.4189,-23.24674 8.30613,-56.03787 8.30613,-56.03787l48.3804,-0.15789c0,0 4.68545,37.14584 7.20215,56.25892c0.01171,0.08894 -63.93808,0.27269 -63.88868,-0.06316z" fill="#7c0023"/><path d="M290.71331,197.61523l5.71666,-38.87034l48.3804,-0.15789l4.85048,39.27478z" fill="#650c25"/></g><path d="M350.68516,279.16729c-6.35695,-10.03438 12.55468,-15.15503 17.1863,-6.95756c4.14995,7.34497 -3.59897,15.4226 -11.65764,13.51452c-2.36343,-0.5596 -6.91586,-2.58691 -4.88713,-5.94937z" fill="url(#color-1)" stroke="none" stroke-width="0.5"/><path d="M319.15207,263.82336c2.65801,-0.0595 3.24699,-1.24257 4.98511,-2.79703c0.05216,-0.04665 0.10451,-0.0934 0.15707,-0.14025l-0.82471,-1.43548c0.83939,-1.46103 1.12765,-3.47392 2.29938,-4.60216c0.1787,-0.17207 0.37794,-0.32356 0.60282,-0.44938c0.14401,-0.08057 0.30158,-0.14238 0.4681,-0.19102c0.74027,-0.34059 1.56488,-0.53063 2.43412,-0.53063c0.10741,0 0.21412,0.0029 0.32009,0.00863c0.00521,-0.00285 0.0104,-0.00573 0.01556,-0.00863c4.26558,-2.4019 8.74746,-4.4847 12.7145,-7.34839c2.79163,-2.01521 3.65485,-9.16845 10.28094,-9.48228c3.98422,-0.1887 10.53764,4.20541 10.58177,8.00563c0.02021,1.74034 -1.28899,3.25074 -1.67622,4.94805c-0.04224,0.18517 0.40749,-0.14166 0.57102,-0.04369c1.71994,1.03044 2.40884,1.486 3.32304,2.95723c0.24369,0.39218 0.91436,0.47745 1.03632,0.92225c1.04838,3.82336 -1.19361,11.12745 -5.34825,12.75532c-2.26369,0.88696 -6.34469,1.54405 -8.54832,0.20993c-0.52346,-0.31691 -0.32162,-1.42463 -0.91212,-1.58763c-1.38257,-0.38163 -4.82304,0.21175 -6.67315,-0.24829c-0.55544,-0.13811 -1.20567,-0.58455 -1.83664,-1.13187c-2.48001,1.20631 -6.23747,1.80273 -7.76776,2.90337c-8.54568,6.14641 -12.63695,12.07836 -24.55246,7.48515c-5.06447,-1.95226 -7.70809,-3.04378 -11.78784,-6.4482c-0.35014,-0.29218 -0.87598,-0.70074 -1.38033,-1.16643c-6.1569,-0.46474 -12.99084,-2.83705 -14.60238,-4.98658c-0.68626,-0.91535 -3.45632,-4.21262 -4.98623,-6.69083c-0.16274,-0.23647 -0.30826,-0.4856 -0.43475,-0.74559c-0.46293,-0.8519 -0.70279,-1.54174 -0.54444,-1.90084c-0.02121,-0.20066 -0.03208,-0.40437 -0.03208,-0.61062c0,-3.18843 2.59873,-5.77318 5.80442,-5.77318c0.96368,0 1.87251,0.23358 2.67238,0.64693c1.21758,0.62921 2.18267,1.67495 2.70444,2.94741c1.09375,1.37677 2.17586,2.85151 3.14932,3.91971c1.11002,1.21804 3.23597,0.67673 4.86674,0.94446c4.95997,0.81429 10.39096,-0.89288 11.77324,4.93101c0.06777,0.28555 0.13318,0.60111 0.18409,0.93455c3.25664,2.15483 6.97176,3.88869 10.96324,3.79935z" fill="url(#color-2)" stroke="none" stroke-width="0.5"/><path d="M353.73245,256.82147l0.038,0.03881l-0.37786,0.36597c-0.04755,0.04615 -0.11256,0.07459 -0.18425,0.07459c-0.14571,0 -0.26384,-0.11749 -0.26384,-0.26242c0,-0.06315 0.02243,-0.12107 0.05979,-0.16635l0.3301,-0.40688c1.31026,-1.61499 2.33592,-3.30095 3.85911,-4.48913c-0.19813,0.08174 -0.40008,0.16108 -0.6042,0.23806c-2.32275,0.98219 -5.74151,2.66797 -7.89688,2.56001v0.11037h-0.42214c-0.14571,0 -0.26384,-0.11749 -0.26384,-0.26242c0,-0.11804 0.07837,-0.21789 0.18617,-0.25087c1.00119,-0.33193 2.45416,-0.81366 3.45536,-1.14559c2.16631,-0.71821 4.19753,-1.49405 6.25753,-2.47455c0.65377,-0.31118 1.73552,-0.54239 1.93438,-1.25039c0,0 0.08344,-0.24894 0.33373,-0.16596c0.00736,0.00244 0.01444,0.00503 0.02124,0.00775c0.06921,-0.0344 0.17024,-0.05103 0.27919,0.04289c0.19938,0.17186 0.02659,0.37017 0.02659,0.37017c-0.2815,0.32307 -0.57405,0.6932 -0.87743,1.08632c0.03386,0.02724 0.06386,0.06806 0.08407,0.12837c0.08343,0.24895 -0.16687,0.33193 -0.16687,0.33193c-0.12823,0.04252 -0.25317,0.0881 -0.37501,0.1366c-0.97564,1.27358 -2.05498,2.65403 -3.23223,3.41906c-0.68552,0.74269 -1.4149,1.43964 -2.20071,1.96364z" fill="#580000" stroke="none" stroke-width="0.5"/><path d="M324.86956,198.5403c0,-0.9665 0.7835,-1.75 1.75,-1.75c0.9665,0 1.75,0.7835 1.75,1.75c0,0.9665 -0.7835,1.75 -1.75,1.75c-0.9665,0 -1.75,-0.7835 -1.75,-1.75z" fill="#650c25" stroke="none" stroke-width="0.5"/><path d="M314.04814,199.7903c-0.37927,0 -0.7191,-0.16892 -0.94834,-0.43562c-0.71269,-0.22137 -1.23023,-0.88601 -1.23023,-1.67152c0,-0.9665 0.7835,-1.75 1.75,-1.75c0.88567,0 1.61767,0.65793 1.73391,1.5117c0.29221,-0.55886 0.87747,-0.94027 1.5518,-0.94027c0.9665,0 1.75,0.7835 1.75,1.75c0,0.9665 -0.7835,1.75 -1.75,1.75c-0.75726,0 -1.40218,-0.48098 -1.64593,-1.15411c-0.13795,0.54031 -0.62793,0.93982 -1.21121,0.93982z" fill="#650c25" stroke="none" stroke-width="0.5"/><path d="M337.94103,215.11173c0,-0.69036 0.55964,-1.25 1.25,-1.25c0.26072,0 0.5028,0.07982 0.70314,0.21636c0.28044,-0.59236 0.88366,-1.00208 1.58258,-1.00208c0.9665,0 1.75,0.7835 1.75,1.75c0,0.9665 -0.7835,1.75 -1.75,1.75c-0.54321,0 -1.02862,-0.2475 -1.3496,-0.63589c-0.22901,0.25859 -0.56352,0.42161 -0.93611,0.42161c-0.69036,0 -1.25,-0.55964 -1.25,-1.25z" fill="#7c0023" stroke="none" stroke-width="0.5"/><path d="M332.86956,214.82601c0,-0.9665 0.7835,-1.75 1.75,-1.75c0.9665,0 1.75,0.7835 1.75,1.75c0,0.9665 -0.7835,1.75 -1.75,1.75c-0.9665,0 -1.75,-0.7835 -1.75,-1.75z" fill="#7c0023" stroke="none" stroke-width="0.5"/><path d="M328.15527,214.96888c0,-0.9665 0.7835,-1.75 1.75,-1.75c0.9665,0 1.75,0.7835 1.75,1.75c0,0.9665 -0.7835,1.75 -1.75,1.75c-0.9665,0 -1.75,-0.7835 -1.75,-1.75z" fill="#7c0023" stroke="none" stroke-width="0.5"/><path d="M323.08385,217.82601c0,-0.61907 0.45004,-1.13303 1.0408,-1.23257c-0.16184,-0.26521 -0.25509,-0.57686 -0.25509,-0.91029c0,-0.9665 0.7835,-1.75 1.75,-1.75c0.9665,0 1.75,0.7835 1.75,1.75c0,0.9665 -0.7835,1.75 -1.75,1.75c-0.03343,0 -0.06665,-0.00094 -0.09962,-0.00279c0.04146,0.12434 0.06391,0.25737 0.06391,0.39565c0,0.69036 -0.55964,1.25 -1.25,1.25c-0.69036,0 -1.25,-0.55964 -1.25,-1.25z" fill="#7c0023" stroke="none" stroke-width="0.5"/><path d="M316.65527,215.68315c0,-0.69036 0.55964,-1.25 1.25,-1.25c0.10653,0 0.20995,0.01333 0.30868,0.0384c0.31848,-0.33184 0.76649,-0.5384 1.26275,-0.5384c0.9665,0 1.75,0.7835 1.75,1.75c0,0.9665 -0.7835,1.75 -1.75,1.75c-0.49626,0 -0.94427,-0.20656 -1.26275,-0.5384c-0.09873,0.02508 -0.20215,0.0384 -0.30868,0.0384c-0.69036,0 -1.25,-0.55964 -1.25,-1.25z" fill="#7c0023" stroke="none" stroke-width="0.5"/><path d="M312.58385,215.5403c0,0.69036 -0.55964,1.25 -1.25,1.25c-0.44289,0 -0.83198,-0.23033 -1.05402,-0.57775c-0.16352,0.05054 -0.33728,0.07775 -0.5174,0.07775c-0.10667,0 -0.21111,-0.00954 -0.31251,-0.02782c0.08567,0.16933 0.13394,0.3608 0.13394,0.56354c0,0.69036 -0.55964,1.25 -1.25,1.25c-0.69036,0 -1.25,-0.55964 -1.25,-1.25c0,-0.69036 0.55964,-1.25 1.25,-1.25c0.00598,0 0.01196,0.00004 0.01792,0.00013c-0.21332,-0.29002 -0.33935,-0.64821 -0.33935,-1.03584c0,-0.9665 0.7835,-1.75 1.75,-1.75c0.88523,0 1.61695,0.65728 1.73374,1.51044c0.61367,0.07957 1.08769,0.60421 1.08769,1.23956z" fill="#7c0023" stroke="none" stroke-width="0.5"/><path d="M286.29814,225.5403c0,-0.9665 0.7835,-1.75 1.75,-1.75c0.9665,0 1.75,0.7835 1.75,1.75c0,0.9665 -0.7835,1.75 -1.75,1.75c-0.9665,0 -1.75,-0.7835 -1.75,-1.75z" fill="#910000" stroke="none" stroke-width="0.5"/><path d="M297.90527,226.93315c-0.15907,0 -0.31121,-0.02971 -0.45115,-0.0839c-0.2791,0.18827 -0.61542,0.29818 -0.97742,0.29818c-0.9665,0 -1.75,-0.7835 -1.75,-1.75c0,-0.9665 0.7835,-1.75 1.75,-1.75c0.61034,0 1.1477,0.31245 1.46086,0.78612c0.15848,0.00402 0.30962,0.03753 0.44816,0.09526c0.30166,-0.52659 0.86918,-0.88138 1.51955,-0.88138c0.39124,0 0.75249,0.12839 1.04392,0.34533c0.54182,-0.38958 1.22362,-0.34088 1.22362,-0.34088l2,0.14286c0,0 1.74555,0.12468 1.62087,1.87024c-0.12468,1.74555 -1.87024,1.62087 -1.87024,1.62087l-2,-0.14286c0,0 -0.51357,-0.03668 -0.96367,-0.34882c-0.29325,0.22174 -0.65852,0.35327 -1.05451,0.35327c-0.4722,0 -0.90072,-0.18702 -1.21553,-0.49104c-0.21449,0.1731 -0.48738,0.27675 -0.78447,0.27675z" fill="#910000" stroke="none" stroke-width="0.5"/><path d="M318.08385,226.96888c0,-0.69036 0.55964,-1.25 1.25,-1.25c0.38172,0 0.72348,0.1711 0.95276,0.4408c0.207,-0.5023 0.64101,-0.88713 1.17424,-1.02672c0.1275,-0.84099 0.85355,-1.4855 1.73014,-1.4855c0.9665,0 1.75,0.7835 1.75,1.75c0,0.81293 -0.5543,1.4964 -1.30557,1.69307c-0.1275,0.84099 -0.85355,1.4855 -1.73014,1.4855c-0.66147,0 -1.23723,-0.367 -1.53476,-0.90848c-0.22461,0.33263 -0.6051,0.55134 -1.03667,0.55134c-0.69036,0 -1.25,-0.55964 -1.25,-1.25z" fill="#910000" stroke="none" stroke-width="0.5"/><path d="M332.29814,225.11173c0,-0.9665 0.7835,-1.75 1.75,-1.75c0.9665,0 1.75,0.7835 1.75,1.75c0,0.9665 -0.7835,1.75 -1.75,1.75c-0.9665,0 -1.75,-0.7835 -1.75,-1.75z" fill="#910000" stroke="none" stroke-width="0.5"/><path d="M326.72673,225.39744c0,-0.9665 0.7835,-1.75 1.75,-1.75c0.9665,0 1.75,0.7835 1.75,1.75c0,0.9665 -0.7835,1.75 -1.75,1.75c-0.9665,0 -1.75,-0.7835 -1.75,-1.75z" fill="#910000" stroke="none" stroke-width="0.5"/><path d="M306.58385,225.82601c0,-0.9665 0.7835,-1.75 1.75,-1.75c0.9665,0 1.75,0.7835 1.75,1.75c0,0.9665 -0.7835,1.75 -1.75,1.75c-0.9665,0 -1.75,-0.7835 -1.75,-1.75z" fill="#910000" stroke="none" stroke-width="0.5"/><path d="M312.29814,226.39744c0,-0.9665 0.7835,-1.75 1.75,-1.75c0.9665,0 1.75,0.7835 1.75,1.75c0,0.9665 -0.7835,1.75 -1.75,1.75c-0.9665,0 -1.75,-0.7835 -1.75,-1.75z" fill="#910000" stroke="none" stroke-width="0.5"/><path d="M321.36956,197.96888c0,-0.69036 0.55964,-1.25 1.25,-1.25c0.69036,0 1.25,0.55964 1.25,1.25c0,0.69036 -0.55964,1.25 -1.25,1.25c-0.69036,0 -1.25,-0.55964 -1.25,-1.25z" fill="#650c25" stroke="none" stroke-width="0.5"/><path d="M320.72673,201.11173c0,-0.41421 0.33579,-0.75 0.75,-0.75c0.41111,0 0.74496,0.33077 0.74994,0.7407c0.20913,-0.39791 0.62648,-0.66927 1.1072,-0.66927c0.69036,0 1.25,0.55964 1.25,1.25c0,0.69036 -0.55964,1.25 -1.25,1.25c-0.69036,0 -1.25,-0.55964 -1.25,-1.25c0,-0.0481 0.00272,-0.09557 0.00801,-0.14226c-0.13557,0.19396 -0.36055,0.32083 -0.61515,0.32083c-0.41421,0 -0.75,-0.33579 -0.75,-0.75z" fill="#650c25" stroke="none" stroke-width="0.5"/><path d="M313.79814,214.96888c0,-0.69036 0.55964,-1.25 1.25,-1.25c0.69036,0 1.25,0.55964 1.25,1.25c0,0.69036 -0.55964,1.25 -1.25,1.25c-0.69036,0 -1.25,-0.55964 -1.25,-1.25z" fill="#7c0023" stroke="none" stroke-width="0.5"/><path d="M332.90527,217.2903c0.69036,0 1.25,0.55964 1.25,1.25c0,0.69036 -0.55964,1.25 -1.25,1.25c-0.36529,0 -0.69399,-0.15669 -0.92254,-0.40653c-0.12418,0.55955 -0.62339,0.97796 -1.22031,0.97796c-0.69036,0 -1.25,-0.55964 -1.25,-1.25c0,-0.69036 0.55964,-1.25 1.25,-1.25c0.36529,0 0.69399,0.15669 0.92254,0.40653c0.12418,-0.55955 0.62339,-0.97796 1.22031,-0.97796z" fill="#7c0023" stroke="none" stroke-width="0.5"/><path d="M290.94102,224.5403c0,-0.69036 0.55964,-1.25 1.25,-1.25c0.69036,0 1.25,0.55964 1.25,1.25c0,0.69036 -0.55964,1.25 -1.25,1.25c-0.69036,0 -1.25,-0.55964 -1.25,-1.25z" fill="#910000" stroke="none" stroke-width="0.5"/><path d="M300.51246,228.82601c0,-0.69036 0.55964,-1.25 1.25,-1.25c0.69036,0 1.25,0.55964 1.25,1.25c0,0.69036 -0.55964,1.25 -1.25,1.25c-0.69036,0 -1.25,-0.55964 -1.25,-1.25z" fill="#910000" stroke="none" stroke-width="0.5"/><path d="M304.36956,229.11173c0,-0.69036 0.55964,-1.25 1.25,-1.25c0.69036,0 1.25,0.55964 1.25,1.25c0,0.69036 -0.55964,1.25 -1.25,1.25c-0.69036,0 -1.25,-0.55964 -1.25,-1.25z" fill="#910000" stroke="none" stroke-width="0.5"/><path d="M309.65527,227.82601c0,-0.69036 0.55964,-1.25 1.25,-1.25c0.69036,0 1.25,0.55964 1.25,1.25c0,0.69036 -0.55964,1.25 -1.25,1.25c-0.69036,0 -1.25,-0.55964 -1.25,-1.25z" fill="#910000" stroke="none" stroke-width="0.5"/><path d="M327.36956,228.39744c0,-0.69036 0.55964,-1.25 1.25,-1.25c0.69036,0 1.25,0.55964 1.25,1.25c0,0.69036 -0.55964,1.25 -1.25,1.25c-0.69036,0 -1.25,-0.55964 -1.25,-1.25z" fill="#910000" stroke="none" stroke-width="0.5"/><path d="M334.65527,230.11173c0,-0.69036 0.55964,-1.25 1.25,-1.25c0.69036,0 1.25,0.55964 1.25,1.25c0,0.69036 -0.55964,1.25 -1.25,1.25c-0.69036,0 -1.25,-0.55964 -1.25,-1.25z" fill="#910000" stroke="none" stroke-width="0.5"/><path d="M350.51246,226.25457c0,-0.69036 0.55964,-1.25 1.25,-1.25c0.69036,0 1.25,0.55964 1.25,1.25c0,0.69036 -0.55964,1.25 -1.25,1.25c-0.69036,0 -1.25,-0.55964 -1.25,-1.25z" fill="#910000" stroke="none" stroke-width="0.5"/><path d="M289.22673,228.5403c0,-0.69036 0.55964,-1.25 1.25,-1.25c0.69036,0 1.25,0.55964 1.25,1.25c0,0.69036 -0.55964,1.25 -1.25,1.25c-0.69036,0 -1.25,-0.55964 -1.25,-1.25z" fill="#910000" stroke="none" stroke-width="0.5"/><path d="M291.15527,231.96888c0,-0.41421 0.33579,-0.75 0.75,-0.75c0.41421,0 0.75,0.33579 0.75,0.75c0,0.41421 -0.33579,0.75 -0.75,0.75c-0.41421,0 -0.75,-0.33579 -0.75,-0.75z" fill="#910000" stroke="none" stroke-width="0.5"/><path d="M302.72673,235.5403c0,-0.41421 0.33579,-0.75 0.75,-0.75c0.41421,0 0.75,0.33579 0.75,0.75c0,0.41421 -0.33579,0.75 -0.75,0.75c-0.41421,0 -0.75,-0.33579 -0.75,-0.75z" fill="#910000" stroke="none" stroke-width="0.5"/><path d="M307.44102,231.82601c0,-0.41421 0.33579,-0.75 0.75,-0.75c0.41421,0 0.75,0.33579 0.75,0.75c0,0.41421 -0.33579,0.75 -0.75,0.75c-0.41421,0 -0.75,-0.33579 -0.75,-0.75z" fill="#910000" stroke="none" stroke-width="0.5"/><path d="M320.86956,232.82601c0,-0.41421 0.33579,-0.75 0.75,-0.75c0.41421,0 0.75,0.33579 0.75,0.75c0,0.41421 -0.33579,0.75 -0.75,0.75c-0.41421,0 -0.75,-0.33579 -0.75,-0.75z" fill="#910000" stroke="none" stroke-width="0.5"/><path d="M332.44102,235.25457c0,-0.41421 0.33579,-0.75 0.75,-0.75c0.41421,0 0.75,0.33579 0.75,0.75c0,0.41421 -0.33579,0.75 -0.75,0.75c-0.41421,0 -0.75,-0.33579 -0.75,-0.75z" fill="#910000" stroke="none" stroke-width="0.5"/><path d="M339.86961,234.5403c0,-0.41421 0.33579,-0.75 0.75,-0.75c0.41421,0 0.75,0.33579 0.75,0.75c0,0.41421 -0.33579,0.75 -0.75,0.75c-0.41421,0 -0.75,-0.33579 -0.75,-0.75z" fill="#910000" stroke="none" stroke-width="0.5"/><path d="M305.44102,220.96888c0,-0.41421 0.33579,-0.75 0.75,-0.75c0.41421,0 0.75,0.33579 0.75,0.75c0,0.41421 -0.33579,0.75 -0.75,0.75c-0.41421,0 -0.75,-0.33579 -0.75,-0.75z" fill="#7c0023" stroke="none" stroke-width="0.5"/><path d="M301.44102,220.5403c0,-0.41421 0.33579,-0.75 0.75,-0.75c0.41421,0 0.75,0.33579 0.75,0.75c0,0.41421 -0.33579,0.75 -0.75,0.75c-0.41421,0 -0.75,-0.33579 -0.75,-0.75z" fill="#7c0023" stroke="none" stroke-width="0.5"/><path d="M319.72673,219.68315c0,-0.41421 0.33579,-0.75 0.75,-0.75c0.41421,0 0.75,0.33579 0.75,0.75c0,0.41421 -0.33579,0.75 -0.75,0.75c-0.41421,0 -0.75,-0.33579 -0.75,-0.75z" fill="#7c0023" stroke="none" stroke-width="0.5"/><path d="M332.29814,223.82601c0,-0.41421 0.33579,-0.75 0.75,-0.75c0.41421,0 0.75,0.33579 0.75,0.75c0,0.41421 -0.33579,0.75 -0.75,0.75c-0.41421,0 -0.75,-0.33579 -0.75,-0.75z" fill="#7c0023" stroke="none" stroke-width="0.5"/><path d="M313.58385,207.5403c0,-0.41421 0.33579,-0.75 0.75,-0.75c0.41421,0 0.75,0.33579 0.75,0.75c0,0.41421 -0.33579,0.75 -0.75,0.75c-0.41421,0 -0.75,-0.33579 -0.75,-0.75z" fill="#650c25" stroke="none" stroke-width="0.5"/><path d="M323.44102,207.96888c0,-0.41421 0.33579,-0.75 0.75,-0.75c0.41421,0 0.75,0.33579 0.75,0.75c0,0.41421 -0.33579,0.75 -0.75,0.75c-0.41421,0 -0.75,-0.33579 -0.75,-0.75z" fill="#650c25" stroke="none" stroke-width="0.5"/><g stroke="none" stroke-width="0.5"><path d="M316.1681,261.97763c-0.7276,-0.1819 -0.5457,-0.9095 -0.5457,-0.9095l0.20752,-0.82779c1.01707,-3.04116 2.39006,-7.08013 2.17166,-10.34191c-0.27898,-4.16652 -2.58909,-8.04789 -2.59927,-12.18974c-0.90332,-5.61474 -2.56298,-12.21805 -2.20047,-17.91104c0.23895,-3.75256 3.01587,-6.78356 3.00035,-10.60472c1.26096,-8.30426 2.93003,-17.3248 1.40992,-25.60874c0,0 -0.13416,-0.7379 0.60374,-0.87207c0.7379,-0.13416 0.87206,0.60374 0.87206,0.60374c1.51632,8.42432 -0.07775,17.55216 -1.39007,25.99126c-0.0145,3.84327 -2.76596,6.86548 -2.99966,10.59528c-0.35269,5.62888 1.33646,12.13133 2.19953,17.68896c-0.01069,4.13487 2.36495,8.03304 2.60073,12.21026c0.19464,3.44815 -1.16262,7.64885 -2.22834,10.8581l-0.19248,0.77221c0,0 -0.1819,0.7276 -0.90951,0.5457z" fill="url(#color-3)"/><path d="M325.5956,194.86047c0.04672,0.2456 -0.19888,0.29231 -0.19888,0.29231l-0.0227,0.00432c-2.79391,0.53144 -5.56804,1.14148 -8.40137,1.39906c0,0 -0.24898,0.02264 -0.27161,-0.22634c-0.02263,-0.24898 0.22634,-0.27161 0.22634,-0.27161c2.81699,-0.25609 5.57536,-0.86392 8.35321,-1.3923l0.02271,-0.00431c0,0 0.24559,-0.04672 0.29231,0.19888z" fill="#787878"/><path d="M320.59984,204.11628c-0.00909,0.24983 -0.25892,0.24075 -0.25892,0.24075l-0.33409,-0.01261c-2.16471,-0.21119 -4.28125,-0.38722 -6.45682,-0.38722c0,0 -0.25,0 -0.25,-0.25c0,-0.25 0.25,-0.25 0.25,-0.25c2.19168,0 4.32474,0.17683 6.50538,0.38958l0.30371,0.01059c0,0 0.24984,0.00909 0.24075,0.25892z" fill="#787878"/><path d="M317.99361,213.16349c-0.05631,0.24357 -0.29989,0.18726 -0.29989,0.18726l-0.06194,-0.01432c-1.47445,-0.34085 -2.909,-0.7453 -4.35527,-1.19031c0,0 -0.23894,-0.07352 -0.16542,-0.31247c0.07352,-0.23895 0.31246,-0.16542 0.31246,-0.16542c1.43503,0.44155 2.85789,0.84285 4.32085,1.18105l0.06194,0.01432c0,0 0.24358,0.05631 0.18727,0.29988z" fill="#787878"/><path d="M318.35641,220.96611c0.14108,0.20639 -0.0653,0.34747 -0.0653,0.34747l-0.18108,0.12378c-1.9733,1.34894 -4.60982,2.34893 -6.88095,3.107c0,0 -0.23717,0.07905 -0.31623,-0.15812c-0.07905,-0.23717 0.15812,-0.31623 0.15812,-0.31623c2.22725,-0.74137 4.82214,-1.72285 6.75689,-3.04543l0.18108,-0.12378c0,0 0.20639,-0.14109 0.34747,0.0653z" fill="#787878"/><path d="M317.79859,232.08053c0.02666,0.24857 -0.22191,0.27524 -0.22191,0.27524l-0.06408,0.00688c-1.6473,0.17635 -3.28726,0.51878 -4.92149,0.79115c0,0 -0.2466,0.0411 -0.2877,-0.2055c-0.0411,-0.2466 0.2055,-0.2877 0.2055,-0.2877c1.64396,-0.274 3.2933,-0.617 4.95036,-0.7951l0.06408,-0.00687c0,0 0.24858,-0.02667 0.27524,0.22191z" fill="#787878"/><path d="M320.59993,241.10039c0.00679,0.24991 -0.24312,0.2567 -0.24312,0.2567l-0.21396,0.00396c-1.31858,0.19779 -2.63716,0.39558 -3.95574,0.59337c0,0 -0.24724,0.03708 -0.28432,-0.21015c-0.03708,-0.24723 0.21015,-0.28432 0.21015,-0.28432c1.31858,-0.19779 2.63717,-0.39558 3.95575,-0.59336l0.27455,-0.00931c0,0 0.24991,-0.00679 0.2567,0.24312z" fill="#787878"/><path d="M319.12681,257.22677c-0.17678,0.17678 -0.35355,0 -0.35355,0c-1.06066,-1.06066 -2.33934,-2.33934 -3.4,-3.4c0,0 -0.17678,-0.17677 0,-0.35355c0.17678,-0.17677 0.35355,0 0.35355,0c1.06066,1.06066 2.12132,2.12132 3.18198,3.18198l0.21802,0.21802c0,0 0.17678,0.17677 0,0.35355z" fill="#787878"/><path d="M317.19449,261.90238c-0.05238,0.24445 -0.29683,0.19207 -0.29683,0.19207c-0.81484,-0.17461 -1.98516,-0.42539 -2.8,-0.6c0,0 -0.24445,-0.05238 -0.19207,-0.29683c0.05238,-0.24445 0.29683,-0.19207 0.29683,-0.19207c0.81484,0.17461 1.62967,0.34921 2.44451,0.52382l0.35549,0.07618c0,0 0.24445,0.05238 0.19207,0.29683z" fill="#787878"/><path d="M315.79949,217.92333c-0.01614,0.24948 -0.26562,0.23333 -0.26562,0.23333l-0.02028,-0.00131c-1.33246,-0.08637 -2.66184,-0.25976 -3.98975,-0.39954c0,0 -0.24862,-0.02617 -0.22245,-0.2748c0.02617,-0.24863 0.27479,-0.22245 0.27479,-0.22245c1.32119,0.13907 2.64396,0.31217 3.9697,0.39783l0.02028,0.00131c0,0 0.24948,0.01614 0.23334,0.26563z" fill="#787878"/><path d="M323.74186,188.34688c0.1603,0.19185 -0.03154,0.35215 -0.03154,0.35215l-0.1909,0.1595c-2.1415,1.78934 -4.96233,2.70018 -7.73405,3.09614c0,0 -0.24748,0.03536 -0.28284,-0.21213c-0.03535,-0.24749 0.21213,-0.28284 0.21213,-0.28284c2.68204,-0.38315 5.41313,-1.25439 7.48416,-2.98486l0.1909,-0.1595c0,0 0.19185,-0.1603 0.35215,0.03154z" fill="#787878"/><path d="M319.96286,250.98117c-0.13113,0.21285 -0.34398,0.08172 -0.34398,0.08172l-0.11229,-0.06918c-1.09535,-0.67807 -2.44666,-1.0438 -3.64719,-1.51067c0,0 -0.233,-0.09061 -0.14239,-0.32361c0.09061,-0.233 0.32361,-0.14239 0.32361,-0.14239c1.23204,0.47913 2.60118,0.85967 3.72823,1.55097l0.11228,0.06918c0,0 0.21285,0.13113 0.08172,0.34398z" fill="#787878"/></g><g stroke="none" stroke-width="0.5"><path d="M329.31994,196.87664c2.95718,-1.70651 9.3736,-0.816 11.54957,-0.70467c10.31847,0.52796 21.89148,4.19196 23.08494,16.63688c0.7702,8.03131 -8.08258,8.80671 -13.0619,12.21746c-1.0495,0.71889 -2.30413,3.7698 -2.90221,4.07658c-1.83152,0.93947 -4.0812,1.90026 -6.02382,1.23595c-11.5491,-3.94938 0.41762,-14.7782 4.55461,-17.20732c0.24354,-0.143 3.79998,-1.69858 3.82088,-1.8668c0.18766,-1.51065 -5.63077,-2.16895 -6.33217,-2.27861c-3.83837,-0.60011 -7.76797,-0.1191 -11.64206,-0.38416c-0.16271,-0.01113 -0.33545,-0.01682 -0.51324,-0.02185c-3.12636,-0.26738 -5.58243,-2.95528 -5.58243,-6.23165c0,-2.03507 0.94757,-3.84309 2.41476,-4.98505c0.18766,-0.18638 0.39691,-0.35048 0.63307,-0.48676z" fill="url(#color-4)"/><path d="M351.62474,206.15883c0.2757,-0.02828 0.30327,0.25456 0.30327,0.25456l0.0011,0.01128c0.15503,1.59036 0.07587,2.3325 -0.54927,3.37366l0.3686,-0.12076c0.27128,-0.18352 0.57283,-0.36727 0.88891,-0.48645c0.18901,-0.09418 0.38524,-0.18521 0.58949,-0.27501l0.50371,-0.22147c0.03497,-0.01635 0.07384,-0.02546 0.11478,-0.02546c0.15303,0 0.27708,0.12726 0.27708,0.28425c0,0.09957 -0.04991,0.1872 -0.12547,0.23797l-0.45575,0.31579l-0.05656,-0.08591l-0.03951,0.01737c-0.07544,0.03316 -0.14966,0.06645 -0.22272,0.09995c-0.16518,0.08965 -0.33366,0.16518 -0.51092,0.24908c-0.85467,0.44569 -1.54388,0.97435 -2.16748,1.82735c0,0 -0.16625,0.22739 -0.3879,0.05684c-0.22166,-0.17055 -0.05541,-0.39794 -0.05541,-0.39794c0.11998,-0.16412 0.24237,-0.31742 0.36775,-0.46131c-0.0289,-0.00996 -0.05923,-0.02615 -0.09068,-0.05034c-0.22166,-0.17055 -0.05541,-0.39795 -0.05541,-0.39795c1.12737,-1.54208 1.24232,-1.96506 1.05536,-3.88308l-0.0011,-0.01128c0,0 -0.02757,-0.28284 0.24813,-0.31112z" fill="#580000"/></g><g stroke="none" stroke-width="0.5"><path d="M281.47186,215.9083c0.81345,-1.44931 1.10109,-3.44605 2.23162,-4.56523c0.17242,-0.17068 0.36443,-0.32096 0.58091,-0.44576c0.03142,-0.01811 0.09886,-0.03847 0.19619,-0.06085c0.7758,-0.4183 1.65798,-0.655 2.59263,-0.655c0.33116,0 0.6554,0.02972 0.97036,0.0867c1.15229,-0.19493 2.15267,-0.41207 2.28065,-0.6293c0.57135,-0.96974 -0.26162,-2.35928 0.20175,-3.38768c0.01522,-0.03379 0.03133,-0.06692 0.04828,-0.09942c-0.8472,-0.32083 -1.68232,-0.80587 -2.29217,-1.23062c-6.56912,-4.57529 -10.71001,-11.78271 -1.60528,-16.01677c2.93793,-1.36625 13.45494,6.04248 15.25707,6.85984c1.70083,0.77141 9.32604,0.45355 9.85699,3.26297l1.34896,3.76145c-1.15877,1.46289 -1.82779,3.78024 -3.14952,4.96322c0.94089,4.60206 -3.13202,8.07166 -7.10042,9.94673c-2.41357,1.14041 -5.2431,1.82379 -7.80624,2.49899c-1.02588,0.27024 -9.57409,3.04897 -10.89614,0.64624z" fill="url(#color-5)"/><path d="M294.00865,208.07717c-0.08142,0.24695 -0.32115,0.16464 -0.32115,0.16464l-0.38103,-0.13084c-1.02543,-0.35212 -1.81185,-0.73984 -2.70916,-1.35726c0,0 -0.20986,-0.1444 -0.06822,-0.36099c0.00016,-0.00026 0.00033,-0.00051 0.0005,-0.00075c-0.02428,-0.00806 -0.04838,-0.01619 -0.0723,-0.02439c0,0 -0.23972,-0.08232 -0.1583,-0.32927c0.08142,-0.24695 0.32115,-0.16463 0.32115,-0.16463c1.73926,0.5978 4.54363,0.79669 6.32653,0.26601l0.44111,-0.06826c0,0 0.2506,-0.03847 0.28659,0.21899c0.03599,0.25745 -0.21461,0.29592 -0.21461,0.29592l-0.40872,0.06218c-1.59944,0.46266 -3.93534,0.38746 -5.7203,-0.03215c0.68349,0.42685 1.32596,0.72167 2.13859,1.00071l0.38103,0.13084c0,0 0.23972,0.08232 0.1583,0.32927z" fill="#580000"/></g></g><path d="" fill="none" stroke="#000000" stroke-width="2" stroke-linecap="round"/><path d="M330.64524,180.66176c0,0 -9.57712,2.26011 -16.71113,1.67809c-8.23689,-0.672 -14.01013,-3.98215 -14.01013,-3.98215" fill="none" stroke="#000000" stroke-width="0" stroke-linecap="round"/><path d="" fill="none" stroke="#000000" stroke-width="2" stroke-linecap="round"/><g stroke-linecap="butt"><path d="M354.27593,81.43492c0,0 55.77913,-17.56539 62.56174,-19.70129c1.3172,-0.41481 1.53718,0.49845 0.54454,1.997c-4.53315,6.84366 -37.85299,57.14633 -37.85299,57.14633z" fill="#780000" stroke="#000000" stroke-width="0"/><path d="M376.73947,149.10381c0,0 3.83345,30.52318 4.49924,35.82451c0.18996,1.51247 -1.02968,2.70821 -2.1416,2.44027c-4.90934,-1.18304 -39.41545,-9.627 -39.41545,-9.627z" fill="#780000" stroke="#000000" stroke-width="0"/><path d="M260.16529,125.33867c0,0 -36.98216,-47.67485 -42.01357,-54.161c-1.10173,-1.42027 -0.95055,-2.3474 0.39395,-2.03208c6.92313,1.62361 63.85794,14.97585 63.85794,14.97585z" fill="#780000" stroke="#000000" stroke-width="0"/><path d="M303.91575,179.07848c0,0 -33.77945,10.99639 -38.58678,12.54265c-1.08882,0.35022 -2.39431,-0.75117 -2.31781,-2.27357c0.26817,-5.33625 1.81226,-36.06041 1.81226,-36.06041z" fill="#780000" stroke="#000000" stroke-width="0"/><g><path d="M255.80237,128.2216c-1.24392,-33.27861 26.4875,-61.33052 61.93986,-62.65569c35.45237,-1.32518 65.20059,24.57819 66.44452,57.85681c1.24392,33.27861 -26.48749,61.33052 -61.93986,62.6557c-35.45235,1.32518 -65.20059,-24.57819 -66.44451,-57.85681z" fill="#a20000" stroke="#000000" stroke-width="0"/><path d="M255.80237,128.2216c-1.24392,-33.27861 26.4875,-61.33052 61.93986,-62.65569c35.45237,-1.32518 65.20059,24.57819 66.44452,57.85681c0.00109,0.02925 -128.38304,4.83484 -128.38438,4.7989z" fill="#910000" stroke="#000000" stroke-width="0"/><path d="M256.94019,114.5389c5.57844,-26.96377 30.34011,-47.83437 60.80205,-48.97301c30.13823,-1.12654 56.408,17.88845 64.30823,43.94522c0.03559,0.11738 -125.1165,5.05791 -125.11029,5.02779z" fill="#7c0023" stroke="#000000" stroke-width="0"/><path d="M262.0848,99.96237c10.02097,-19.58713 30.96672,-33.47356 55.65742,-34.39646c24.96798,-0.93329 47.10672,11.63861 58.45188,30.78069c0.00213,0.0036 -114.11163,3.62029 -114.10931,3.61577z" fill="#650c25" stroke="#000000" stroke-width="0"/><path d="M372.4977,97.14831c-0.03561,-0.96584 0.71848,-1.77769 1.68432,-1.8133c0.96584,-0.03561 1.77769,0.71848 1.8133,1.68432c0.03561,0.96584 -0.71848,1.77769 -1.68432,1.8133c-0.96584,0.03561 -1.77769,-0.71848 -1.8133,-1.68432z" fill="#650c25" stroke="none" stroke-width="0.5"/><path d="M367.67148,96.52574c-0.03561,-0.96584 0.71848,-1.77769 1.68432,-1.8133c0.96584,-0.03561 1.77769,0.71848 1.8133,1.68432c0.03561,0.96584 -0.71848,1.77769 -1.68432,1.8133c-0.96584,0.03561 -1.77769,-0.71848 -1.8133,-1.68432z" fill="#650c25" stroke="none" stroke-width="0.5"/><path d="M353.47376,96.8492c-0.03561,-0.96584 0.71848,-1.77769 1.68432,-1.8133c0.96584,-0.03561 1.77769,0.71848 1.8133,1.68432c0.03561,0.96584 -0.71848,1.77769 -1.68432,1.8133c-0.96584,0.03561 -1.77769,-0.71848 -1.8133,-1.68432z" fill="#650c25" stroke="none" stroke-width="0.5"/><path d="M348.41716,98.11975c-0.02366,-0.64159 0.44055,-1.18805 1.06057,-1.28188c0.04721,-0.89453 0.77064,-1.62091 1.68307,-1.65456c0.96584,-0.03561 1.77769,0.71848 1.8133,1.68432c0.03561,0.96584 -0.71848,1.77769 -1.68432,1.8133c-0.17362,0.00641 -0.34227,-0.0127 -0.50232,-0.05398c-0.19688,0.39807 -0.60013,0.67837 -1.07509,0.6959c-0.68989,0.02544 -1.26977,-0.51321 -1.29521,-1.20309z" fill="#650c25" stroke="none" stroke-width="0.5"/><path d="M342.6811,97.24722c-0.03561,-0.96584 0.71848,-1.77769 1.68432,-1.8133c0.96584,-0.03561 1.77769,0.71848 1.8133,1.68432c0.03561,0.96584 -0.71848,1.77769 -1.68432,1.8133c-0.96584,0.03561 -1.77769,-0.71848 -1.8133,-1.68432z" fill="#650c25" stroke="none" stroke-width="0.5"/><path d="M338.25126,98.32789c0.02544,0.68988 -0.5132,1.26977 -1.20309,1.29521c-0.63611,0.02345 -1.17869,-0.43264 -1.27936,-1.0447c-0.72696,-0.1906 -1.27511,-0.83879 -1.30424,-1.62857c-0.03561,-0.96584 0.71848,-1.77769 1.68432,-1.8133c0.96584,-0.03561 1.77769,0.71848 1.8133,1.68432c0.00837,0.22708 -0.0269,0.44565 -0.09833,0.64762c0.2281,0.21704 0.37488,0.51992 0.3874,0.85941z" fill="#650c25" stroke="none" stroke-width="0.5"/><path d="M325.25604,96.88915c-0.03561,-0.96584 0.71848,-1.77769 1.68432,-1.8133c0.96584,-0.03561 1.77769,0.71848 1.8133,1.68432c0.03561,0.96584 -0.71848,1.77769 -1.68432,1.8133c-0.96584,0.03561 -1.77769,-0.71848 -1.8133,-1.68432z" fill="#650c25" stroke="none" stroke-width="0.5"/><path d="M319.68197,97.69512c-0.03561,-0.96584 0.71848,-1.77769 1.68432,-1.8133c0.96584,-0.03561 1.77769,0.71848 1.8133,1.68432c0.03561,0.96584 -0.71848,1.77769 -1.68432,1.8133c-0.96584,0.03561 -1.77769,-0.71848 -1.8133,-1.68432z" fill="#650c25" stroke="none" stroke-width="0.5"/><path d="M314.47096,100.20554c-0.00851,-0.23075 0.04608,-0.4492 0.14834,-0.63872c-0.7412,-0.18087 -1.30347,-0.8357 -1.33297,-1.63584c-0.03561,-0.96584 0.71848,-1.77769 1.68432,-1.8133c0.96584,-0.03561 1.77769,0.71848 1.8133,1.68432c0.01785,0.48411 -0.1627,0.92955 -0.46888,1.25792c0.37583,0.20382 0.63729,0.59529 0.65419,1.05349c0.02544,0.68988 -0.5132,1.26977 -1.20309,1.29521c-0.68989,0.02544 -1.26977,-0.51321 -1.29521,-1.20309z" fill="#650c25" stroke="none" stroke-width="0.5"/><path d="M308.49695,98.30773c-0.03561,-0.96584 0.71848,-1.77769 1.68432,-1.8133c0.96584,-0.03561 1.77769,0.71848 1.8133,1.68432c0.03561,0.96584 -0.71848,1.77769 -1.68432,1.8133c-0.96584,0.03561 -1.77769,-0.71848 -1.8133,-1.68432z" fill="#650c25" stroke="none" stroke-width="0.5"/><path d="M303.88631,95.84266c0.68989,-0.02544 1.26977,0.51321 1.29521,1.20309c0.00438,0.11898 -0.00799,0.23471 -0.03506,0.34486c0.14578,0.24413 0.23399,0.52733 0.24521,0.83153c0.03561,0.96584 -0.71848,1.77769 -1.68432,1.8133c-0.96584,0.03561 -1.77769,-0.71848 -1.8133,-1.68432c-0.02393,-0.6488 0.30849,-1.22811 0.82209,-1.54933c0.12676,-0.5329 0.5961,-0.93796 1.17015,-0.95914z" fill="#650c25" stroke="none" stroke-width="0.5"/><path d="M292.67819,98.09056c-0.03561,-0.96584 0.71848,-1.77769 1.68432,-1.8133c0.96584,-0.03561 1.77769,0.71848 1.8133,1.68432c0.03561,0.96584 -0.71848,1.77769 -1.68432,1.8133c-0.96584,0.03561 -1.77769,-0.71848 -1.8133,-1.68432z" fill="#650c25" stroke="none" stroke-width="0.5"/><path d="M285.91229,99.14062c-0.03561,-0.96584 0.71848,-1.77769 1.68432,-1.8133c0.96584,-0.03561 1.77769,0.71848 1.8133,1.68432c0.03561,0.96584 -0.71848,1.77769 -1.68432,1.8133c-0.96584,0.03561 -1.77769,-0.71848 -1.8133,-1.68432z" fill="#650c25" stroke="none" stroke-width="0.5"/><path d="M279.92376,99.5616c-0.03561,-0.96584 0.71848,-1.77769 1.68432,-1.8133c0.96584,-0.03561 1.77769,0.71848 1.8133,1.68432c0.03561,0.96584 -0.71848,1.77769 -1.68432,1.8133c-0.96584,0.03561 -1.77769,-0.71848 -1.8133,-1.68432z" fill="#650c25" stroke="none" stroke-width="0.5"/><path d="M275.11965,99.53864c-0.03561,-0.96584 0.71848,-1.77769 1.68432,-1.8133c0.96584,-0.03561 1.77769,0.71848 1.8133,1.68432c0.03561,0.96584 -0.71848,1.77769 -1.68432,1.8133c-0.96584,0.03561 -1.77769,-0.71848 -1.8133,-1.68432z" fill="#650c25" stroke="none" stroke-width="0.5"/><path d="M266.22029,98.81612c-0.02544,-0.68988 0.5132,-1.26977 1.20309,-1.29521c0.28906,-0.01066 0.55879,0.07771 0.77655,0.23473c0.27586,-0.20772 0.61584,-0.33611 0.98709,-0.34981c0.96584,-0.03561 1.77769,0.71848 1.8133,1.68432c0.03561,0.96584 -0.71848,1.77769 -1.68432,1.8133c-0.68425,0.02523 -1.29119,-0.34588 -1.59962,-0.90783c-0.06519,0.01305 -0.13228,0.02106 -0.20086,0.02359c-0.68989,0.02544 -1.26977,-0.51321 -1.29521,-1.20309z" fill="#650c25" stroke="none" stroke-width="0.5"/><path d="M262.3357,100.21023c-0.03561,-0.96584 0.71848,-1.77769 1.68432,-1.8133c0.96584,-0.03561 1.77769,0.71848 1.8133,1.68432c0.03561,0.96584 -0.71848,1.77769 -1.68432,1.8133c-0.96584,0.03561 -1.77769,-0.71848 -1.8133,-1.68432z" fill="#650c25" stroke="none" stroke-width="0.5"/><path d="M329.87442,97.30257c-0.03561,-0.96584 0.71848,-1.77769 1.68432,-1.8133c0.96584,-0.03561 1.77769,0.71848 1.8133,1.68432c0.03561,0.96584 -0.71848,1.77769 -1.68432,1.8133c-0.96584,0.03561 -1.77769,-0.71848 -1.8133,-1.68432z" fill="#650c25" stroke="none" stroke-width="0.5"/><path d="M362.9073,97.58538c-0.02544,-0.68988 0.5132,-1.26977 1.20309,-1.29521c0.68989,-0.02544 1.26977,0.51321 1.29521,1.20309c0.02544,0.68988 -0.5132,1.26977 -1.20309,1.29521c-0.68989,0.02544 -1.26977,-0.51321 -1.29521,-1.20309z" fill="#650c25" stroke="none" stroke-width="0.5"/><path d="M370.34621,100.31308c-0.02544,-0.68988 0.5132,-1.26977 1.20309,-1.29521c0.68989,-0.02544 1.26977,0.51321 1.29521,1.20309c0.02544,0.68988 -0.5132,1.26977 -1.20309,1.29521c-0.68989,0.02544 -1.26977,-0.51321 -1.29521,-1.20309z" fill="#650c25" stroke="none" stroke-width="0.5"/><path d="M361.84586,100.45978c-0.02544,-0.68988 0.5132,-1.26977 1.20309,-1.29521c0.68989,-0.02544 1.26977,0.51321 1.29521,1.20309c0.02544,0.68988 -0.5132,1.26977 -1.20309,1.29521c-0.68989,0.02544 -1.26977,-0.51321 -1.29521,-1.20309z" fill="#650c25" stroke="none" stroke-width="0.5"/><path d="M330.45322,103.9524c-0.02544,-0.68988 0.5132,-1.26977 1.20309,-1.29521c0.68989,-0.02544 1.26977,0.51321 1.29521,1.20309c0.02544,0.68988 -0.5132,1.26977 -1.20309,1.29521c-0.68989,0.02544 -1.26977,-0.51321 -1.29521,-1.20309z" fill="#650c25" stroke="none" stroke-width="0.5"/><path d="M318.5788,103.05609c-0.02544,-0.68988 0.5132,-1.26977 1.20309,-1.29521c0.68989,-0.02544 1.26977,0.51321 1.29521,1.20309c0.02544,0.68988 -0.5132,1.26977 -1.20309,1.29521c-0.68989,0.02544 -1.26977,-0.51321 -1.29521,-1.20309z" fill="#650c25" stroke="none" stroke-width="0.5"/><path d="M295.85383,101.89278c-0.02544,-0.68988 0.5132,-1.26977 1.20309,-1.29521c0.31748,-0.01171 0.61166,0.09604 0.83923,0.28301c0.15937,-0.48144 0.60443,-0.83659 1.14098,-0.85638c0.68989,-0.02544 1.26977,0.51321 1.29521,1.20309c0.02544,0.68988 -0.5132,1.26977 -1.20309,1.29521c-0.31748,0.01171 -0.61165,-0.09604 -0.83922,-0.28301c-0.15937,0.48144 -0.60443,0.83659 -1.14099,0.85638c-0.68989,0.02544 -1.26977,-0.51321 -1.29521,-1.20309z" fill="#650c25" stroke="none" stroke-width="0.5"/><path d="M282.08516,103.90157c-0.02544,-0.68988 0.5132,-1.26977 1.20309,-1.29521c0.68989,-0.02544 1.26977,0.51321 1.29521,1.20309c0.02544,0.68988 -0.5132,1.26977 -1.20309,1.29521c-0.68989,0.02544 -1.26977,-0.51321 -1.29521,-1.20309z" fill="#650c25" stroke="none" stroke-width="0.5"/><path d="M276.27422,104.61621c-0.02544,-0.68988 0.5132,-1.26977 1.20309,-1.29521c0.68989,-0.02544 1.26977,0.51321 1.29521,1.20309c0.02544,0.68988 -0.5132,1.26977 -1.20309,1.29521c-0.68989,0.02544 -1.26977,-0.51321 -1.29521,-1.20309z" fill="#650c25" stroke="none" stroke-width="0.5"/><path d="M272.83871,101.90765c-0.02544,-0.68988 0.5132,-1.26977 1.20309,-1.29521c0.68989,-0.02544 1.26977,0.51321 1.29521,1.20309c0.02544,0.68988 -0.5132,1.26977 -1.20309,1.29521c-0.68989,0.02544 -1.26977,-0.51321 -1.29521,-1.20309z" fill="#650c25" stroke="none" stroke-width="0.5"/><path d="M263.71443,107.74787c-0.01527,-0.41393 0.30792,-0.76187 0.72186,-0.77713c0.41394,-0.01527 0.76187,0.30793 0.77713,0.72186c0.01527,0.41393 -0.30792,0.76187 -0.72186,0.77713c-0.41394,0.01527 -0.76187,-0.30793 -0.77713,-0.72186z" fill="#650c25" stroke="none" stroke-width="0.5"/><path d="M271.29534,109.80323c-0.01527,-0.41393 0.30792,-0.76187 0.72186,-0.77713c0.41394,-0.01527 0.76187,0.30793 0.77713,0.72186c0.01527,0.41393 -0.30792,0.76187 -0.72186,0.77713c-0.41394,0.01527 -0.76187,-0.30793 -0.77713,-0.72186z" fill="#650c25" stroke="none" stroke-width="0.5"/><path d="M311.76167,108.1441c-0.01527,-0.41393 0.30792,-0.76187 0.72186,-0.77713c0.41394,-0.01527 0.76187,0.30793 0.77713,0.72186c0.01527,0.41393 -0.30792,0.76187 -0.72186,0.77713c-0.41394,0.01527 -0.76187,-0.30793 -0.77713,-0.72186z" fill="#650c25" stroke="none" stroke-width="0.5"/><path d="M321.66818,109.94692c-0.01527,-0.41393 0.30792,-0.76187 0.72186,-0.77713c0.41394,-0.01527 0.76187,0.30793 0.77713,0.72186c0.01527,0.41393 -0.30792,0.76187 -0.72186,0.77713c-0.41394,0.01527 -0.76187,-0.30793 -0.77713,-0.72186z" fill="#650c25" stroke="none" stroke-width="0.5"/><path d="M375.69977,105.28583c-0.01527,-0.41393 0.30792,-0.76187 0.72186,-0.77713c0.41394,-0.01527 0.76187,0.30793 0.77713,0.72186c0.01527,0.41393 -0.30792,0.76187 -0.72186,0.77713c-0.41394,0.01527 -0.76187,-0.30793 -0.77713,-0.72186z" fill="#650c25" stroke="none" stroke-width="0.5"/><path d="M369.41374,106.68511c-0.01527,-0.41393 0.30792,-0.76187 0.72186,-0.77713c0.41394,-0.01527 0.76187,0.30793 0.77713,0.72186c0.01527,0.41393 -0.30792,0.76187 -0.72186,0.77713c-0.41394,0.01527 -0.76187,-0.30793 -0.77713,-0.72186z" fill="#650c25" stroke="none" stroke-width="0.5"/><path d="M256.61334,114.1806c-0.03561,-0.96584 0.71848,-1.77769 1.68432,-1.8133c0.96584,-0.03561 1.77769,0.71848 1.8133,1.68432c0.03561,0.96584 -0.71848,1.77769 -1.68432,1.8133c-0.96584,0.03561 -1.77769,-0.71848 -1.8133,-1.68432z" fill="#7c0023" stroke="none" stroke-width="0.5"/><path d="M266.49563,113.06566c0.51745,-0.01908 0.97304,0.27919 1.17918,0.72061c0.18373,-0.7371 0.83664,-1.2953 1.6338,-1.3247c0.96584,-0.03561 1.77769,0.71848 1.8133,1.68432c0.03561,0.96584 -0.71848,1.77769 -1.68432,1.8133c-0.79717,0.02939 -1.48942,-0.47918 -1.72693,-1.20075c-0.17307,0.45541 -0.60544,0.78643 -1.1229,0.80551c-0.04079,0.00151 -0.08121,0.00104 -0.12112,-0.00131c-0.305,0.42088 -0.79359,0.70217 -1.35328,0.72281c-0.96584,0.03561 -1.77769,-0.71848 -1.8133,-1.68432c-0.03561,-0.96584 0.71848,-1.77769 1.68432,-1.8133c0.42043,-0.01551 0.81167,0.11862 1.12242,0.35472c0.12155,-0.04508 0.25223,-0.07186 0.38885,-0.07689z" fill="#7c0023" stroke="none" stroke-width="0.5"/><path d="M315.2958,111.26598c0.68989,-0.02544 1.26977,0.51321 1.29521,1.20309c0.02263,0.61374 -0.40117,1.1404 -0.98072,1.26713c-0.30424,0.42889 -0.79757,0.71642 -1.36367,0.73731c-0.96584,0.03561 -1.77769,-0.71848 -1.8133,-1.68432c-0.03561,-0.96584 0.71848,-1.77769 1.68432,-1.8133c0.38777,-0.0143 0.7507,0.09869 1.04857,0.30156c0.04252,-0.00598 0.08575,-0.00983 0.1296,-0.01145z" fill="#7c0023" stroke="none" stroke-width="0.5"/><path d="M317.75073,112.25952c-0.03561,-0.96584 0.71848,-1.77769 1.68432,-1.8133c0.96584,-0.03561 1.77769,0.71848 1.8133,1.68432c0.03561,0.96584 -0.71848,1.77769 -1.68432,1.8133c-0.96584,0.03561 -1.77769,-0.71848 -1.8133,-1.68432z" fill="#7c0023" stroke="none" stroke-width="0.5"/><path d="M321.25451,112.29708c-0.03561,-0.96584 0.71848,-1.77769 1.68432,-1.8133c0.96584,-0.03561 1.77769,0.71848 1.8133,1.68432c0.03561,0.96584 -0.71848,1.77769 -1.68432,1.8133c-0.96584,0.03561 -1.77769,-0.71848 -1.8133,-1.68432z" fill="#7c0023" stroke="none" stroke-width="0.5"/><path d="M371.09734,109.37489c0.68989,-0.02544 1.26977,0.51321 1.29521,1.20309c0.02544,0.68988 -0.5132,1.26977 -1.20309,1.29521c-0.48006,0.01771 -0.90686,-0.23773 -1.13065,-0.62722c-0.30414,0.32178 -0.72982,0.52904 -1.20723,0.54665c-0.96584,0.03561 -1.77769,-0.71848 -1.8133,-1.68432c-0.03561,-0.96584 0.71848,-1.77769 1.68432,-1.8133c0.82404,-0.03039 1.53598,0.51407 1.74938,1.27443c0.18131,-0.11567 0.3949,-0.18605 0.62536,-0.19455z" fill="#7c0023" stroke="none" stroke-width="0.5"/><path d="M373.20077,109.88105c-0.03561,-0.96584 0.71848,-1.77769 1.68432,-1.8133c0.96584,-0.03561 1.77769,0.71848 1.8133,1.68432c0.03561,0.96584 -0.71848,1.77769 -1.68432,1.8133c-0.96584,0.03561 -1.77769,-0.71848 -1.8133,-1.68432z" fill="#7c0023" stroke="none" stroke-width="0.5"/><path d="M380.75095,111.10363c0.02544,0.68988 -0.5132,1.26977 -1.20309,1.29521c-0.63789,0.02352 -1.18174,-0.4352 -1.2802,-1.04983c-0.69287,-0.21219 -1.20795,-0.8443 -1.23616,-1.60924c-0.03561,-0.96584 0.71848,-1.77769 1.68432,-1.8133c0.96584,-0.03561 1.77769,0.71848 1.8133,1.68432c0.00891,0.24185 -0.03168,0.47405 -0.11272,0.68681c0.19774,0.21206 0.32303,0.49352 0.33455,0.80602z" fill="#7c0023" stroke="none" stroke-width="0.5"/><path d="M258.79012,118.93695c-0.02544,-0.68988 0.5132,-1.26977 1.20309,-1.29521c0.68989,-0.02544 1.26977,0.51321 1.29521,1.20309c0.02544,0.68988 -0.5132,1.26977 -1.20309,1.29521c-0.68989,0.02544 -1.26977,-0.51321 -1.29521,-1.20309z" fill="#7c0023" stroke="none" stroke-width="0.5"/><path d="M262.24474,117.64208c-0.02544,-0.68988 0.5132,-1.26977 1.20309,-1.29521c0.68989,-0.02544 1.26977,0.51321 1.29521,1.20309c0.02544,0.68988 -0.5132,1.26977 -1.20309,1.29521c-0.68989,0.02544 -1.26977,-0.51321 -1.29521,-1.20309z" fill="#7c0023" stroke="none" stroke-width="0.5"/><path d="M315.71452,115.837c-0.02544,-0.68988 0.5132,-1.26977 1.20309,-1.29521c0.68989,-0.02544 1.26977,0.51321 1.29521,1.20309c0.02544,0.68988 -0.5132,1.26977 -1.20309,1.29521c-0.68989,0.02544 -1.26977,-0.51321 -1.29521,-1.20309z" fill="#7c0023" stroke="none" stroke-width="0.5"/><path d="M318.08313,116.75033c-0.02544,-0.68988 0.5132,-1.26977 1.20309,-1.29521c0.68989,-0.02544 1.26977,0.51321 1.29521,1.20309c0.02544,0.68988 -0.5132,1.26977 -1.20309,1.29521c-0.68989,0.02544 -1.26977,-0.51321 -1.29521,-1.20309z" fill="#7c0023" stroke="none" stroke-width="0.5"/><path d="M378.20929,112.28144c0.68989,-0.02544 1.26977,0.51321 1.29521,1.20309c0.02544,0.68988 -0.5132,1.26977 -1.20309,1.29521c-0.31748,0.01171 -0.61166,-0.09604 -0.83923,-0.28301c-0.15937,0.48144 -0.60443,0.83659 -1.14098,0.85638c-0.68989,0.02544 -1.26977,-0.51321 -1.29521,-1.20309c-0.02544,-0.68988 0.5132,-1.26977 1.20309,-1.29521c0.31748,-0.01171 0.61166,0.09604 0.83923,0.28301c0.15937,-0.48144 0.60443,-0.83659 1.14098,-0.85638z" fill="#7c0023" stroke="none" stroke-width="0.5"/><path d="M257.38941,121.65708c-0.01527,-0.41393 0.30792,-0.76187 0.72186,-0.77713c0.41394,-0.01527 0.76187,0.30793 0.77713,0.72186c0.01527,0.41393 -0.30792,0.76187 -0.72186,0.77713c-0.41394,0.01527 -0.76187,-0.30793 -0.77713,-0.72186z" fill="#7c0023" stroke="none" stroke-width="0.5"/><path d="M260.88017,125.86463c-0.01527,-0.41393 0.30792,-0.76187 0.72186,-0.77713c0.41394,-0.01527 0.76187,0.30793 0.77713,0.72186c0.01527,0.41393 -0.30792,0.76187 -0.72186,0.77713c-0.41394,0.01527 -0.76187,-0.30792 -0.77713,-0.72186z" fill="#7c0023" stroke="none" stroke-width="0.5"/><path d="M263.02149,120.61548c-0.01527,-0.41393 0.30792,-0.76187 0.72186,-0.77713c0.41394,-0.01527 0.76187,0.30793 0.77713,0.72186c0.01527,0.41393 -0.30792,0.76187 -0.72186,0.77713c-0.41394,0.01527 -0.76187,-0.30793 -0.77713,-0.72186z" fill="#7c0023" stroke="none" stroke-width="0.5"/><path d="M317.58889,121.43837c-0.01527,-0.41393 0.30792,-0.76187 0.72186,-0.77713c0.41394,-0.01527 0.76187,0.30793 0.77713,0.72186c0.01527,0.41393 -0.30792,0.76187 -0.72186,0.77713c-0.41394,0.01527 -0.76187,-0.30793 -0.77713,-0.72186z" fill="#7c0023" stroke="none" stroke-width="0.5"/><path d="M319.66125,123.36331c-0.01527,-0.41393 0.30792,-0.76187 0.72186,-0.77713c0.41394,-0.01527 0.76187,0.30793 0.77713,0.72186c0.01527,0.41393 -0.30792,0.76187 -0.72186,0.77713c-0.41394,0.01527 -0.76187,-0.30793 -0.77713,-0.72186z" fill="#7c0023" stroke="none" stroke-width="0.5"/><path d="M370.39936,115.32132c-0.01527,-0.41393 0.30792,-0.76187 0.72186,-0.77713c0.41394,-0.01527 0.76187,0.30793 0.77713,0.72186c0.01527,0.41393 -0.30792,0.76187 -0.72186,0.77713c-0.41394,0.01527 -0.76187,-0.30793 -0.77713,-0.72186z" fill="#7c0023" stroke="none" stroke-width="0.5"/><path d="M380.81709,121.94188c-0.01527,-0.41393 0.30792,-0.76187 0.72186,-0.77713c0.41394,-0.01527 0.76187,0.30792 0.77713,0.72186c0.01527,0.41394 -0.30792,0.76187 -0.72186,0.77713c-0.41394,0.01527 -0.76187,-0.30792 -0.77713,-0.72186z" fill="#7c0023" stroke="none" stroke-width="0.5"/><path d="M261.16378,126.77145c0.89229,-0.03291 1.65316,0.60821 1.79193,1.46762c0.25131,-0.61847 0.84715,-1.06461 1.55756,-1.0908c0.96584,-0.03561 1.77769,0.71848 1.8133,1.68432c0.03561,0.96584 -0.71848,1.77769 -1.68432,1.8133c-0.89229,0.03291 -1.65316,-0.60821 -1.79194,-1.46763c-0.25131,0.61847 -0.84715,1.06462 -1.55756,1.09081c-0.81241,0.02996 -1.51585,-0.49881 -1.74004,-1.24236c-0.29313,0.49573 -0.82462,0.8366 -1.44289,0.8594c-0.96584,0.03561 -1.77769,-0.71848 -1.8133,-1.68432c-0.03561,-0.96584 0.71848,-1.77769 1.68432,-1.8133c0.81241,-0.02996 1.51585,0.4988 1.74004,1.24236c0.29313,-0.49573 0.82462,-0.8366 1.44289,-0.8594z" fill="#910000" stroke="none" stroke-width="0.5"/><path d="M318.18611,128.58791c-0.0105,-0.2845 0.07495,-0.5503 0.22737,-0.76623c-0.89333,-0.04849 -1.61831,-0.77141 -1.65193,-1.68293c-0.03561,-0.96584 0.71848,-1.77769 1.68432,-1.8133c0.57834,-0.02132 1.10145,0.24049 1.43576,0.66136c0.28997,-0.24903 0.66317,-0.40521 1.07483,-0.4204c0.96584,-0.03561 1.77769,0.71848 1.8133,1.68432c0.03561,0.96584 -0.71848,1.77769 -1.68432,1.8133c-0.18035,0.00665 -0.35535,-0.01423 -0.5209,-0.05889c0.07099,0.1492 0.11341,0.31501 0.11988,0.49064c0.02544,0.68989 -0.5132,1.26977 -1.20309,1.29521c-0.68989,0.02544 -1.26977,-0.5132 -1.29521,-1.20309z" fill="#910000" stroke="none" stroke-width="0.5"/><path d="M371.44024,125.45651c-0.00865,-0.23444 0.04784,-0.45617 0.15328,-0.64775c-0.00916,-0.06265 -0.01504,-0.12643 -0.01743,-0.19115c-0.03561,-0.96584 0.71848,-1.77769 1.68432,-1.8133c0.96584,-0.03561 1.77769,0.71848 1.8133,1.68432c0.0332,0.90012 -0.61951,1.66649 -1.49028,1.79545c-0.21619,0.22131 -0.51439,0.36324 -0.84797,0.37554c-0.68989,0.02544 -1.26977,-0.5132 -1.29521,-1.20309z" fill="#910000" stroke="none" stroke-width="0.5"/><path d="M375.14742,126.48727c-0.02544,-0.68989 0.5132,-1.26977 1.20309,-1.29521c0.09103,-0.00336 0.18015,0.00311 0.26633,0.01845c-0.12514,-0.22997 -0.2004,-0.49162 -0.2107,-0.77101c-0.03561,-0.96584 0.71848,-1.77769 1.68432,-1.8133c0.66815,-0.02464 1.26261,0.32864 1.57737,0.86852c0.23607,-0.64993 0.84747,-1.12472 1.58101,-1.15177c0.96584,-0.03561 1.77769,0.71848 1.8133,1.68432c0.01386,0.37581 -0.09185,0.72828 -0.28305,1.02082c0.30452,0.21751 0.50846,0.56881 0.52332,0.97168c0.02544,0.68989 -0.5132,1.26977 -1.20309,1.29521c-0.68989,0.02544 -1.26977,-0.5132 -1.29521,-1.20309c-0.00426,-0.11571 0.00733,-0.22831 0.03285,-0.33573c-0.43908,-0.12408 -0.81012,-0.41584 -1.03649,-0.80412c-0.23607,0.64993 -0.84748,1.12472 -1.58101,1.15177c-0.2254,0.00831 -0.44241,-0.02639 -0.64312,-0.09674c0.04054,0.11561 0.06465,0.2392 0.0694,0.36807c0.02544,0.68989 -0.5132,1.26977 -1.20309,1.29521c-0.68989,0.02544 -1.26977,-0.5132 -1.29521,-1.20309z" fill="#910000" stroke="none" stroke-width="0.5"/><path d="M317.13694,131.7954c-0.02544,-0.68989 0.5132,-1.26977 1.20309,-1.29521c0.68989,-0.02544 1.26977,0.5132 1.29521,1.20309c0.02544,0.68989 -0.5132,1.26977 -1.20309,1.29521c-0.68989,0.02544 -1.26977,-0.5132 -1.29521,-1.20309z" fill="#910000" stroke="none" stroke-width="0.5"/><path d="M256.58592,131.52673c-0.02544,-0.68989 0.5132,-1.26977 1.20309,-1.29521c0.68989,-0.02544 1.26977,0.5132 1.29521,1.20309c0.02544,0.68989 -0.5132,1.26977 -1.20309,1.29521c-0.68989,0.02544 -1.26977,-0.5132 -1.29521,-1.20309z" fill="#910000" stroke="none" stroke-width="0.5"/><path d="M266.30201,128.16637c-0.02544,-0.68989 0.5132,-1.26977 1.20309,-1.29521c0.68989,-0.02544 1.26977,0.5132 1.29521,1.20309c0.02544,0.68989 -0.5132,1.26977 -1.20309,1.29521c-0.68989,0.02544 -1.26977,-0.5132 -1.29521,-1.20309z" fill="#910000" stroke="none" stroke-width="0.5"/><path d="M265.62895,132.52748c-0.02544,-0.68989 0.5132,-1.26977 1.20309,-1.29521c0.68989,-0.02544 1.26977,0.5132 1.29521,1.20309c0.02544,0.68989 -0.5132,1.26977 -1.20309,1.29521c-0.68989,0.02544 -1.26977,-0.5132 -1.29521,-1.20309z" fill="#910000" stroke="none" stroke-width="0.5"/><path d="M262.91423,135.79641c-0.01527,-0.41394 0.30792,-0.76187 0.72186,-0.77713c0.41394,-0.01527 0.76187,0.30792 0.77713,0.72186c0.01527,0.41394 -0.30792,0.76187 -0.72186,0.77713c-0.41394,0.01527 -0.76187,-0.30792 -0.77713,-0.72186z" fill="#910000" stroke="none" stroke-width="0.5"/><path d="M266.33128,138.00533c-0.01527,-0.41394 0.30792,-0.76187 0.72186,-0.77713c0.41394,-0.01527 0.76187,0.30792 0.77713,0.72186c0.01527,0.41394 -0.30792,0.76187 -0.72186,0.77713c-0.41394,0.01527 -0.76187,-0.30792 -0.77713,-0.72186z" fill="#910000" stroke="none" stroke-width="0.5"/><path d="M317.60519,135.4473c-0.01527,-0.41394 0.30792,-0.76187 0.72186,-0.77713c0.41394,-0.01527 0.76187,0.30792 0.77713,0.72186c0.01527,0.41394 -0.30792,0.76187 -0.72186,0.77713c-0.41394,0.01527 -0.76187,-0.30792 -0.77713,-0.72186z" fill="#910000" stroke="none" stroke-width="0.5"/><path d="M319.56698,134.37428c-0.01527,-0.41394 0.30792,-0.76187 0.72186,-0.77713c0.41394,-0.01527 0.76187,0.30792 0.77713,0.72186c0.01527,0.41394 -0.30792,0.76187 -0.72186,0.77713c-0.41394,0.01527 -0.76187,-0.30792 -0.77713,-0.72186z" fill="#910000" stroke="none" stroke-width="0.5"/><path d="M320.04679,142.86236c-0.01527,-0.41394 0.30792,-0.76187 0.72186,-0.77713c0.41394,-0.01527 0.76187,0.30792 0.77713,0.72186c0.01527,0.41394 -0.30792,0.76187 -0.72186,0.77713c-0.41394,0.01527 -0.76187,-0.30792 -0.77713,-0.72186z" fill="#910000" stroke="none" stroke-width="0.5"/><path d="M374.98629,131.16303c-0.01527,-0.41394 0.30792,-0.76187 0.72186,-0.77713c0.41394,-0.01527 0.76187,0.30792 0.77713,0.72186c0.01527,0.41394 -0.30792,0.76187 -0.72186,0.77713c-0.41394,0.01527 -0.76187,-0.30792 -0.77713,-0.72186z" fill="#910000" stroke="none" stroke-width="0.5"/><path d="M378.58904,129.36238c-0.01527,-0.41394 0.30792,-0.76187 0.72186,-0.77713c0.41394,-0.01527 0.76187,0.30792 0.77713,0.72186c0.01527,0.41394 -0.30792,0.76187 -0.72186,0.77713c-0.41394,0.01527 -0.76187,-0.30792 -0.77713,-0.72186z" fill="#910000" stroke="none" stroke-width="0.5"/><path d="M373.52959,136.88727c-0.01527,-0.41394 0.30792,-0.76187 0.72186,-0.77713c0.41394,-0.01527 0.76187,0.30792 0.77713,0.72186c0.01527,0.41394 -0.30792,0.76187 -0.72186,0.77713c-0.41394,0.01527 -0.76187,-0.30792 -0.77713,-0.72186z" fill="#910000" stroke="none" stroke-width="0.5"/></g><path d="M270.76845,127.08818l-8.27567,-2.27082l8.41291,-3.74034z" fill="#000000" stroke="#000000" stroke-width="0"/><g stroke="#000000" stroke-width="0"><path d="M269.52932,133.06113c-0.47144,-12.95943 9.65208,-23.84729 22.61153,-24.31872c12.95944,-0.47144 23.84731,9.65209 24.31873,22.61153c0.47144,12.95943 -9.65207,23.8473 -22.61153,24.31873c-12.95944,0.47144 -23.84732,-9.65209 -24.31874,-22.61153z" fill="url(#color-6)"/><path d="M269.3405,127.94066c-0.47144,-12.95943 9.65208,-23.84729 22.61153,-24.31872c12.95944,-0.47144 23.84731,9.65209 24.31873,22.61153c0.47144,12.95943 -9.65207,23.8473 -22.61153,24.31873c-12.95944,0.47144 -23.84732,-9.65209 -24.31874,-22.61153z" fill="url(#color-7)"/></g><path d="M285.5467,126.66973c-0.17947,-4.80119 3.56717,-8.8388 8.36837,-9.01826c4.80119,-0.17947 8.83882,3.56718 9.0183,8.36839c0.17946,4.80118 -3.56718,8.83882 -8.36839,9.01829c-4.80119,0.17947 -8.8388,-3.56717 -9.01827,-8.36838z" fill="none" stroke="#000000" stroke-width="4"/><g stroke="#000000" stroke-width="0"><path d="M348.18104,153.66898c-12.95896,0.4844 -23.85696,-9.62825 -24.34134,-22.58719c-0.4844,-12.95895 9.62824,-23.85695 22.58719,-24.34134c12.95896,-0.4844 23.85695,9.62824 24.34134,22.58718c0.4844,12.95895 -9.62824,23.85696 -22.5872,24.34135z" fill="url(#color-8)"/><path d="M347.9922,148.5485c-12.95896,0.4844 -23.85696,-9.62825 -24.34134,-22.58719c-0.4844,-12.95895 9.62824,-23.85695 22.58719,-24.34134c12.95896,-0.4844 23.85695,9.62824 24.34134,22.58718c0.4844,12.95895 -9.62824,23.85696 -22.5872,24.34135z" fill="url(#color-9)"/></g><path d="M348.46798,123.00633c0.13855,3.70647 -2.75383,6.82347 -6.4603,6.96203c-3.70646,0.13856 -6.82347,-2.75385 -6.96203,-6.46031c-0.13855,-3.70646 2.75384,-6.82347 6.4603,-6.96202c3.70646,-0.13856 6.82347,2.75384 6.96202,6.4603z" fill="#0a0a0a" stroke="#000000" stroke-width="0"/><path d="M368.74566,117.46881l8.66556,3.11052l-8.08593,2.87423z" fill="#000000" stroke="#000000" stroke-width="0"/><path d="M291.95201,103.62194c24.08986,-1.5052 24.31873,22.61153 24.31873,22.61153c0,0 -15.08757,-10.2191 -25.08297,-9.8555c-9.99539,0.36361 -21.82091,12.28846 -21.84732,11.5627c0,0 -1.49891,-22.81224 22.61154,-24.31872z" fill="#000000" stroke="#000000" stroke-width="0"/><path d="M323.65085,125.9613c0,0 -1.77646,-23.43636 22.58719,-24.34134c25.51022,-1.41341 24.34134,22.58718 24.34134,22.58718c0,0 -10.79292,-3.29218 -22.68809,-2.93834c-11.57132,0.34421 -24.24043,4.69249 -24.24043,4.69249z" fill="#000000" stroke="#000000" stroke-width="0"/><path d="M348.81765,173.00417c0.14996,4.06617 -8.98079,1.93836 -26.34018,2.57856c-17.35939,0.64019 -26.92777,3.64662 -27.07772,-0.41955c-0.08866,-2.40416 1.70923,-7.59452 7.47317,-9.58477c3.98469,-1.37588 10.31034,-1.20564 17.40587,-1.46732c4.61684,-0.17026 12.03096,-5.08259 15.48776,-4.20182c9.54086,2.43094 12.94104,10.11017 13.05111,13.0949z" fill="#000000" stroke="none" stroke-width="0"/><path d="M302.129,177.07323l-1.54733,-3.87144l-0.32026,-2.59877l5.42618,-0.2001l2.56296,6.29108z" fill="#ffffff" stroke="none" stroke-width="0"/><path d="M337.03761,173.10784l-0.03058,-4.10123l5.0176,-0.472l0.99324,3.14611l-0.73604,3.67937l-6.56641,0.27667z" fill="#ffffff" stroke="none" stroke-width="0"/><path d="M304.06429,165.85112l-0.62361,-0.75564c0,0 2.63422,-0.4077 4.32889,-0.40096c1.69465,0.00675 4.58816,0.4137 9.31501,0.45526c1.86166,0.01637 4.69042,-0.25698 4.69042,-0.25698l2.25669,-0.68599l1.28943,2.01226c0,0 -8.45005,0.48232 -12.19589,0.41748c-3.27683,-0.05673 -9.06094,-0.78544 -9.06094,-0.78544z" fill="#ffffff" stroke="none" stroke-width="0"/><path d="M323.99869,166.34926l-0.07886,-2.1383l14.12734,-2.99019l1.82746,2.06203c0,0 -4.37889,1.76461 -6.8659,2.24497c-2.77365,0.53573 -9.01003,0.82149 -9.01003,0.82149z" fill="#ffffff" stroke="none" stroke-width="0"/><path d="M335.07852,184.36212l-0.86439,-8.7483l2.88831,-0.02384l0.41707,7.99613z" fill="url(#color-10)" stroke="none" stroke-width="0"/></g></g></g></svg>