<svg version="1.1" xmlns="http://www.w3.org/2000/svg" xmlns:xlink="http://www.w3.org/1999/xlink" width="176.02216" height="229.91786" viewBox="0,0,176.02216,229.91786"><defs><linearGradient x1="409.2298" y1="129.96773" x2="394.92308" y2="182.15556" gradientUnits="userSpaceOnUse" id="color-1"><stop offset="0" stop-color="#8c2a2a"/><stop offset="1" stop-color="#8c4330"/></linearGradient><linearGradient x1="284.15036" y1="89.78472" x2="269.93762" y2="141.62966" gradientUnits="userSpaceOnUse" id="color-2"><stop offset="0" stop-color="#8c2a2a"/><stop offset="1" stop-color="#8c4330"/></linearGradient></defs><g transform="translate(-251.19117,-89.27154)"><g stroke-miterlimit="10"><g stroke-linecap="butt"><g><path d="M286.35186,319.07226l15.14285,-131.8421l37.78325,-0.15789l13.57389,132z" fill="#8c5436" stroke="#000000" stroke-width="0"/><path d="M293.60206,255.948c2.57505,-22.41982 7.89265,-68.71784 7.89265,-68.71784l37.78325,-0.15789c0,0 4.7404,46.09824 7.13184,69.35392c0.00196,0.01908 -52.80791,-0.47674 -52.80774,-0.47819z" fill="#805132" stroke="#000000" stroke-width="0"/><path d="M294.97471,243.6919c2.38706,-19.38696 6.95369,-56.47578 6.95369,-56.47578l36.90072,-0.14384c0,0 4.16455,37.77794 6.32032,57.33351c0.01421,0.12891 -50.17473,-0.71383 -50.17473,-0.71389z" fill="#8c4330" stroke="#000000" stroke-width="0"/><path d="M296.06735,234.48385c0.08122,-0.70714 0.15947,-1.38845 0.23453,-2.04198c2.0099,-17.49929 5.19283,-45.21171 5.19283,-45.21171l37.78325,-0.15789c0,0 2.97072,28.88897 4.8137,46.81104c0.0156,0.15172 -48.02436,0.60097 -48.02431,0.60053z" fill="#8c2a2a" stroke="#000000" stroke-width="0"/><path d="M319.08333,319.1894v-98.93939h1.33333v98.93939z" fill="#3d2517" stroke="none" stroke-width="0"/><path d="M286.35186,319.07226l15.14285,-131.8421l37.78325,-0.15789l13.57389,132z" fill="none" stroke="#000000" stroke-width="0"/><path d="M313.55114,239.9053l2.41667,-0.58333h7.66667l4,0.58333l-11.75,0.16667z" fill="#3d2517" stroke="none" stroke-width="0"/><path d="M313.36364,271.67613l17.625,0.25l-6,0.875h-11.5l-3.625,-0.875z" fill="#3d2517" stroke="none" stroke-width="0"/><path d="M314.61364,255.17614l2.25222,-0.875h7.14497l3.72781,0.875l-10.95045,0.25z" fill="#3d2517" stroke="none" stroke-width="0"/><path d="M331.1553,291.0928l-3.625,0.875h-11.5l-6,-0.875l17.625,-0.25z" fill="#3d2517" stroke="none" stroke-width="0"/><path d="M310.0303,307.7178l3.625,-0.875h11.5l6,0.875l-17.625,0.25z" fill="#3d2517" stroke="none" stroke-width="0"/><path d="M295.91797,234.6625c0,-0.9665 0.6585,-1.75 1.625,-1.75c0.9665,0 1.75,0.7835 1.75,1.75c0,0.9665 -0.7835,1.75 -1.75,1.75c-0.9665,0 -1.625,-0.7835 -1.625,-1.75z" fill="#8c2a2a" stroke="none" stroke-width="0.5"/><path d="M300.91797,234.6625c0,-0.9665 0.7835,-1.75 1.75,-1.75c0.9665,0 1.75,0.7835 1.75,1.75c0,0.9665 -0.7835,1.75 -1.75,1.75c-0.9665,0 -1.75,-0.7835 -1.75,-1.75z" fill="#8c2a2a" stroke="none" stroke-width="0.5"/><path d="M305.16797,234.5375c0,-0.9665 0.7835,-1.75 1.75,-1.75c0.9665,0 1.75,0.7835 1.75,1.75c0,0.9665 -0.7835,1.75 -1.75,1.75c-0.9665,0 -1.75,-0.7835 -1.75,-1.75z" fill="#8c2a2a" stroke="none" stroke-width="0.5"/><path d="M312.16797,234.4125c0.69036,0 1.25,0.55964 1.25,1.25c0,0.69036 -0.55964,1.25 -1.25,1.25c-0.295,0 -0.56613,-0.10219 -0.77992,-0.2731c0.01959,0.0879 0.02992,0.17929 0.02992,0.2731c0,0.69036 -0.55964,1.25 -1.25,1.25c-0.69036,0 -1.25,-0.55964 -1.25,-1.25c0,-0.47221 0.26185,-0.88327 0.64826,-1.0959c-0.53588,-0.29913 -0.89826,-0.8718 -0.89826,-1.5291c0,-0.9665 0.7835,-1.75 1.75,-1.75c0.9665,0 1.75,0.7835 1.75,1.75c0,0.04203 -0.00148,0.08372 -0.0044,0.12501c0.00146,-0.00001 0.00293,-0.00001 0.0044,-0.00001z" fill="#8c2a2a" stroke="none" stroke-width="0.5"/><path d="M321.04297,234.9125c0,-0.69036 0.55964,-1.25 1.25,-1.25c0.03808,0 0.07577,0.0017 0.11299,0.00504c0.25027,-0.66049 0.88881,-1.13004 1.63701,-1.13004c0.9665,0 1.75,0.7835 1.75,1.75c0,0.9665 -0.7835,1.75 -1.75,1.75c-0.31828,0 -0.61671,-0.08497 -0.87385,-0.23345c-0.22557,0.2217 -0.53489,0.35845 -0.87615,0.35845c-0.69036,0 -1.25,-0.55964 -1.25,-1.25z" fill="#8c2a2a" stroke="none" stroke-width="0.5"/><path d="M325.79297,237.2875c0,-0.68152 0.54541,-1.23565 1.22356,-1.24973c-0.50846,-0.30617 -0.84856,-0.8635 -0.84856,-1.50027c0,-0.9665 0.7835,-1.75 1.75,-1.75c0.9665,0 1.75,0.7835 1.75,1.75c0,0.9665 -0.7835,1.75 -1.75,1.75c-0.0442,0 -0.08801,-0.00164 -0.13139,-0.00486c0.30724,0.22774 0.50639,0.59304 0.50639,1.00486c0,0.69036 -0.55964,1.25 -1.25,1.25c-0.69036,0 -1.25,-0.55964 -1.25,-1.25z" fill="#8c2a2a" stroke="none" stroke-width="0.5"/><path d="M341.91797,234.2875c0,0.69036 -0.55964,1.25 -1.25,1.25c-0.27744,0 -0.53377,-0.09039 -0.74115,-0.24332c-0.19654,0.0764 -0.4103,0.11832 -0.63385,0.11832c-0.08005,0 -0.15884,-0.00537 -0.23604,-0.01578c0.07132,0.15725 0.11104,0.33188 0.11104,0.51578c0,0.69036 -0.55964,1.25 -1.25,1.25c-0.69036,0 -1.25,-0.55964 -1.25,-1.25c0,-0.18391 0.03972,-0.35854 0.11104,-0.51578c-0.0772,0.01041 -0.15599,0.01578 -0.23604,0.01578c-0.9665,0 -1.75,-0.7835 -1.75,-1.75c0,-0.9665 0.7835,-1.75 1.75,-1.75c0.55774,0 1.05454,0.26092 1.375,0.66735c0.32046,-0.40643 0.81726,-0.66735 1.375,-0.66735c0.7574,0 1.40241,0.48115 1.64606,1.15447c0.56004,0.12382 0.97894,0.62325 0.97894,1.22053z" fill="#8c2a2a" stroke="none" stroke-width="0.5"/><path d="M298.41797,237.0375c0,-0.69036 0.55964,-1.25 1.25,-1.25c0.69036,0 1.25,0.55964 1.25,1.25c0,0.69036 -0.55964,1.25 -1.25,1.25c-0.69036,0 -1.25,-0.55964 -1.25,-1.25z" fill="#8c2a2a" stroke="none" stroke-width="0.5"/><path d="M300.66797,238.7875c0,-0.69036 0.55964,-1.25 1.25,-1.25c0.69036,0 1.25,0.55964 1.25,1.25c0,0.69036 -0.55964,1.25 -1.25,1.25c-0.69036,0 -1.25,-0.55964 -1.25,-1.25z" fill="#8c2a2a" stroke="none" stroke-width="0.5"/><path d="M314.79297,234.7875c0,-0.69036 0.55964,-1.25 1.25,-1.25c0.69036,0 1.25,0.55964 1.25,1.25c0,0.69036 -0.55964,1.25 -1.25,1.25c-0.69036,0 -1.25,-0.55964 -1.25,-1.25z" fill="#8c2a2a" stroke="none" stroke-width="0.5"/><path d="M331.54297,237.2875c0,-0.69036 0.55964,-1.25 1.25,-1.25c0.69036,0 1.25,0.55964 1.25,1.25c0,0.69036 -0.55964,1.25 -1.25,1.25c-0.69036,0 -1.25,-0.55964 -1.25,-1.25z" fill="#8c2a2a" stroke="none" stroke-width="0.5"/><path d="M297.79297,241.1625c0,-0.41421 0.33579,-0.75 0.75,-0.75c0.41421,0 0.75,0.33579 0.75,0.75c0,0.41421 -0.33579,0.75 -0.75,0.75c-0.41421,0 -0.75,-0.33579 -0.75,-0.75z" fill="#8c2a2a" stroke="none" stroke-width="0.5"/><path d="M305.16797,237.9125c0,-0.41421 0.33579,-0.75 0.75,-0.75c0.41421,0 0.75,0.33579 0.75,0.75c0,0.41421 -0.33579,0.75 -0.75,0.75c-0.41421,0 -0.75,-0.33579 -0.75,-0.75z" fill="#8c2a2a" stroke="none" stroke-width="0.5"/><path d="M338.54297,240.2875c0,-0.41421 0.33579,-0.75 0.75,-0.75c0.41421,0 0.75,0.33579 0.75,0.75c0,0.41421 -0.33579,0.75 -0.75,0.75c-0.41421,0 -0.75,-0.33579 -0.75,-0.75z" fill="#8c2a2a" stroke="none" stroke-width="0.5"/><path d="M333.91797,238.9125c0,-0.41421 0.33579,-0.75 0.75,-0.75c0.41421,0 0.75,0.33579 0.75,0.75c0,0.41421 -0.33579,0.75 -0.75,0.75c-0.41421,0 -0.75,-0.33579 -0.75,-0.75z" fill="#8c2a2a" stroke="none" stroke-width="0.5"/><path d="M299.66797,242.4125c0.9665,0 1.75,0.7835 1.75,1.75c0,0.9665 -0.7835,1.75 -1.75,1.75c-0.71819,0 -1.33534,-0.43263 -1.60504,-1.0515c-0.30689,0.26573 -0.70715,0.4265 -1.14496,0.4265c-0.9665,0 -1.75,-0.7835 -1.75,-1.75c0,-0.9665 0.7835,-1.75 1.75,-1.75c0.71819,0 1.33534,0.43263 1.60504,1.0515c0.30689,-0.26573 0.70715,-0.4265 1.14496,-0.4265z" fill="#8c4330" stroke="none" stroke-width="0.5"/><path d="M302.29297,244.1625c0,-0.9665 0.7835,-1.75 1.75,-1.75c0.9665,0 1.75,0.7835 1.75,1.75c0,0.9665 -0.7835,1.75 -1.75,1.75c-0.9665,0 -1.75,-0.7835 -1.75,-1.75z" fill="#8c4330" stroke="none" stroke-width="0.5"/><path d="M312.16797,246.1625c0,-0.09456 0.0105,-0.18666 0.03039,-0.27521c-0.39032,-0.21147 -0.65539,-0.62468 -0.65539,-1.09979c0,-0.62876 0.46423,-1.14909 1.06864,-1.23694c0.21092,-0.72958 0.88384,-1.26306 1.68136,-1.26306c0.9665,0 1.75,0.7835 1.75,1.75c0,0.8611 -0.62193,1.57694 -1.44111,1.72282c0.04286,0.12621 0.06611,0.26148 0.06611,0.40218c0,0.69036 -0.55964,1.25 -1.25,1.25c-0.69036,0 -1.25,-0.55964 -1.25,-1.25z" fill="#8c4330" stroke="none" stroke-width="0.5"/><path d="M321.66797,244.2875c0,-0.9665 0.7835,-1.75 1.75,-1.75c0.9665,0 1.75,0.7835 1.75,1.75c0,0.9665 -0.7835,1.75 -1.75,1.75c-0.9665,0 -1.75,-0.7835 -1.75,-1.75z" fill="#8c4330" stroke="none" stroke-width="0.5"/><path d="M325.54297,244.5375c0,-0.9665 0.7835,-1.75 1.75,-1.75c0.9665,0 1.75,0.7835 1.75,1.75c0,0.9665 -0.7835,1.75 -1.75,1.75c-0.9665,0 -1.75,-0.7835 -1.75,-1.75z" fill="#8c4330" stroke="none" stroke-width="0.5"/><path d="M330.16797,245.0375c0,-0.9665 0.7835,-1.75 1.75,-1.75c0.9665,0 1.75,0.7835 1.75,1.75c0,0.9665 -0.7835,1.75 -1.75,1.75c-0.9665,0 -1.75,-0.7835 -1.75,-1.75z" fill="#8c4330" stroke="none" stroke-width="0.5"/><path d="M336.41797,244.2875c0,-0.9665 0.7835,-1.75 1.75,-1.75c0.9665,0 1.75,0.7835 1.75,1.75c0,0.9665 -0.7835,1.75 -1.75,1.75c-0.9665,0 -1.75,-0.7835 -1.75,-1.75z" fill="#8c4330" stroke="none" stroke-width="0.5"/><path d="M340.54297,245.2875c0,-0.25172 0.07441,-0.48607 0.20242,-0.68224c-0.12923,-0.24406 -0.20242,-0.52237 -0.20242,-0.81776c0,-0.9665 0.7835,-1.75 1.75,-1.75c0.9665,0 1.75,0.7835 1.75,1.75c0,0.69916 -0.41001,1.30256 -1.0027,1.58287c-0.04266,0.65172 -0.58479,1.16713 -1.2473,1.16713c-0.69036,0 -1.25,-0.55964 -1.25,-1.25z" fill="#8c4330" stroke="none" stroke-width="0.5"/><path d="M306.41797,245.5375c0,-0.08981 0.00947,-0.17742 0.02747,-0.26186c-0.39791,-0.32078 -0.65247,-0.81223 -0.65247,-1.36314c0,-0.9665 0.7835,-1.75 1.75,-1.75c0.9665,0 1.75,0.7835 1.75,1.75c0,0.45425 -0.17307,0.86807 -0.45686,1.17913c0.05289,0.13849 0.08186,0.2888 0.08186,0.44587c0,0.69036 -0.55964,1.25 -1.25,1.25c-0.69036,0 -1.25,-0.55964 -1.25,-1.25z" fill="#8c4330" stroke="none" stroke-width="0.5"/><path d="M300.66797,242.7875c0,-0.41421 0.33579,-0.75 0.75,-0.75c0.41421,0 0.75,0.33579 0.75,0.75c0,0.41421 -0.33579,0.75 -0.75,0.75c-0.41421,0 -0.75,-0.33579 -0.75,-0.75z" fill="#8c2a2a" stroke="none" stroke-width="0.5"/><path d="M327.04297,242.9125c0,-0.41421 0.33579,-0.75 0.75,-0.75c0.41421,0 0.75,0.33579 0.75,0.75c0,0.41421 -0.33579,0.75 -0.75,0.75c-0.41421,0 -0.75,-0.33579 -0.75,-0.75z" fill="#8c2a2a" stroke="none" stroke-width="0.5"/><path d="M296.79297,248.0375c0,-0.69036 0.55964,-1.25 1.25,-1.25c0.69036,0 1.25,0.55964 1.25,1.25c0,0.69036 -0.55964,1.25 -1.25,1.25c-0.69036,0 -1.25,-0.55964 -1.25,-1.25z" fill="#8c4330" stroke="none" stroke-width="0.5"/><path d="M303.79297,248.5375c0,-0.69036 0.55964,-1.25 1.25,-1.25c0.69036,0 1.25,0.55964 1.25,1.25c0,0.69036 -0.55964,1.25 -1.25,1.25c-0.69036,0 -1.25,-0.55964 -1.25,-1.25z" fill="#8c4330" stroke="none" stroke-width="0.5"/><path d="M323.66797,247.5375c0,-0.69036 0.55964,-1.25 1.25,-1.25c0.69036,0 1.25,0.55964 1.25,1.25c0,0.69036 -0.55964,1.25 -1.25,1.25c-0.69036,0 -1.25,-0.55964 -1.25,-1.25z" fill="#8c4330" stroke="none" stroke-width="0.5"/><path d="M332.41797,248.4125c0,-0.69036 0.55964,-1.25 1.25,-1.25c0.69036,0 1.25,0.55964 1.25,1.25c0,0.69036 -0.55964,1.25 -1.25,1.25c-0.69036,0 -1.25,-0.55964 -1.25,-1.25z" fill="#8c4330" stroke="none" stroke-width="0.5"/><path d="M335.66797,248.2875c0,-0.69036 0.55964,-1.25 1.25,-1.25c0.69036,0 1.25,0.55964 1.25,1.25c0,0.69036 -0.55964,1.25 -1.25,1.25c-0.69036,0 -1.25,-0.55964 -1.25,-1.25z" fill="#8c4330" stroke="none" stroke-width="0.5"/><path d="M300.54297,248.0375c0,-0.41421 0.33579,-0.75 0.75,-0.75c0.41421,0 0.75,0.33579 0.75,0.75c0,0.41421 -0.33579,0.75 -0.75,0.75c-0.41421,0 -0.75,-0.33579 -0.75,-0.75z" fill="#8c4330" stroke="none" stroke-width="0.5"/><path d="M302.54297,253.0375c0,-0.41421 0.33579,-0.75 0.75,-0.75c0.41421,0 0.75,0.33579 0.75,0.75c0,0.41421 -0.33579,0.75 -0.75,0.75c-0.41421,0 -0.75,-0.33579 -0.75,-0.75z" fill="#8c4330" stroke="none" stroke-width="0.5"/><path d="M310.91797,253.9125c0,-0.41421 0.33579,-0.75 0.75,-0.75c0.41421,0 0.75,0.33579 0.75,0.75c0,0.41421 -0.33579,0.75 -0.75,0.75c-0.41421,0 -0.75,-0.33579 -0.75,-0.75z" fill="#8c4330" stroke="none" stroke-width="0.5"/><path d="M310.91797,248.5375c0,-0.41421 0.33579,-0.75 0.75,-0.75c0.41421,0 0.75,0.33579 0.75,0.75c0,0.41421 -0.33579,0.75 -0.75,0.75c-0.41421,0 -0.75,-0.33579 -0.75,-0.75z" fill="#8c4330" stroke="none" stroke-width="0.5"/><path d="M327.04297,252.2875c0,-0.41421 0.33579,-0.75 0.75,-0.75c0.41421,0 0.75,0.33579 0.75,0.75c0,0.41421 -0.33579,0.75 -0.75,0.75c-0.41421,0 -0.75,-0.33579 -0.75,-0.75z" fill="#8c4330" stroke="none" stroke-width="0.5"/><path d="M334.66797,255.1625c0,-0.41421 0.33579,-0.75 0.75,-0.75c0.41421,0 0.75,0.33579 0.75,0.75c0,0.41421 -0.33579,0.75 -0.75,0.75c-0.41421,0 -0.75,-0.33579 -0.75,-0.75z" fill="#8c4330" stroke="none" stroke-width="0.5"/><path d="M341.54297,252.0375c0,-0.41421 0.33579,-0.75 0.75,-0.75c0.41421,0 0.75,0.33579 0.75,0.75c0,0.41421 -0.33579,0.75 -0.75,0.75c-0.41421,0 -0.75,-0.33579 -0.75,-0.75z" fill="#8c4330" stroke="none" stroke-width="0.5"/><path d="M293.54297,256.7875c0,-0.9665 0.7835,-1.75 1.75,-1.75c0.9665,0 1.75,0.7835 1.75,1.75c0,0.9665 -0.7835,1.75 -1.75,1.75c-0.9665,0 -1.75,-0.7835 -1.75,-1.75z" fill="#805132" stroke="none" stroke-width="0.5"/><path d="M299.04297,256.7875c0,-0.9665 0.7835,-1.75 1.75,-1.75c0.9665,0 1.75,0.7835 1.75,1.75c0,0.9665 -0.7835,1.75 -1.75,1.75c-0.9665,0 -1.75,-0.7835 -1.75,-1.75z" fill="#805132" stroke="none" stroke-width="0.5"/><path d="M326.04297,256.2875c0,-0.9665 0.7835,-1.75 1.75,-1.75c0.9665,0 1.75,0.7835 1.75,1.75c0,0.9665 -0.7835,1.75 -1.75,1.75c-0.9665,0 -1.75,-0.7835 -1.75,-1.75z" fill="#805132" stroke="none" stroke-width="0.5"/><path d="M334.04297,255.1625c0.66132,0 1.23696,0.36682 1.53455,0.9081c0.11012,-0.02171 0.22396,-0.0331 0.34045,-0.0331c0.9665,0 1.75,0.7835 1.75,1.75c0,0.9665 -0.7835,1.75 -1.75,1.75c-0.66132,0 -1.23696,-0.36682 -1.53455,-0.9081c-0.11012,0.02171 -0.22396,0.0331 -0.34045,0.0331c-0.56405,0 -1.06577,-0.26685 -1.3858,-0.6812c-0.28139,0.19316 -0.62209,0.3062 -0.9892,0.3062c-0.9665,0 -1.75,-0.7835 -1.75,-1.75c0,-0.9665 0.7835,-1.75 1.75,-1.75c0.56405,0 1.06577,0.26685 1.3858,0.6812c0.28139,-0.19316 0.62209,-0.3062 0.9892,-0.3062z" fill="#805132" stroke="none" stroke-width="0.5"/><path d="M341.29297,255.7875c0,-0.9665 0.7835,-1.75 1.75,-1.75c0.9665,0 1.75,0.7835 1.75,1.75c0,0.9665 -0.7835,1.75 -1.75,1.75c-0.9665,0 -1.75,-0.7835 -1.75,-1.75z" fill="#805132" stroke="none" stroke-width="0.5"/><path d="M321.16797,257.0375c0,-0.9665 0.7835,-1.75 1.75,-1.75c0.9665,0 1.75,0.7835 1.75,1.75c0,0.9665 -0.7835,1.75 -1.75,1.75c-0.9665,0 -1.75,-0.7835 -1.75,-1.75z" fill="#805132" stroke="none" stroke-width="0.5"/><path d="M337.54297,256.2875c0,-0.9665 0.7835,-1.75 1.75,-1.75c0.9665,0 1.75,0.7835 1.75,1.75c0,0.9665 -0.7835,1.75 -1.75,1.75c-0.9665,0 -1.75,-0.7835 -1.75,-1.75z" fill="#805132" stroke="none" stroke-width="0.5"/><path d="M303.66797,255.7875c0,-0.9665 0.7835,-1.75 1.75,-1.75c0.9665,0 1.75,0.7835 1.75,1.75c0,0.9665 -0.7835,1.75 -1.75,1.75c-0.9665,0 -1.75,-0.7835 -1.75,-1.75z" fill="#805132" stroke="none" stroke-width="0.5"/><path d="M293.91797,260.0375c0,-0.69036 0.55964,-1.25 1.25,-1.25c0.69036,0 1.25,0.55964 1.25,1.25c0,0.69036 -0.55964,1.25 -1.25,1.25c-0.69036,0 -1.25,-0.55964 -1.25,-1.25z" fill="#805132" stroke="none" stroke-width="0.5"/><path d="M296.16797,261.5375c0,-0.69036 0.55964,-1.25 1.25,-1.25c0.69036,0 1.25,0.55964 1.25,1.25c0,0.69036 -0.55964,1.25 -1.25,1.25c-0.69036,0 -1.25,-0.55964 -1.25,-1.25z" fill="#805132" stroke="none" stroke-width="0.5"/><path d="M311.04297,256.1625c0.69036,0 1.25,0.55964 1.25,1.25c0,0.69036 -0.55964,1.25 -1.25,1.25c-0.41538,0 -0.78344,-0.20261 -1.01074,-0.51439c-0.31683,0.31776 -0.75508,0.51439 -1.23926,0.51439c-0.08114,0 -0.161,-0.00552 -0.23921,-0.01621c0.4357,0.19531 0.73921,0.63282 0.73921,1.14121c0,0.69036 -0.55964,1.25 -1.25,1.25c-0.32183,0 -0.61526,-0.12163 -0.83682,-0.32142c0.13376,0.19902 0.21182,0.4386 0.21182,0.69642c0,0.69036 -0.55964,1.25 -1.25,1.25c-0.69036,0 -1.25,-0.55964 -1.25,-1.25c0,-0.69036 0.55964,-1.25 1.25,-1.25c0.32183,0 0.61526,0.12163 0.83682,0.32142c-0.13376,-0.19902 -0.21182,-0.4386 -0.21182,-0.69642c0,-0.69036 0.55964,-1.25 1.25,-1.25c0.03762,0 0.07486,0.00166 0.11163,0.00492c-0.65079,-0.25508 -1.11163,-0.88868 -1.11163,-1.62992c0,-0.9665 0.7835,-1.75 1.75,-1.75c0.75766,0 1.40286,0.48149 1.64631,1.15518c0.17896,-0.09889 0.38475,-0.15518 0.60369,-0.15518z" fill="#805132" stroke="none" stroke-width="0.5"/><path d="M313.79297,259.1625c0,-0.69036 0.55964,-1.25 1.25,-1.25c0.69036,0 1.25,0.55964 1.25,1.25c0,0.69036 -0.55964,1.25 -1.25,1.25c-0.69036,0 -1.25,-0.55964 -1.25,-1.25z" fill="#805132" stroke="none" stroke-width="0.5"/><path d="M322.66797,262.1625c0,-0.69036 0.55964,-1.25 1.25,-1.25c0.69036,0 1.25,0.55964 1.25,1.25c0,0.69036 -0.55964,1.25 -1.25,1.25c-0.69036,0 -1.25,-0.55964 -1.25,-1.25z" fill="#805132" stroke="none" stroke-width="0.5"/><path d="M332.29297,266.0375c0,-0.69036 0.55964,-1.25 1.25,-1.25c0.69036,0 1.25,0.55964 1.25,1.25c0,0.69036 -0.55964,1.25 -1.25,1.25c-0.69036,0 -1.25,-0.55964 -1.25,-1.25z" fill="#805132" stroke="none" stroke-width="0.5"/><path d="M340.79297,260.5375c0.69036,0 1.25,0.55964 1.25,1.25c0,0.69036 -0.55964,1.25 -1.25,1.25c-0.02096,0 -0.0418,-0.00052 -0.0625,-0.00154c-0.0207,0.00102 -0.04154,0.00154 -0.0625,0.00154c-0.69036,0 -1.25,-0.55964 -1.25,-1.25c0,-0.69036 0.55964,-1.25 1.25,-1.25c0.02096,0 0.0418,0.00052 0.0625,0.00154c0.0207,-0.00102 0.04154,-0.00154 0.0625,-0.00154z" fill="#805132" stroke="none" stroke-width="0.5"/><path d="M293.79297,266.7875c0,-0.41421 0.33579,-0.75 0.75,-0.75c0.41421,0 0.75,0.33579 0.75,0.75c0,0.41421 -0.33579,0.75 -0.75,0.75c-0.41421,0 -0.75,-0.33579 -0.75,-0.75z" fill="#805132" stroke="none" stroke-width="0.5"/><path d="M301.91797,263.7875c0,-0.41421 0.33579,-0.75 0.75,-0.75c0.41421,0 0.75,0.33579 0.75,0.75c0,0.41421 -0.33579,0.75 -0.75,0.75c-0.41421,0 -0.75,-0.33579 -0.75,-0.75z" fill="#805132" stroke="none" stroke-width="0.5"/><path d="M302.41797,272.5375c0,-0.41421 0.33579,-0.75 0.75,-0.75c0.41421,0 0.75,0.33579 0.75,0.75c0,0.41421 -0.33579,0.75 -0.75,0.75c-0.41421,0 -0.75,-0.33579 -0.75,-0.75z" fill="#805132" stroke="none" stroke-width="0.5"/><path d="M311.16797,267.0375c0,-0.41421 0.33579,-0.75 0.75,-0.75c0.41421,0 0.75,0.33579 0.75,0.75c0,0.41421 -0.33579,0.75 -0.75,0.75c-0.41421,0 -0.75,-0.33579 -0.75,-0.75z" fill="#805132" stroke="none" stroke-width="0.5"/><path d="M324.16797,264.7875c0,-0.41421 0.33579,-0.75 0.75,-0.75c0.41421,0 0.75,0.33579 0.75,0.75c0,0.41421 -0.33579,0.75 -0.75,0.75c-0.41421,0 -0.75,-0.33579 -0.75,-0.75z" fill="#805132" stroke="none" stroke-width="0.5"/><path d="M335.79297,271.6625c0,-0.41421 0.33579,-0.75 0.75,-0.75c0.41421,0 0.75,0.33579 0.75,0.75c0,0.41421 -0.33579,0.75 -0.75,0.75c-0.41421,0 -0.75,-0.33579 -0.75,-0.75z" fill="#805132" stroke="none" stroke-width="0.5"/><path d="M342.54297,272.0375c0,-0.41421 0.33579,-0.75 0.75,-0.75c0.41421,0 0.75,0.33579 0.75,0.75c0,0.41421 -0.33579,0.75 -0.75,0.75c-0.41421,0 -0.75,-0.33579 -0.75,-0.75z" fill="#805132" stroke="none" stroke-width="0.5"/></g><path d="M310.36364,227.05114l3.625,-0.875h11.5l6,0.875l-17.625,0.25z" fill="#3d2517" stroke="none" stroke-width="0"/></g><path d="" fill="none" stroke="#000000" stroke-width="0" stroke-linecap="round"/><g><g stroke="none" stroke-width="0" stroke-linecap="butt"><path d="M369.56156,123.67154c-2.7678,1.46578 -6.18064,0.18422 -7.62278,-2.86244c-1.44214,-3.04665 -0.36747,-6.7047 2.40034,-8.17046c2.7678,-1.46578 6.18063,-0.18422 7.62277,2.86242c1.44214,3.04665 0.36747,6.7047 -2.40033,8.17047z" fill="#eaebff"/><path d="M359.01003,131.70753c-1.0714,0.56739 -2.3925,0.07131 -2.95075,-1.10804c-0.55824,-1.17934 -0.14226,-2.59535 0.92916,-3.16275c1.0714,-0.56739 2.3925,-0.07131 2.95075,1.10804c0.55824,1.17934 0.14224,2.59537 -0.92916,3.16277z" fill="#d6d8ff"/><path d="M364.65544,133.16902c-2.63388,1.39485 -5.88157,0.17532 -7.25392,-2.72392c-1.37234,-2.89923 -0.34969,-6.38027 2.2842,-7.77512c2.63388,-1.39485 5.88158,-0.17531 7.25392,2.72392c1.37234,2.89923 0.34969,6.38027 -2.2842,7.77511z" fill="#eaebff"/><path d="M346.64181,154.05911c-2.54459,1.34756 -5.68219,0.16936 -7.00803,-2.63158c-1.32584,-2.80096 -0.33783,-6.16399 2.20676,-7.51156c2.54459,-1.34756 5.6822,-0.16935 7.00803,2.63158c1.32584,2.80096 0.33783,6.16399 -2.20676,7.51156z" fill="#eaebff"/><path d="M368.07337,127.57546c-2.27674,1.20572 -5.08408,0.15153 -6.27034,-2.35457c-1.18627,-2.50612 -0.30226,-5.51515 1.97447,-6.72087c2.27674,-1.20572 5.08408,-0.15153 6.27034,2.35457c1.18627,2.50612 0.30226,5.51515 -1.97447,6.72087z" fill="#ccceff"/><path d="M357.47245,142.98204c-3.21423,1.70219 -7.17752,0.21392 -8.85226,-3.32411c-1.67474,-3.53804 -0.42673,-7.7861 2.78749,-9.48828c3.21423,-1.70219 7.17752,-0.21392 8.85225,3.32411c1.67474,3.53804 0.42673,7.7861 -2.78748,9.48828z" fill="#eaebff"/><path d="M350.62558,148.1659c-2.23209,1.18207 -4.98438,0.14856 -6.1474,-2.30841c-1.16301,-2.45697 -0.29635,-5.40701 1.93576,-6.58908c2.23209,-1.18207 4.98438,-0.14856 6.1474,2.3084c1.16301,2.45697 0.29635,5.40702 -1.93576,6.58909z" fill="#eaebff"/><path d="M352.78422,145.46483c-1.69639,0.89838 -3.78814,0.11291 -4.67202,-1.75439c-0.88388,-1.8673 -0.22521,-4.10932 1.47118,-5.0077c1.69639,-0.89838 3.78814,-0.1129 4.67203,1.75439c0.88388,1.8673 0.22521,4.10932 -1.47118,5.0077z" fill="#d6d8ff"/><path d="M345.5672,153.07029c-1.65176,0.87474 -3.68845,0.10993 -4.54908,-1.70821c-0.86064,-1.81817 -0.21929,-4.00119 1.43245,-4.87592c1.65176,-0.87474 3.68845,-0.10993 4.54908,1.70821c0.86064,1.81817 0.21929,4.00119 -1.43245,4.87592z" fill="#ccceff"/><path d="M341.97656,162.57039c-3.09296,1.63797 -6.90674,0.20586 -8.5183,-3.19871c-1.61155,-3.40457 -0.41064,-7.49236 2.68233,-9.13034c3.09296,-1.63797 6.90674,-0.20586 8.5183,3.19871c1.61155,3.40457 0.41064,7.49236 -2.68233,9.13034z" fill="#eaebff"/></g><g stroke="none" stroke-width="0" stroke-linecap="butt"><path d="M327.44857,148.7453c0.68306,-3.18008 3.77574,-5.06201 6.90772,-4.20343c3.13196,0.85859 5.11719,4.13258 4.43411,7.31266c-0.68306,3.18008 -3.77574,5.06201 -6.90772,4.20343c-3.13196,-0.85859 -5.11719,-4.13258 -4.43411,-7.31266z" fill="#eaebff"/><path d="M328.26898,135.00586c0.26441,-1.231 1.46158,-1.95949 2.67396,-1.62713c1.21236,0.33236 1.98084,1.59971 1.71644,2.83071c-0.26441,1.231 -1.46158,1.95949 -2.67396,1.62713c-1.21236,-0.33236 -1.98084,-1.59971 -1.71644,-2.83071z" fill="#d6d8ff"/><path d="M323.63286,138.55361c0.65001,-3.02621 3.59306,-4.81709 6.57347,-4.00004c2.98041,0.81705 4.86958,3.93262 4.21957,6.95883c-0.65001,3.02621 -3.59306,4.81709 -6.57347,4.00004c-2.98041,-0.81705 -4.86958,-3.93262 -4.21957,-6.95883z" fill="#eaebff"/><path d="M319.809,110.36341c0.62798,-2.92362 3.47125,-4.65379 6.35063,-3.86445c2.87938,0.78935 4.70451,3.79932 4.07653,6.72295c-0.62798,2.92362 -3.47125,4.65379 -6.35063,3.86445c-2.87938,-0.78935 -4.70451,-3.79932 -4.07653,-6.72295z" fill="#eaebff"/><path d="M325.5458,144.97845c0.56188,-2.61588 3.10586,-4.16393 5.68216,-3.45765c2.57631,0.70626 4.20931,3.39939 3.64742,6.01526c-0.56188,2.61588 -3.10586,4.16393 -5.68216,3.45765c-2.57631,-0.70626 -4.20931,-3.39939 -3.64742,-6.01526z" fill="#ccceff"/><path d="M321.02761,126.33358c0.79324,-3.69301 4.38475,-5.87847 8.02187,-4.8814c3.63711,0.99708 5.94255,4.79913 5.14931,8.49213c-0.79324,3.69301 -4.38475,5.87847 -8.02187,4.8814c-3.63711,-0.99708 -5.94255,-4.79913 -5.14931,-8.49213z" fill="#eaebff"/><path d="M321.58233,117.43834c0.55086,-2.56459 3.04496,-4.08228 5.57074,-3.38986c2.52578,0.69241 4.12677,3.33273 3.57591,5.89732c-0.55086,2.56459 -3.04496,4.08228 -5.57074,3.38986c-2.52578,-0.69241 -4.12677,-3.33273 -3.57591,-5.89732z" fill="#eaebff"/><path d="M322.18462,120.94702c0.41865,-1.94908 2.31417,-3.10252 4.23376,-2.57628c1.91958,0.52624 3.13635,2.53288 2.7177,4.48195c-0.41865,1.94908 -2.31417,3.10252 -4.23376,2.57628c-1.91958,-0.52624 -3.13635,-2.53288 -2.7177,-4.48195z" fill="#d6d8ff"/><path d="M321.20923,110.1572c0.40764,-1.8978 2.25328,-3.02087 4.12235,-2.50849c1.86908,0.51239 3.0538,2.46623 2.64617,4.36402c-0.40764,1.8978 -2.25328,3.02087 -4.12235,2.50849c-1.86908,-0.51239 -3.0538,-2.46623 -2.64617,-4.36402z" fill="#ccceff"/><path d="M316.5594,101.01529c0.76331,-3.55368 4.21934,-5.65671 7.71925,-4.69725c3.49991,0.95946 5.71836,4.61809 4.95505,8.17177c-0.76331,3.55368 -4.21934,5.65671 -7.71925,4.69725c-3.49991,-0.95946 -5.71836,-4.61809 -4.95505,-8.17177z" fill="#eaebff"/></g><g stroke="#000000" stroke-width="0" stroke-linecap="butt"><path d="M427.13696,157.86046c-1.07254,14.94227 -13.16198,26.25003 -27.00253,25.25657c-13.84056,-0.99345 -24.19106,-13.91192 -23.11851,-28.85421c1.07254,-14.94227 13.16198,-26.25003 27.00253,-25.25657c13.84056,0.99345 24.19106,13.91192 23.11851,28.85421z" fill="url(#color-1)"/><path d="M418.21243,156.96921c-2.71659,22.31447 -13.63377,18.94752 -23.775,18.21959c-10.14123,-0.72792 -17.72526,-10.19352 -16.93939,-21.14202c0.78587,-10.94849 9.64404,-19.2339 19.78527,-18.50597c10.14123,0.72792 23.52759,0.08404 20.9291,21.4284z" fill="#b9845b"/></g><g stroke="#000000" stroke-width="0" stroke-linecap="butt"><path d="M293.196,93.91549c11.14784,8.26278 12.95347,24.71756 4.03295,36.75277c-8.92049,12.03524 -25.18911,15.09342 -36.33695,6.83064c-11.14784,-8.26278 -12.95347,-24.71756 -4.03295,-36.75277c8.92049,-12.03524 25.18911,-15.09342 36.33695,-6.83064z" fill="url(#color-2)"/><path d="M294.04887,103.26082c8.16824,6.05429 9.49124,18.11101 2.95503,26.92945c-6.53622,8.81844 -18.45654,11.05923 -26.62475,5.00494c-8.16824,-6.05429 -18.64438,-10.61187 -6.16855,-29.31131c11.93344,-17.88648 21.67006,-8.67738 29.8383,-2.62309z" fill="#b9845b"/></g><path d="M271.8791,137.98213c5.96837,-21.77132 23.91615,-37.25429 45.51744,-42.04832c2.59058,-0.57494 9.24694,7.1802 9.24694,7.1802l-2.61756,18.52216l3.49563,12.65586l-1.67501,10.32581l8.22163,10.63634l17.06497,-8.17425l1.04446,-9.61158l10.01685,-14.63107c0,0 4.84199,-7.45221 7.79216,-9.28733c3.31476,-2.06192 7.81837,-1.27996 9.36271,0.25002c15.25236,15.11057 22.2408,36.96098 16.43242,58.14873c-8.8045,32.11689 -43.67848,50.5491 -77.89324,41.16949c-34.21475,-9.3796 -54.81385,-43.01915 -46.00935,-75.13604z" fill="#8c5436" stroke="#000000" stroke-width="0" stroke-linecap="butt"/><path d="M271.8791,137.98213c5.96837,-21.77132 23.91615,-37.25429 45.51744,-42.04832c2.59058,-0.57494 9.24694,7.1802 9.24694,7.1802l-2.61756,18.52216l3.49563,12.65586l-1.67501,10.32581l8.22163,10.63634l17.06497,-8.17425l1.04446,-9.61158l10.01685,-14.63107c0,0 4.84199,-7.45221 7.79216,-9.28733c3.31476,-2.06192 7.81837,-1.27996 9.36271,0.25002c15.25236,15.11057 22.2408,36.96098 16.43242,58.14873c-1.22868,4.48197 -2.96506,8.69743 -5.13649,12.60799c-0.01199,0.0216 -120.69906,-34.88714 -120.69897,-34.88869c0.23201,-3.8871 0.86696,-7.79763 1.93288,-11.68585z" fill="#805132" stroke="#000000" stroke-width="0" stroke-linecap="butt"/><path d="M271.8791,137.98213c5.96837,-21.77132 23.91615,-37.25429 45.51744,-42.04832c2.59058,-0.57494 9.24694,7.1802 9.24694,7.1802l-2.61756,18.52216l3.49563,12.65586l-1.67501,10.32581l8.22163,10.63634l17.06497,-8.17425l1.04446,-9.61158l10.01685,-14.63107c0,0 4.84199,-7.45221 7.79216,-9.28733c3.31476,-2.06192 7.81837,-1.27996 9.36271,0.25002c15.25236,15.11057 22.2408,36.96098 16.43242,58.14873c-0.13168,0.48033 -124.04603,-33.44333 -123.90259,-33.96655z" fill="#8c4330" stroke="#000000" stroke-width="0" stroke-linecap="butt"/><path d="M351.79429,140.99539c0.14506,-1.33497 0.38328,-3.52705 0.38328,-3.52705l10.01685,-14.63108c0,0 4.84199,-7.45221 7.79216,-9.28733c3.31476,-2.06192 7.81837,-1.27996 9.36271,0.25002c11.08066,10.97766 17.79975,25.51252 18.4192,40.76621c0.00002,0.00041 -45.97522,-13.56129 -45.9742,-13.57078z" fill="#8c2a2a" stroke="#000000" stroke-width="0" stroke-linecap="butt"/><path d="M279.80994,120.85297c8.67037,-12.66847 22.20186,-21.50477 37.58657,-24.91915c2.59059,-0.57494 9.24694,7.1802 9.24694,7.1802l-2.61756,18.52216l3.49563,12.65586c0,0 -47.72339,-13.4218 -47.71157,-13.43906z" fill="#8c2a2a" stroke="#000000" stroke-width="0" stroke-linecap="butt"/><path d="M299.03715,148.24822c0.2133,-0.77807 11.30905,2.29626 11.10405,3.04405c-0.84059,3.0663 -4.00775,4.87059 -7.07405,4.03c-3.0663,-0.84059 -4.87059,-4.00775 -4.03,-7.07405z" fill="#000000" stroke="#000000" stroke-width="0" stroke-linecap="butt"/><path d="M361.42082,173.69605c-3.22906,-0.88522 -5.12912,-4.22049 -4.24392,-7.44956c0.43113,-1.57265 11.80175,2.81066 11.69348,3.20563c-0.88522,3.22906 -4.22049,5.12913 -7.44956,4.24393z" fill="#000000" stroke="#000000" stroke-width="0" stroke-linecap="butt"/><path d="M324.93586,188.91647l3.45632,-12.60789" fill="none" stroke="#d66845" stroke-width="0" stroke-linecap="round"/><g><path d="M351.4766,196.12385c-1.9556,7.1336 -4.69205,9.99299 -25.42009,4.61137c-1.08017,-0.28045 -3.87531,-1.77029 -3.87531,-1.77029c0,0 -2.6507,-0.01451 -3.79461,-0.35311c-18.90658,-5.59642 -21.89664,-9.95295 -19.95651,-17.03011c2.05751,-7.50535 15.60032,-10.33426 30.24873,-6.31857c14.6484,4.0157 24.85533,13.35535 22.79782,20.86071z" fill="#d69869" stroke="#000000" stroke-width="0" stroke-linecap="butt"/><path d="M324.89203,190.43102l3.47383,-12.67178" fill="none" stroke="#d66845" stroke-width="1" stroke-linecap="round"/><path d="M335.20139,178.52992c-0.52378,1.91061 -5.05355,2.33409 -7.71359,1.60487c-2.81379,-0.77137 -6.34062,-3.40347 -5.81684,-5.31409c0.52378,-1.91061 3.97727,-2.62914 7.71359,-1.60487c3.73632,1.02427 6.34062,3.40347 5.81684,5.31409z" fill="#000000" stroke="#000000" stroke-width="0" stroke-linecap="butt"/></g><path d="M286.84797,121.41258c0.93211,0.25552 1.48059,1.2183 1.22506,2.1504c-0.25552,0.93211 -1.2183,1.48059 -2.1504,1.22506c-0.39451,-0.10815 -0.7203,-0.343 -0.9455,-0.64859c-0.34955,0.14803 -0.74956,0.18391 -1.14407,0.07576c-0.4769,-0.13074 -0.85338,-0.44661 -1.07313,-0.84879c-0.34694,0.14416 -0.74271,0.17818 -1.1331,0.07115c-0.93211,-0.25552 -1.48059,-1.2183 -1.22506,-2.1504c0.25552,-0.93211 1.2183,-1.48059 2.1504,-1.22506c0.4769,0.13074 0.85338,0.44661 1.07313,0.84879c0.34694,-0.14416 0.74271,-0.17818 1.1331,-0.07115c0.39451,0.10815 0.7203,0.343 0.9455,0.64859c0.34955,-0.14803 0.74956,-0.18391 1.14407,-0.07576z" fill="#8c2a2a" stroke="none" stroke-width="0.5" stroke-linecap="butt"/><path d="M290.00186,124.09175c0.25552,-0.93211 1.2183,-1.48059 2.1504,-1.22506c0.93211,0.25552 1.48059,1.2183 1.22506,2.1504c-0.25552,0.93211 -1.2183,1.48059 -2.1504,1.22506c-0.93211,-0.25552 -1.48059,-1.2183 -1.22506,-2.1504z" fill="#8c2a2a" stroke="none" stroke-width="0.5" stroke-linecap="butt"/><path d="M294.29768,125.44221c0.18252,-0.66579 0.87021,-1.05756 1.536,-0.87505c0.4008,0.10987 0.70229,0.40281 0.83898,0.76383c0.40934,-0.60058 1.16887,-0.90467 1.90906,-0.70176c0.93211,0.25552 1.48059,1.2183 1.22506,2.1504c-0.25552,0.93211 -1.2183,1.48059 -2.1504,1.22506c-0.66554,-0.18245 -1.13549,-0.72546 -1.25685,-1.36042c-0.30724,0.31538 -0.77213,0.45857 -1.2268,0.33392c-0.66579,-0.18252 -1.05756,-0.87021 -0.87505,-1.536z" fill="#8c2a2a" stroke="none" stroke-width="0.5" stroke-linecap="butt"/><path d="M300.12574,128.76807c0.05903,-0.21533 0.17089,-0.40199 0.31779,-0.54985c-0.21181,-0.38483 -0.27986,-0.84929 -0.15454,-1.30639c0.25552,-0.93211 1.2183,-1.48059 2.1504,-1.22506c0.93211,0.25552 1.48059,1.2183 1.22506,2.1504c-0.15545,0.56705 -0.57264,0.99212 -1.08545,1.18057c0.00873,0.13492 -0.00446,0.27356 -0.04221,0.41128c-0.18252,0.66579 -0.87021,1.05756 -1.536,0.87505c-0.66579,-0.18252 -1.05756,-0.87021 -0.87505,-1.536z" fill="#8c2a2a" stroke="none" stroke-width="0.5" stroke-linecap="butt"/><path d="M306.32434,128.22074c0.25552,-0.93211 1.2183,-1.48059 2.1504,-1.22506c0.93211,0.25552 1.48059,1.2183 1.22506,2.1504c-0.25552,0.93211 -1.2183,1.48059 -2.1504,1.22506c-0.93211,-0.25552 -1.48059,-1.2183 -1.22506,-2.1504z" fill="#8c2a2a" stroke="none" stroke-width="0.5" stroke-linecap="butt"/><path d="M311.74532,129.87966c0.25552,-0.93211 1.2183,-1.48059 2.1504,-1.22506c0.93211,0.25552 1.48059,1.2183 1.22506,2.1504c-0.25552,0.93211 -1.2183,1.48059 -2.1504,1.22506c-0.93211,-0.25552 -1.48059,-1.2183 -1.22506,-2.1504z" fill="#8c2a2a" stroke="none" stroke-width="0.5" stroke-linecap="butt"/><path d="M321.6396,131.29596c0.93211,0.25552 1.48059,1.2183 1.22506,2.1504c-0.25552,0.93211 -1.2183,1.48059 -2.1504,1.22506c-0.52385,-0.14361 -0.92654,-0.51061 -1.13342,-0.97001c-0.32084,0.10999 -0.67698,0.12807 -1.02874,0.03163c-0.93211,-0.25552 -1.48059,-1.2183 -1.22506,-2.1504c0.25552,-0.93211 1.2183,-1.48059 2.1504,-1.22506c0.52385,0.14361 0.92654,0.51061 1.13342,0.97001c0.32084,-0.10999 0.67698,-0.12807 1.02874,-0.03163z" fill="#8c2a2a" stroke="none" stroke-width="0.5" stroke-linecap="butt"/><path d="M355.94529,143.89757c0.05571,-0.20319 0.15845,-0.38085 0.29326,-0.52447c0.01276,-0.01359 0.02579,-0.02687 0.03912,-0.03984c-0.56261,-0.31053 -0.91059,-0.90972 -0.90324,-1.55066c-0.41495,0.57587 -1.15825,0.86328 -1.88301,0.66459c-0.93211,-0.25552 -1.48059,-1.2183 -1.22506,-2.1504c0.25552,-0.93211 1.2183,-1.48059 2.1504,-1.22506c0.78397,0.21491 1.29655,0.93013 1.28766,1.70661c0.41495,-0.57587 1.15825,-0.86328 1.88301,-0.66459c0.93211,0.25552 1.48059,1.2183 1.22506,2.1504c-0.1263,0.46074 -0.42542,0.82775 -0.80822,1.05026c0.32799,0.30691 0.47906,0.78081 0.35205,1.24411c-0.18252,0.66579 -0.87021,1.05756 -1.536,0.87505c-0.66579,-0.18252 -1.05756,-0.87021 -0.87505,-1.536z" fill="#8c2a2a" stroke="none" stroke-width="0.5" stroke-linecap="butt"/><path d="M366.00155,144.40779c0.25552,-0.93211 1.2183,-1.48059 2.1504,-1.22506c0.93211,0.25552 1.48059,1.2183 1.22506,2.1504c-0.25552,0.93211 -1.2183,1.48059 -2.1504,1.22506c-0.93211,-0.25552 -1.48059,-1.2183 -1.22506,-2.1504z" fill="#8c2a2a" stroke="none" stroke-width="0.5" stroke-linecap="butt"/><path d="M377.70426,148.99849c-0.18252,0.66579 -0.87021,1.05756 -1.536,0.87505c-0.65234,-0.17883 -1.04162,-0.84264 -0.8854,-1.49564c-0.04457,-0.06042 -0.08521,-0.12362 -0.12167,-0.18915c-0.39203,0.22863 -0.87215,0.30554 -1.34439,0.17609c-0.93211,-0.25552 -1.48059,-1.2183 -1.22506,-2.1504c0.25552,-0.93211 1.2183,-1.48059 2.1504,-1.22506c0.47225,0.12946 0.84602,0.44047 1.06665,0.83704c0.39203,-0.22863 0.87215,-0.30554 1.34439,-0.17609c0.93211,0.25552 1.48059,1.2183 1.22506,2.1504c-0.10606,0.38688 -0.33396,0.70768 -0.63093,0.93232c-0.00468,0.08805 -0.01878,0.17694 -0.04305,0.26544z" fill="#8c2a2a" stroke="none" stroke-width="0.5" stroke-linecap="butt"/><path d="M385.15771,150.17768c-0.18252,0.66579 -0.87021,1.05756 -1.536,0.87505c-0.07536,-0.02066 -0.14722,-0.04779 -0.21512,-0.08064c-0.08888,-0.0101 -0.17812,-0.02717 -0.26709,-0.05156c-0.93211,-0.25552 -1.48059,-1.2183 -1.22506,-2.1504c0.25552,-0.93211 1.2183,-1.48059 2.1504,-1.22506c0.93211,0.25552 1.48059,1.2183 1.22506,2.1504c-0.02439,0.08896 -0.05521,0.17444 -0.09185,0.25604c-0.00638,0.07516 -0.01968,0.15081 -0.04034,0.22617z" fill="#8c2a2a" stroke="none" stroke-width="0.5" stroke-linecap="butt"/><path d="M391.11797,153.02134c-0.18252,0.66579 -0.87021,1.05756 -1.536,0.87505c-0.23932,-0.0656 -0.44322,-0.19649 -0.59779,-0.36815c-0.10717,-0.00873 -0.21507,-0.02751 -0.32256,-0.05698c-0.93211,-0.25552 -1.48059,-1.2183 -1.22506,-2.1504c0.25552,-0.93211 1.2183,-1.48059 2.1504,-1.22506c0.81301,0.22287 1.33416,0.9838 1.2845,1.79314c0.25338,0.30357 0.35897,0.72214 0.2465,1.1324z" fill="#8c2a2a" stroke="none" stroke-width="0.5" stroke-linecap="butt"/><path d="M395.3294,151.84284c0.93211,0.25552 1.48059,1.2183 1.22506,2.1504c-0.25552,0.93211 -1.2183,1.48059 -2.1504,1.22506c-0.10993,-0.03014 -0.21452,-0.0701 -0.31309,-0.1187c-0.10958,-0.00846 -0.21993,-0.02741 -0.32986,-0.05755c-0.93211,-0.25552 -1.48059,-1.2183 -1.22506,-2.1504c0.25552,-0.93211 1.2183,-1.48059 2.1504,-1.22506c0.10993,0.03014 0.21452,0.0701 0.31309,0.1187c0.10958,0.00846 0.21993,0.02741 0.32986,0.05755z" fill="#8c2a2a" stroke="none" stroke-width="0.5" stroke-linecap="butt"/><path d="M279.16795,125.78778c0.18252,-0.66579 0.87021,-1.05756 1.536,-0.87505c0.66579,0.18252 1.05756,0.87021 0.87505,1.536c-0.18252,0.66579 -0.87021,1.05756 -1.536,0.87505c-0.66579,-0.18252 -1.05756,-0.87021 -0.87505,-1.536z" fill="#8c2a2a" stroke="none" stroke-width="0.5" stroke-linecap="butt"/><path d="M283.19939,128.10265c0.18252,-0.66579 0.87021,-1.05756 1.536,-0.87505c0.66579,0.18252 1.05756,0.87021 0.87505,1.536c-0.18252,0.66579 -0.87021,1.05756 -1.536,0.87505c-0.66579,-0.18252 -1.05756,-0.87021 -0.87505,-1.536z" fill="#8c2a2a" stroke="none" stroke-width="0.5" stroke-linecap="butt"/><path d="M288.5192,128.86977c0.18252,-0.66579 0.87021,-1.05756 1.536,-0.87505c0.66579,0.18252 1.05756,0.87021 0.87505,1.536c-0.18252,0.66579 -0.87021,1.05756 -1.536,0.87505c-0.66579,-0.18252 -1.05756,-0.87021 -0.87505,-1.536z" fill="#8c2a2a" stroke="none" stroke-width="0.5" stroke-linecap="butt"/><path d="M301.39361,131.70788c0.18252,-0.66579 0.87021,-1.05756 1.536,-0.87505c0.66579,0.18252 1.05756,0.87021 0.87505,1.536c-0.18252,0.66579 -0.87021,1.05756 -1.536,0.87505c-0.66579,-0.18252 -1.05756,-0.87021 -0.87505,-1.536z" fill="#8c2a2a" stroke="none" stroke-width="0.5" stroke-linecap="butt"/><path d="M309.71054,136.01782c-0.4488,1.16666 -1.61545,0.71786 -1.61545,0.71786l-1.5633,-0.60138c0,0 -1.16666,-0.4488 -0.71786,-1.61545c0.4488,-1.16666 1.61545,-0.71786 1.61545,-0.71786l1.5633,0.60138c0,0 1.16666,0.4488 0.71786,1.61545z" fill="#8c2a2a" stroke="none" stroke-width="0.5" stroke-linecap="butt"/><path d="M313.72374,137.16185c0.18252,-0.66579 0.87021,-1.05756 1.536,-0.87505c0.66579,0.18252 1.05756,0.87021 0.87505,1.536c-0.18252,0.66579 -0.87021,1.05756 -1.536,0.87505c-0.66579,-0.18252 -1.05756,-0.87021 -0.87505,-1.536z" fill="#8c2a2a" stroke="none" stroke-width="0.5" stroke-linecap="butt"/><path d="M321.99277,136.1864c0.71454,1.02564 -0.3111,1.74018 -0.3111,1.74018l-1.06807,0.74409c0,0 -1.02564,0.71454 -1.74018,-0.3111c-0.71454,-1.02564 0.3111,-1.74018 0.3111,-1.74018l1.06807,-0.74409c0,0 1.02564,-0.71454 1.74018,0.3111z" fill="#8c2a2a" stroke="none" stroke-width="0.5" stroke-linecap="butt"/><path d="M322.78956,134.98111c0.18252,-0.66579 0.87021,-1.05756 1.536,-0.87505c0.66579,0.18252 1.05756,0.87021 0.87505,1.536c-0.18252,0.66579 -0.87021,1.05756 -1.536,0.87505c-0.66579,-0.18252 -1.05756,-0.87021 -0.87505,-1.536z" fill="#8c2a2a" stroke="none" stroke-width="0.5" stroke-linecap="butt"/><path d="M358.96574,148.0091c0.18252,-0.66579 0.87021,-1.05756 1.536,-0.87505c0.66579,0.18252 1.05756,0.87021 0.87505,1.536c-0.18252,0.66579 -0.87021,1.05756 -1.536,0.87505c-0.66579,-0.18252 -1.05756,-0.87021 -0.87505,-1.536z" fill="#8c2a2a" stroke="none" stroke-width="0.5" stroke-linecap="butt"/><path d="M363.01268,149.63699c0.18252,-0.66579 0.87021,-1.05756 1.536,-0.87505c0.66579,0.18252 1.05756,0.87021 0.87505,1.536c-0.18252,0.66579 -0.87021,1.05756 -1.536,0.87505c-0.66579,-0.18252 -1.05756,-0.87021 -0.87505,-1.536z" fill="#8c2a2a" stroke="none" stroke-width="0.5" stroke-linecap="butt"/><path d="M368.04207,148.94194c0.18252,-0.66579 0.87021,-1.05756 1.536,-0.87505c0.66579,0.18252 1.05756,0.87021 0.87505,1.536c-0.18252,0.66579 -0.87021,1.05756 -1.536,0.87505c-0.66579,-0.18252 -1.05756,-0.87021 -0.87505,-1.536z" fill="#8c2a2a" stroke="none" stroke-width="0.5" stroke-linecap="butt"/><path d="M392.63221,157.58404c0.18252,-0.66579 0.87021,-1.05756 1.536,-0.87505c0.66579,0.18252 1.05756,0.87021 0.87505,1.536c-0.18252,0.66579 -0.87021,1.05756 -1.536,0.87505c-0.66579,-0.18252 -1.05756,-0.87021 -0.87505,-1.536z" fill="#8c2a2a" stroke="none" stroke-width="0.5" stroke-linecap="butt"/><path d="M279.40934,131.21124c0.10952,-0.39947 0.52212,-0.63453 0.9216,-0.52503c0.39947,0.10952 0.63453,0.52212 0.52503,0.9216c-0.10952,0.39947 -0.52212,0.63453 -0.9216,0.52503c-0.39947,-0.10952 -0.63453,-0.52212 -0.52503,-0.9216z" fill="#8c2a2a" stroke="none" stroke-width="0.5" stroke-linecap="butt"/><path d="M290.79306,133.81352c0.10952,-0.39947 0.52212,-0.63453 0.9216,-0.52503c0.39947,0.10952 0.63453,0.52212 0.52503,0.9216c-0.10952,0.39947 -0.52212,0.63453 -0.9216,0.52503c-0.39947,-0.10952 -0.63453,-0.52212 -0.52503,-0.9216z" fill="#8c2a2a" stroke="none" stroke-width="0.5" stroke-linecap="butt"/><path d="M290.62233,141.37062c0.10952,-0.39947 0.52212,-0.63453 0.9216,-0.52503c0.39947,0.10952 0.63453,0.52212 0.52503,0.9216c-0.10952,0.39947 -0.52212,0.63453 -0.9216,0.52503c-0.39947,-0.10952 -0.63453,-0.52212 -0.52503,-0.9216z" fill="#8c2a2a" stroke="none" stroke-width="0.5" stroke-linecap="butt"/><path d="M302.87681,137.64459c0.10952,-0.39947 0.52212,-0.63453 0.9216,-0.52503c0.39947,0.10952 0.63453,0.52212 0.52503,0.9216c-0.10952,0.39947 -0.52212,0.63453 -0.9216,0.52503c-0.39947,-0.10952 -0.63453,-0.52212 -0.52503,-0.9216z" fill="#8c2a2a" stroke="none" stroke-width="0.5" stroke-linecap="butt"/><path d="M314.21648,140.40762c0.10952,-0.39947 0.52212,-0.63453 0.9216,-0.52503c0.39947,0.10952 0.63453,0.52212 0.52503,0.9216c-0.10952,0.39947 -0.52212,0.63453 -0.9216,0.52503c-0.39947,-0.10952 -0.63453,-0.52212 -0.52503,-0.9216z" fill="#8c2a2a" stroke="none" stroke-width="0.5" stroke-linecap="butt"/><path d="M314.99965,145.11552c0.10952,-0.39947 0.52212,-0.63453 0.9216,-0.52503c0.39947,0.10952 0.63453,0.52212 0.52503,0.9216c-0.10952,0.39947 -0.52212,0.63453 -0.9216,0.52503c-0.39947,-0.10952 -0.63453,-0.52212 -0.52503,-0.9216z" fill="#8c2a2a" stroke="none" stroke-width="0.5" stroke-linecap="butt"/><path d="M353.70301,148.29454c0.10952,-0.39947 0.52212,-0.63453 0.9216,-0.52503c0.39947,0.10952 0.63453,0.52212 0.52503,0.9216c-0.10952,0.39947 -0.52212,0.63453 -0.9216,0.52503c-0.39947,-0.10952 -0.63453,-0.52212 -0.52503,-0.9216z" fill="#8c2a2a" stroke="none" stroke-width="0.5" stroke-linecap="butt"/><path d="M361.77585,145.32314c0.10952,-0.39947 0.52212,-0.63453 0.9216,-0.52503c0.39947,0.10952 0.63453,0.52212 0.52503,0.9216c-0.10952,0.39947 -0.52212,0.63453 -0.9216,0.52503c-0.39947,-0.10952 -0.63453,-0.52212 -0.52503,-0.9216z" fill="#8c2a2a" stroke="none" stroke-width="0.5" stroke-linecap="butt"/><path d="M361.82046,155.87715c0.10952,-0.39947 0.52212,-0.63453 0.9216,-0.52503c0.39947,0.10952 0.63453,0.52212 0.52503,0.9216c-0.10952,0.39947 -0.52212,0.63453 -0.9216,0.52503c-0.39947,-0.10952 -0.63453,-0.52212 -0.52503,-0.9216z" fill="#8c2a2a" stroke="none" stroke-width="0.5" stroke-linecap="butt"/><path d="M373.51263,157.35427c0.10952,-0.39947 0.52212,-0.63453 0.9216,-0.52503c0.39947,0.10952 0.63453,0.52212 0.52503,0.9216c-0.10952,0.39947 -0.52212,0.63453 -0.9216,0.52503c-0.39947,-0.10952 -0.63453,-0.52212 -0.52503,-0.9216z" fill="#8c2a2a" stroke="none" stroke-width="0.5" stroke-linecap="butt"/><path d="M377.96115,153.73493c0.10952,-0.39947 0.52212,-0.63453 0.9216,-0.52503c0.39947,0.10952 0.63453,0.52212 0.52503,0.9216c-0.10952,0.39947 -0.52212,0.63453 -0.9216,0.52503c-0.39947,-0.10952 -0.63453,-0.52212 -0.52503,-0.9216z" fill="#8c2a2a" stroke="none" stroke-width="0.5" stroke-linecap="butt"/><path d="M390.23722,166.9508c0.10952,-0.39947 0.52212,-0.63453 0.9216,-0.52503c0.39947,0.10952 0.63453,0.52212 0.52503,0.9216c-0.10952,0.39947 -0.52212,0.63453 -0.9216,0.52503c-0.39947,-0.10952 -0.63453,-0.52212 -0.52503,-0.9216z" fill="#8c2a2a" stroke="none" stroke-width="0.5" stroke-linecap="butt"/><path d="M271.69703,137.91061c0.25552,-0.93211 1.2183,-1.48059 2.1504,-1.22506c0.93211,0.25552 1.48059,1.2183 1.22506,2.1504c-0.25552,0.93211 -1.2183,1.48059 -2.1504,1.22506c-0.93211,-0.25552 -1.48059,-1.2183 -1.22506,-2.1504z" fill="#8c4330" stroke="none" stroke-width="0.5" stroke-linecap="butt"/><path d="M282.86044,141.31657c0.25552,-0.93211 1.2183,-1.48059 2.1504,-1.22506c0.93211,0.25552 1.48059,1.2183 1.22506,2.1504c-0.25552,0.93211 -1.2183,1.48059 -2.1504,1.22506c-0.93211,-0.25552 -1.48059,-1.2183 -1.22506,-2.1504zM279.48499,140.39122c0.25552,-0.93211 1.2183,-1.48059 2.1504,-1.22506c0.93211,0.25552 1.48059,1.2183 1.22506,2.1504c-0.25552,0.93211 -1.2183,1.48059 -2.1504,1.22506c-0.93211,-0.25552 -1.48059,-1.2183 -1.22506,-2.1504z" fill="#8c4330" stroke="none" stroke-width="0.5" stroke-linecap="butt"/><path d="M293.39641,143.85926c0.25552,-0.93211 1.2183,-1.48059 2.1504,-1.22506c0.93211,0.25552 1.48059,1.2183 1.22506,2.1504c-0.25552,0.93211 -1.2183,1.48059 -2.1504,1.22506c-0.93211,-0.25552 -1.48059,-1.2183 -1.22506,-2.1504z" fill="#8c4330" stroke="none" stroke-width="0.5" stroke-linecap="butt"/><path d="M290.61735,145.17119c-0.18252,0.66579 -0.87021,1.05756 -1.536,0.87505c-0.53482,-0.14661 -0.89281,-0.61919 -0.91837,-1.14455c-0.10236,-0.00921 -0.20533,-0.02759 -0.30794,-0.05572c-0.93211,-0.25552 -1.48059,-1.2183 -1.22506,-2.1504c0.25552,-0.93211 1.2183,-1.48059 2.1504,-1.22506c0.93211,0.25552 1.48059,1.2183 1.22506,2.1504c-0.00956,0.03487 -0.02011,0.06921 -0.03161,0.103c0.52154,0.26175 0.8037,0.86295 0.64351,1.44729z" fill="#8c4330" stroke="none" stroke-width="0.5" stroke-linecap="butt"/><path d="M303.20134,146.54718c0.25552,-0.93211 1.2183,-1.48059 2.1504,-1.22506c0.93211,0.25552 1.48059,1.2183 1.22506,2.1504c-0.25552,0.93211 -1.2183,1.48059 -2.1504,1.22506c-0.93211,-0.25552 -1.48059,-1.2183 -1.22506,-2.1504z" fill="#8c4330" stroke="none" stroke-width="0.5" stroke-linecap="butt"/><path d="M315.5625,150.62712c-0.1517,0.55337 -0.65238,0.91744 -1.1994,0.91983c-0.27549,0.06496 -0.57068,0.06386 -0.86288,-0.01624c-0.93211,-0.25552 -1.48059,-1.2183 -1.22506,-2.1504c0.25552,-0.93211 1.2183,-1.48059 2.1504,-1.22506c0.93211,0.25552 1.48059,1.2183 1.22506,2.1504c-0.01614,0.05886 -0.03509,0.11619 -0.05667,0.17187c-0.00735,0.04984 -0.01779,0.09978 -0.03145,0.1496z" fill="#8c4330" stroke="none" stroke-width="0.5" stroke-linecap="butt"/><path d="M318.29501,151.3762c0.25552,-0.93211 1.2183,-1.48059 2.1504,-1.22506c0.93211,0.25552 1.48059,1.2183 1.22506,2.1504c-0.25552,0.93211 -1.2183,1.48059 -2.1504,1.22506c-0.93211,-0.25552 -1.48059,-1.2183 -1.22506,-2.1504z" fill="#8c4330" stroke="none" stroke-width="0.5" stroke-linecap="butt"/><path d="M326.47704,154.31048c0.25552,-0.93211 1.2183,-1.48059 2.1504,-1.22506c0.93211,0.25552 1.48059,1.2183 1.22506,2.1504c-0.25552,0.93211 -1.2183,1.48059 -2.1504,1.22506c-0.93211,-0.25552 -1.48059,-1.2183 -1.22506,-2.1504z" fill="#8c4330" stroke="none" stroke-width="0.5" stroke-linecap="butt"/><path d="M333.31359,157.73999c0.16183,-0.59031 0.72077,-0.9652 1.30947,-0.91541c0.01011,-0.08879 0.02716,-0.17795 0.05153,-0.26682c0.25552,-0.93211 1.2183,-1.48059 2.1504,-1.22506c0.93211,0.25552 1.48059,1.2183 1.22506,2.1504c-0.25552,0.93211 -1.2183,1.48059 -2.1504,1.22506c-0.08887,-0.02437 -0.17427,-0.05516 -0.2558,-0.09175c-0.25738,0.53179 -0.86491,0.82141 -1.45521,0.65959c-0.66579,-0.18252 -1.05756,-0.87021 -0.87505,-1.536z" fill="#8c4330" stroke="none" stroke-width="0.5" stroke-linecap="butt"/><path d="M337.91786,157.9653c0.17528,-0.63938 0.81645,-1.02605 1.45671,-0.89407c0.2863,-0.88482 1.22129,-1.39606 2.1273,-1.14769c0.93211,0.25552 1.48059,1.2183 1.22506,2.1504c-0.25552,0.93211 -1.2183,1.48059 -2.1504,1.22506c-0.17549,-0.04811 -0.3374,-0.12129 -0.48288,-0.21461c-0.30306,0.37246 -0.80789,0.55203 -1.30073,0.41693c-0.66579,-0.18252 -1.05756,-0.87021 -0.87505,-1.536z" fill="#8c4330" stroke="none" stroke-width="0.5" stroke-linecap="butt"/><path d="M354.27138,160.72029c0.25552,-0.93211 1.2183,-1.48059 2.1504,-1.22506c0.93211,0.25552 1.48059,1.2183 1.22506,2.1504c-0.25552,0.93211 -1.2183,1.48059 -2.1504,1.22506c-0.93211,-0.25552 -1.48059,-1.2183 -1.22506,-2.1504z" fill="#8c4330" stroke="none" stroke-width="0.5" stroke-linecap="butt"/><path d="M360.77594,160.94809c0.18252,-0.66579 0.87021,-1.05756 1.536,-0.87505c0.52826,0.14482 0.88401,0.60766 0.91728,1.12526c0.82548,0.32075 1.29114,1.22043 1.05187,2.09321c-0.25552,0.93211 -1.2183,1.48059 -2.1504,1.22506c-0.93211,-0.25552 -1.48059,-1.2183 -1.22506,-2.1504c0.02824,-0.103 0.06511,-0.20132 0.10962,-0.29438c-0.24818,-0.30284 -0.35072,-0.71735 -0.23932,-1.1237z" fill="#8c4330" stroke="none" stroke-width="0.5" stroke-linecap="butt"/><path d="M371.71903,165.15774c-0.00677,0.02472 -0.01425,0.04906 -0.02238,0.073c-0.00644,0.02926 -0.01367,0.05851 -0.02168,0.08774c-0.25552,0.93211 -1.2183,1.48059 -2.1504,1.22506c-0.93211,-0.25552 -1.48059,-1.2183 -1.22506,-2.1504c0.25552,-0.93211 1.2183,-1.48059 2.1504,-1.22506c0.58388,0.16007 1.01722,0.59764 1.19672,1.13136c0.12088,0.25916 0.15394,0.56092 0.07241,0.85831z" fill="#8c4330" stroke="none" stroke-width="0.5" stroke-linecap="butt"/><path d="M375.42898,167.38449c0.25552,-0.93211 1.2183,-1.48059 2.1504,-1.22506c0.39472,0.10821 0.72064,0.34325 0.94585,0.64907c0.27144,-0.90823 1.22021,-1.4378 2.13918,-1.18587c0.93211,0.25552 1.48059,1.2183 1.22506,2.1504c-0.25552,0.93211 -1.2183,1.48059 -2.1504,1.22506c-0.39472,-0.10821 -0.72064,-0.34325 -0.94585,-0.64907c-0.27144,0.90823 -1.22021,1.4378 -2.13918,1.18587c-0.93211,-0.25552 -1.48059,-1.2183 -1.22506,-2.1504z" fill="#8c4330" stroke="none" stroke-width="0.5" stroke-linecap="butt"/><path d="M390.02868,169.91791c0.66579,0.18252 1.05756,0.87021 0.87505,1.536c-0.18252,0.66579 -0.87021,1.05756 -1.536,0.87505c-0.51223,-0.14042 -0.86226,-0.57985 -0.91336,-1.07828c-0.22081,0.02752 -0.45056,0.01312 -0.67848,-0.04937c-0.93211,-0.25552 -1.48059,-1.2183 -1.22506,-2.1504c0.25552,-0.93211 1.2183,-1.48059 2.1504,-1.22506c0.9061,0.2484 1.44967,1.16511 1.24458,2.07232c0.02764,0.00562 0.05527,0.01219 0.08288,0.01977z" fill="#8c4330" stroke="none" stroke-width="0.5" stroke-linecap="butt"/><path d="M391.79553,171.35275c0.25552,-0.93211 1.2183,-1.48059 2.1504,-1.22506c0.93211,0.25552 1.48059,1.2183 1.22506,2.1504c-0.25552,0.93211 -1.2183,1.48059 -2.1504,1.22506c-0.93211,-0.25552 -1.48059,-1.2183 -1.22506,-2.1504z" fill="#8c4330" stroke="none" stroke-width="0.5" stroke-linecap="butt"/><path d="M274.59831,143.71763c0.18252,-0.66579 0.87021,-1.05756 1.536,-0.87505c0.66579,0.18252 1.05756,0.87021 0.87505,1.536c-0.18252,0.66579 -0.87021,1.05756 -1.536,0.87505c-0.66579,-0.18252 -1.05756,-0.87021 -0.87505,-1.536z" fill="#8c4330" stroke="none" stroke-width="0.5" stroke-linecap="butt"/><path d="M282.86847,146.33043c0.18252,-0.66579 0.87021,-1.05756 1.536,-0.87505c0.66579,0.18252 1.05756,0.87021 0.87505,1.536c-0.18252,0.66579 -0.87021,1.05756 -1.536,0.87505c-0.66579,-0.18252 -1.05756,-0.87021 -0.87505,-1.536z" fill="#8c4330" stroke="none" stroke-width="0.5" stroke-linecap="butt"/><path d="M317.82333,154.35758c0.18252,-0.66579 0.87021,-1.05756 1.536,-0.87505c0.66579,0.18252 1.05756,0.87021 0.87505,1.536c-0.18252,0.66579 -0.87021,1.05756 -1.536,0.87505c-0.66579,-0.18252 -1.05756,-0.87021 -0.87505,-1.536z" fill="#8c4330" stroke="none" stroke-width="0.5" stroke-linecap="butt"/><path d="M323.63838,156.47017c0.18252,-0.66579 0.87021,-1.05756 1.536,-0.87505c0.66579,0.18252 1.05756,0.87021 0.87505,1.536c-0.18252,0.66579 -0.87021,1.05756 -1.536,0.87505c-0.66579,-0.18252 -1.05756,-0.87021 -0.87505,-1.536z" fill="#8c4330" stroke="none" stroke-width="0.5" stroke-linecap="butt"/><path d="M379.19603,170.66379c0.18252,-0.66579 0.87021,-1.05756 1.536,-0.87505c0.66579,0.18252 1.05756,0.87021 0.87505,1.536c-0.18252,0.66579 -0.87021,1.05756 -1.536,0.87505c-0.66579,-0.18252 -1.05756,-0.87021 -0.87505,-1.536z" fill="#8c4330" stroke="none" stroke-width="0.5" stroke-linecap="butt"/><path d="M385.27297,173.71225c0.18252,-0.66579 0.87021,-1.05756 1.536,-0.87505c0.66579,0.18252 1.05756,0.87021 0.87505,1.536c-0.18252,0.66579 -0.87021,1.05756 -1.536,0.87505c-0.66579,-0.18252 -1.05756,-0.87021 -0.87505,-1.536z" fill="#8c4330" stroke="none" stroke-width="0.5" stroke-linecap="butt"/><path d="M346.39281,160.46144c0.18252,-0.66579 0.87021,-1.05756 1.536,-0.87505c0.66579,0.18252 1.05756,0.87021 0.87505,1.536c-0.18252,0.66579 -0.87021,1.05756 -1.536,0.87505c-0.66579,-0.18252 -1.05756,-0.87021 -0.87505,-1.536z" fill="#8c4330" stroke="none" stroke-width="0.5" stroke-linecap="butt"/><path d="M277.19613,146.84921c0.10952,-0.39947 0.52212,-0.63453 0.9216,-0.52503c0.39947,0.10952 0.63453,0.52212 0.52503,0.9216c-0.10952,0.39947 -0.52212,0.63453 -0.9216,0.52503c-0.39947,-0.10952 -0.63453,-0.52212 -0.52503,-0.9216z" fill="#8c4330" stroke="none" stroke-width="0.5" stroke-linecap="butt"/><path d="M282.55503,151.25616c0.10952,-0.39947 0.52212,-0.63453 0.9216,-0.52503c0.39947,0.10952 0.63453,0.52212 0.52503,0.9216c-0.10952,0.39947 -0.52212,0.63453 -0.9216,0.52503c-0.39947,-0.10952 -0.63453,-0.52212 -0.52503,-0.9216z" fill="#8c4330" stroke="none" stroke-width="0.5" stroke-linecap="butt"/><path d="M289.42761,149.51108c0.10952,-0.39947 0.52212,-0.63453 0.9216,-0.52503c0.39947,0.10952 0.63453,0.52212 0.52503,0.9216c-0.10952,0.39947 -0.52212,0.63453 -0.9216,0.52503c-0.39947,-0.10952 -0.63453,-0.52212 -0.52503,-0.9216z" fill="#8c4330" stroke="none" stroke-width="0.5" stroke-linecap="butt"/><path d="M312.0008,157.94588c0.10952,-0.39947 0.52212,-0.63453 0.9216,-0.52503c0.39947,0.10952 0.63453,0.52212 0.52503,0.9216c-0.10952,0.39947 -0.52212,0.63453 -0.9216,0.52503c-0.39947,-0.10952 -0.63453,-0.52212 -0.52503,-0.9216z" fill="#8c4330" stroke="none" stroke-width="0.5" stroke-linecap="butt"/><path d="M321.35204,161.02786c0.10952,-0.39947 0.52212,-0.63453 0.9216,-0.52503c0.39947,0.10952 0.63453,0.52212 0.52503,0.9216c-0.10952,0.39947 -0.52212,0.63453 -0.9216,0.52503c-0.39947,-0.10952 -0.63453,-0.52212 -0.52503,-0.9216z" fill="#8c4330" stroke="none" stroke-width="0.5" stroke-linecap="butt"/><path d="M330.25461,160.70336c0.10952,-0.39947 0.52212,-0.63453 0.9216,-0.52503c0.39947,0.10952 0.63453,0.52212 0.52503,0.9216c-0.10952,0.39947 -0.52212,0.63453 -0.9216,0.52503c-0.39947,-0.10952 -0.63453,-0.52212 -0.52503,-0.9216z" fill="#8c4330" stroke="none" stroke-width="0.5" stroke-linecap="butt"/><path d="M346.69378,165.03716c0.10952,-0.39947 0.52212,-0.63453 0.9216,-0.52503c0.39947,0.10952 0.63453,0.52212 0.52503,0.9216c-0.10952,0.39947 -0.52212,0.63453 -0.9216,0.52503c-0.39947,-0.10952 -0.63453,-0.52212 -0.52503,-0.9216z" fill="#8c4330" stroke="none" stroke-width="0.5" stroke-linecap="butt"/><path d="M373.21026,176.10831c0.10952,-0.39947 0.52212,-0.63453 0.9216,-0.52503c0.39947,0.10952 0.63453,0.52212 0.52503,0.9216c-0.10952,0.39947 -0.52212,0.63453 -0.9216,0.52503c-0.39947,-0.10952 -0.63453,-0.52212 -0.52503,-0.9216z" fill="#8c4330" stroke="none" stroke-width="0.5" stroke-linecap="butt"/><path d="M382.92954,177.21741c0.10952,-0.39947 0.52212,-0.63453 0.9216,-0.52503c0.39947,0.10952 0.63453,0.52212 0.52503,0.9216c-0.10952,0.39947 -0.52212,0.63453 -0.9216,0.52503c-0.39947,-0.10952 -0.63453,-0.52212 -0.52503,-0.9216z" fill="#8c4330" stroke="none" stroke-width="0.5" stroke-linecap="butt"/><path d="M269.92698,150.04093c0.25552,-0.93211 1.2183,-1.48059 2.1504,-1.22506c0.93211,0.25552 1.48059,1.2183 1.22506,2.1504c-0.25552,0.93211 -1.2183,1.48059 -2.1504,1.22506c-0.93211,-0.25552 -1.48059,-1.2183 -1.22506,-2.1504z" fill="#805132" stroke="none" stroke-width="0.5" stroke-linecap="butt"/><path d="M275.87422,151.6713c0.25552,-0.93211 1.2183,-1.48059 2.1504,-1.22506c0.93211,0.25552 1.48059,1.2183 1.22506,2.1504c-0.25552,0.93211 -1.2183,1.48059 -2.1504,1.22506c-0.93211,-0.25552 -1.48059,-1.2183 -1.22506,-2.1504z" fill="#805132" stroke="none" stroke-width="0.5" stroke-linecap="butt"/><path d="M282.69775,153.88753c0.25552,-0.93211 1.2183,-1.48059 2.1504,-1.22506c0.93211,0.25552 1.48059,1.2183 1.22506,2.1504c-0.25552,0.93211 -1.2183,1.48059 -2.1504,1.22506c-0.93211,-0.25552 -1.48059,-1.2183 -1.22506,-2.1504z" fill="#805132" stroke="none" stroke-width="0.5" stroke-linecap="butt"/><path d="M287.19836,155.12133c0.25552,-0.93211 1.2183,-1.48059 2.1504,-1.22506c0.93211,0.25552 1.48059,1.2183 1.22506,2.1504c-0.25552,0.93211 -1.2183,1.48059 -2.1504,1.22506c-0.93211,-0.25552 -1.48059,-1.2183 -1.22506,-2.1504z" fill="#805132" stroke="none" stroke-width="0.5" stroke-linecap="butt"/><path d="M295.59821,159.15222c0.04333,-0.15805 0.11511,-0.30064 0.20832,-0.42378c-0.27625,0.0656 -0.5724,0.06475 -0.86554,-0.0156c-0.29097,-0.07977 -0.54454,-0.22844 -0.74795,-0.4236c-0.27449,0.06413 -0.56844,0.06272 -0.85941,-0.01706c-0.93211,-0.25552 -1.48059,-1.2183 -1.22506,-2.1504c0.25552,-0.93211 1.2183,-1.48059 2.1504,-1.22506c0.29097,0.07977 0.54454,0.22844 0.74795,0.4236c0.27449,-0.06413 0.56844,-0.06272 0.85941,0.01706c0.93211,0.25552 1.48059,1.2183 1.22506,2.1504c-0.08035,0.29313 -0.23065,0.54832 -0.42796,0.7525c0.15346,-0.01737 0.31273,-0.00641 0.47077,0.03692c0.66579,0.18252 1.05756,0.87021 0.87505,1.536c-0.18252,0.66579 -0.87021,1.05756 -1.536,0.87505c-0.66579,-0.18252 -1.05756,-0.87021 -0.87505,-1.536z" fill="#805132" stroke="none" stroke-width="0.5" stroke-linecap="butt"/><path d="M304.32453,159.47065c0.25552,-0.93211 1.2183,-1.48059 2.1504,-1.22506c0.93211,0.25552 1.48059,1.2183 1.22506,2.1504c-0.25552,0.93211 -1.2183,1.48059 -2.1504,1.22506c-0.93211,-0.25552 -1.48059,-1.2183 -1.22506,-2.1504z" fill="#805132" stroke="none" stroke-width="0.5" stroke-linecap="butt"/><path d="M311.44099,161.24873c0.25552,-0.93211 1.2183,-1.48059 2.1504,-1.22506c0.93211,0.25552 1.48059,1.2183 1.22506,2.1504c-0.25552,0.93211 -1.2183,1.48059 -2.1504,1.22506c-0.93211,-0.25552 -1.48059,-1.2183 -1.22506,-2.1504z" fill="#805132" stroke="none" stroke-width="0.5" stroke-linecap="butt"/><path d="M317.54897,162.92317c0.25552,-0.93211 1.2183,-1.48059 2.1504,-1.22506c0.93211,0.25552 1.48059,1.2183 1.22506,2.1504c-0.25552,0.93211 -1.2183,1.48059 -2.1504,1.22506c-0.93211,-0.25552 -1.48059,-1.2183 -1.22506,-2.1504z" fill="#805132" stroke="none" stroke-width="0.5" stroke-linecap="butt"/><path d="M322.63294,165.18096c0.25552,-0.93211 1.2183,-1.48059 2.1504,-1.22506c0.93211,0.25552 1.48059,1.2183 1.22506,2.1504c-0.25552,0.93211 -1.2183,1.48059 -2.1504,1.22506c-0.93211,-0.25552 -1.48059,-1.2183 -1.22506,-2.1504z" fill="#805132" stroke="none" stroke-width="0.5" stroke-linecap="butt"/><path d="M329.5421,168.97601c0.09787,-0.35698 0.34097,-0.6352 0.64804,-0.78834c-0.08338,-0.29591 -0.08981,-0.6176 -0.00261,-0.9357c0.25552,-0.93211 1.2183,-1.48059 2.1504,-1.22506c0.93211,0.25552 1.48059,1.2183 1.22506,2.1504c-0.2027,0.7394 -0.85043,1.23739 -1.57487,1.28416c-0.00738,0.05843 -0.01897,0.11705 -0.03499,0.17548c-0.18252,0.66579 -0.87021,1.05756 -1.536,0.87505c-0.66579,-0.18252 -1.05756,-0.87021 -0.87505,-1.536z" fill="#805132" stroke="none" stroke-width="0.5" stroke-linecap="butt"/><path d="M334.36669,168.39764c0.25552,-0.93211 1.2183,-1.48059 2.1504,-1.22506c0.93211,0.25552 1.48059,1.2183 1.22506,2.1504c-0.25552,0.93211 -1.2183,1.48059 -2.1504,1.22506c-0.93211,-0.25552 -1.48059,-1.2183 -1.22506,-2.1504z" fill="#805132" stroke="none" stroke-width="0.5" stroke-linecap="butt"/><path d="M352.09173,173.08395c0.25552,-0.93211 1.2183,-1.48059 2.1504,-1.22506c0.93211,0.25552 1.48059,1.2183 1.22506,2.1504c-0.25552,0.93211 -1.2183,1.48059 -2.1504,1.22506c-0.93211,-0.25552 -1.48059,-1.2183 -1.22506,-2.1504z" fill="#805132" stroke="none" stroke-width="0.5" stroke-linecap="butt"/><path d="M359.58675,176.00271c0.25552,-0.93211 1.2183,-1.48059 2.1504,-1.22506c0.93211,0.25552 1.48059,1.2183 1.22506,2.1504c-0.25552,0.93211 -1.2183,1.48059 -2.1504,1.22506c-0.93211,-0.25552 -1.48059,-1.2183 -1.22506,-2.1504z" fill="#805132" stroke="none" stroke-width="0.5" stroke-linecap="butt"/><path d="M367.34616,177.95705c0.25552,-0.93211 1.2183,-1.48059 2.1504,-1.22506c0.93211,0.25552 1.48059,1.2183 1.22506,2.1504c-0.25552,0.93211 -1.2183,1.48059 -2.1504,1.22506c-0.93211,-0.25552 -1.48059,-1.2183 -1.22506,-2.1504z" fill="#805132" stroke="none" stroke-width="0.5" stroke-linecap="butt"/><path d="M376.81407,181.24384c0.25552,-0.93211 1.2183,-1.48059 2.1504,-1.22506c0.93211,0.25552 1.48059,1.2183 1.22506,2.1504c-0.25552,0.93211 -1.2183,1.48059 -2.1504,1.22506c-0.93211,-0.25552 -1.48059,-1.2183 -1.22506,-2.1504z" fill="#805132" stroke="none" stroke-width="0.5" stroke-linecap="butt"/><path d="M384.01866,182.70045c0.25552,-0.93211 1.2183,-1.48059 2.1504,-1.22506c0.93211,0.25552 1.48059,1.2183 1.22506,2.1504c-0.25552,0.93211 -1.2183,1.48059 -2.1504,1.22506c-0.93211,-0.25552 -1.48059,-1.2183 -1.22506,-2.1504z" fill="#805132" stroke="none" stroke-width="0.5" stroke-linecap="butt"/><path d="M341.96534,170.30791c0.25552,-0.93211 1.2183,-1.48059 2.1504,-1.22506c0.93211,0.25552 1.48059,1.2183 1.22506,2.1504c-0.25552,0.93211 -1.2183,1.48059 -2.1504,1.22506c-0.93211,-0.25552 -1.48059,-1.2183 -1.22506,-2.1504z" fill="#805132" stroke="none" stroke-width="0.5" stroke-linecap="butt"/><path d="M274.74158,157.06373c0.18252,-0.66579 0.87021,-1.05756 1.536,-0.87505c0.66579,0.18252 1.05756,0.87021 0.87505,1.536c-0.18252,0.66579 -0.87021,1.05756 -1.536,0.87505c-0.66579,-0.18252 -1.05756,-0.87021 -0.87505,-1.536z" fill="#805132" stroke="none" stroke-width="0.5" stroke-linecap="butt"/><path d="M283.78615,160.2265c0.18762,1.23584 -1.04823,1.42346 -1.04823,1.42346l-1.62288,0.24637c0,0 -1.23584,0.18762 -1.42346,-1.04823c-0.18762,-1.23584 1.04823,-1.42346 1.04823,-1.42346l1.62288,-0.24637c0,0 1.23584,-0.18762 1.42346,1.04823z" fill="#805132" stroke="none" stroke-width="0.5" stroke-linecap="butt"/><path d="M288.99001,159.93289c0.18252,-0.66579 0.87021,-1.05756 1.536,-0.87505c0.66579,0.18252 1.05756,0.87021 0.87505,1.536c-0.18252,0.66579 -0.87021,1.05756 -1.536,0.87505c-0.66579,-0.18252 -1.05756,-0.87021 -0.87505,-1.536z" fill="#805132" stroke="none" stroke-width="0.5" stroke-linecap="butt"/><path d="M300.11435,159.699c0.18252,-0.66579 0.87021,-1.05756 1.536,-0.87505c0.66579,0.18252 1.05756,0.87021 0.87505,1.536c-0.18252,0.66579 -0.87021,1.05756 -1.536,0.87505c-0.66579,-0.18252 -1.05756,-0.87021 -0.87505,-1.536z" fill="#805132" stroke="none" stroke-width="0.5" stroke-linecap="butt"/><path d="M310.23824,164.37532c0.18252,-0.66579 0.87021,-1.05756 1.536,-0.87505c0.66579,0.18252 1.05756,0.87021 0.87505,1.536c-0.18252,0.66579 -0.87021,1.05756 -1.536,0.87505c-0.66579,-0.18252 -1.05756,-0.87021 -0.87505,-1.536z" fill="#805132" stroke="none" stroke-width="0.5" stroke-linecap="butt"/><path d="M320.81579,168.65757c0.18252,-0.66579 0.87021,-1.05756 1.536,-0.87505c0.66579,0.18252 1.05756,0.87021 0.87505,1.536c-0.18252,0.66579 -0.87021,1.05756 -1.536,0.87505c-0.66579,-0.18252 -1.05756,-0.87021 -0.87505,-1.536z" fill="#805132" stroke="none" stroke-width="0.5" stroke-linecap="butt"/><path d="M338.28144,170.50772c0.18252,-0.66579 0.87021,-1.05756 1.536,-0.87505c0.66579,0.18252 1.05756,0.87021 0.87505,1.536c-0.18252,0.66579 -0.87021,1.05756 -1.536,0.87505c-0.66579,-0.18252 -1.05756,-0.87021 -0.87505,-1.536z" fill="#805132" stroke="none" stroke-width="0.5" stroke-linecap="butt"/><path d="M344.56318,173.4395c0.18252,-0.66579 0.87021,-1.05756 1.536,-0.87505c0.66579,0.18252 1.05756,0.87021 0.87505,1.536c-0.18252,0.66579 -0.87021,1.05756 -1.536,0.87505c-0.66579,-0.18252 -1.05756,-0.87021 -0.87505,-1.536z" fill="#805132" stroke="none" stroke-width="0.5" stroke-linecap="butt"/><path d="M350.12687,177.72978c0.18252,-0.66579 0.87021,-1.05756 1.536,-0.87505c0.66579,0.18252 1.05756,0.87021 0.87505,1.536c-0.18252,0.66579 -0.87021,1.05756 -1.536,0.87505c-0.66579,-0.18252 -1.05756,-0.87021 -0.87505,-1.536z" fill="#805132" stroke="none" stroke-width="0.5" stroke-linecap="butt"/><path d="M359.55072,181.17731c0.18252,-0.66579 0.87021,-1.05756 1.536,-0.87505c0.66579,0.18252 1.05756,0.87021 0.87505,1.536c-0.18252,0.66579 -0.87021,1.05756 -1.536,0.87505c-0.66579,-0.18252 -1.05756,-0.87021 -0.87505,-1.536z" fill="#805132" stroke="none" stroke-width="0.5" stroke-linecap="butt"/><path d="M364.02279,181.88483c0.18252,-0.66579 0.87021,-1.05756 1.536,-0.87505c0.66579,0.18252 1.05756,0.87021 0.87505,1.536c-0.18252,0.66579 -0.87021,1.05756 -1.536,0.87505c-0.66579,-0.18252 -1.05756,-0.87021 -0.87505,-1.536z" fill="#805132" stroke="none" stroke-width="0.5" stroke-linecap="butt"/><path d="M369.9595,180.40162c0.18252,-0.66579 0.87021,-1.05756 1.536,-0.87505c0.66579,0.18252 1.05756,0.87021 0.87505,1.536c-0.18252,0.66579 -0.87021,1.05756 -1.536,0.87505c-0.66579,-0.18252 -1.05756,-0.87021 -0.87505,-1.536z" fill="#805132" stroke="none" stroke-width="0.5" stroke-linecap="butt"/><path d="M378.83906,186.46501c0.18252,-0.66579 0.87021,-1.05756 1.536,-0.87505c0.66579,0.18252 1.05756,0.87021 0.87505,1.536c-0.18252,0.66579 -0.87021,1.05756 -1.536,0.87505c-0.66579,-0.18252 -1.05756,-0.87021 -0.87505,-1.536z" fill="#805132" stroke="none" stroke-width="0.5" stroke-linecap="butt"/><path d="M276.31041,164.57926c0.10952,-0.39947 0.52212,-0.63453 0.9216,-0.52503c0.39947,0.10952 0.63453,0.52212 0.52503,0.9216c-0.10952,0.39947 -0.52212,0.63453 -0.9216,0.52503c-0.39947,-0.10952 -0.63453,-0.52212 -0.52503,-0.9216z" fill="#805132" stroke="none" stroke-width="0.5" stroke-linecap="butt"/><path d="M291.05907,164.99331c0.10952,-0.39947 0.52212,-0.63453 0.9216,-0.52503c0.39947,0.10952 0.63453,0.52212 0.52503,0.9216c-0.10952,0.39947 -0.52212,0.63453 -0.9216,0.52503c-0.39947,-0.10952 -0.63453,-0.52212 -0.52503,-0.9216z" fill="#805132" stroke="none" stroke-width="0.5" stroke-linecap="butt"/><path d="M289.34057,171.26202c0.10952,-0.39947 0.52212,-0.63453 0.9216,-0.52503c0.39947,0.10952 0.63453,0.52212 0.52503,0.9216c-0.10952,0.39947 -0.52212,0.63453 -0.9216,0.52503c-0.39947,-0.10952 -0.63453,-0.52212 -0.52503,-0.9216z" fill="#805132" stroke="none" stroke-width="0.5" stroke-linecap="butt"/><path d="M302.72269,165.94416c0.10952,-0.39947 0.52212,-0.63453 0.9216,-0.52503c0.39947,0.10952 0.63453,0.52212 0.52503,0.9216c-0.10952,0.39947 -0.52212,0.63453 -0.9216,0.52503c-0.39947,-0.10952 -0.63453,-0.52212 -0.52503,-0.9216z" fill="#805132" stroke="none" stroke-width="0.5" stroke-linecap="butt"/><path d="M362.92118,185.90324c0.10952,-0.39947 0.52212,-0.63453 0.9216,-0.52503c0.39947,0.10952 0.63453,0.52212 0.52503,0.9216c-0.10952,0.39947 -0.52212,0.63453 -0.9216,0.52503c-0.39947,-0.10952 -0.63453,-0.52212 -0.52503,-0.9216z" fill="#805132" stroke="none" stroke-width="0.5" stroke-linecap="butt"/><path d="M373.83324,191.48689c0.10952,-0.39947 0.52212,-0.63453 0.9216,-0.52503c0.39947,0.10952 0.63453,0.52212 0.52503,0.9216c-0.10952,0.39947 -0.52212,0.63453 -0.9216,0.52503c-0.39947,-0.10952 -0.63453,-0.52212 -0.52503,-0.9216z" fill="#805132" stroke="none" stroke-width="0.5" stroke-linecap="butt"/><path d="M372.1322,184.45357c0.10952,-0.39947 0.52212,-0.63453 0.9216,-0.52503c0.39947,0.10952 0.63453,0.52212 0.52503,0.9216c-0.10952,0.39947 -0.52212,0.63453 -0.9216,0.52503c-0.39947,-0.10952 -0.63453,-0.52212 -0.52503,-0.9216z" fill="#805132" stroke="none" stroke-width="0.5" stroke-linecap="butt"/><path d="M365.79143,193.08427c0.10952,-0.39947 0.52212,-0.63453 0.9216,-0.52503c0.39947,0.10952 0.63453,0.52212 0.52503,0.9216c-0.10952,0.39947 -0.52212,0.63453 -0.9216,0.52503c-0.39947,-0.10952 -0.63453,-0.52212 -0.52503,-0.9216z" fill="#805132" stroke="none" stroke-width="0.5" stroke-linecap="butt"/><path d="M347.18705,178.99765c0.10952,-0.39947 0.52212,-0.63453 0.9216,-0.52503c0.39947,0.10952 0.63453,0.52212 0.52503,0.9216c-0.10952,0.39947 -0.52212,0.63453 -0.9216,0.52503c-0.39947,-0.10952 -0.63453,-0.52212 -0.52503,-0.9216z" fill="#805132" stroke="none" stroke-width="0.5" stroke-linecap="butt"/><path d="M312.02988,169.18689c0.10952,-0.39947 0.52212,-0.63453 0.9216,-0.52503c0.39947,0.10952 0.63453,0.52212 0.52503,0.9216c-0.10952,0.39947 -0.52212,0.63453 -0.9216,0.52503c-0.39947,-0.10952 -0.63453,-0.52212 -0.52503,-0.9216z" fill="#805132" stroke="none" stroke-width="0.5" stroke-linecap="butt"/></g><g stroke="#000000" stroke-width="0" stroke-linecap="butt"><path d="M303.15634,203.41908c6.58767,0 13.33609,5.40611 13.3961,9.79207c0.06236,4.5586 -8.6435,10.6219 -15.23117,10.6219c-4.6566,0 -6.39768,-2.45043 -7.01829,-6.02372c-0.25736,-1.48183 0.67376,-2.99079 0.67376,-4.76415c0,-2.44542 -0.57297,-4.62557 0.36597,-6.15758c1.38387,-2.25797 3.88887,-3.46852 7.81363,-3.46852z" fill="#821529"/><path d="M344.60122,213.21115c0,1.75991 0.60017,3.09095 0.34765,4.56445c-0.61551,3.59159 -2.35287,6.05745 -7.02411,6.05745c-6.58767,0 -15.29354,-6.06329 -15.23117,-10.6219c0.06,-4.38595 6.80843,-9.79206 13.39609,-9.79206c4.89075,0 7.57684,1.87977 8.63616,5.32367c0.36755,1.19492 -0.12462,2.91007 -0.12462,4.46839z" fill="#821529"/><path d="M330.99191,213.87502c0,4.85804 -3.0026,8.59965 -10.04101,8.79626c-7.20363,0.20122 -10.04101,-3.93822 -10.04101,-8.79626c0,-4.85804 4.49551,-8.79626 10.04101,-8.79626c5.5455,0 10.04101,3.93822 10.04101,8.79626z" fill="#8c162b"/></g></g></g></svg>