<svg version="1.1" xmlns="http://www.w3.org/2000/svg" xmlns:xlink="http://www.w3.org/1999/xlink" width="213.18203" height="281.18476" viewBox="0,0,213.18203,281.18476"><defs><linearGradient x1="321.31883" y1="187.07227" x2="320.7856" y2="244.23177" gradientUnits="userSpaceOnUse" id="color-1"><stop offset="0" stop-color="#d16200"/><stop offset="1" stop-color="#d16200" stop-opacity="0"/></linearGradient></defs><g transform="translate(-214.52362,-38.88751)"><g stroke-miterlimit="10"><path d="M385.04007,137.99717c3.8164,0 6.9102,4.67103 6.9102,10.43305c0,5.76201 -3.0938,10.43305 -6.9102,10.43305c-3.8164,0 -6.91021,-4.67104 -6.91021,-10.43305c0,-5.76201 3.09381,-10.43305 6.91021,-10.43305z" fill="#ffca15" stroke="#000000" stroke-width="2" stroke-linecap="butt"/><path d="M264.34184,148.43022c0,5.76201 -3.09381,10.43305 -6.91021,10.43305c-3.8164,0 -6.9102,-4.67104 -6.9102,-10.43305c0,-5.76201 3.0938,-10.43305 6.9102,-10.43305c3.8164,0 6.91021,4.67103 6.91021,10.43305z" fill="#ffca15" stroke="#000000" stroke-width="2" stroke-linecap="butt"/><path d="M214.52362,306.61252v-267.72501h213.18203v267.72501z" fill="none" stroke="none" stroke-width="0" stroke-linecap="butt"/><g stroke="#000000" stroke-width="0" stroke-linecap="butt"><path d="M286.35186,319.07226l16.37279,-131.8421l37.78472,-0.15789l12.34248,132z" fill="#ffca15"/><path d="M295.72299,243.61117l7.00166,-56.38101l37.78472,-0.15789l5.34462,57.15951z" fill="url(#color-1)"/></g><path d="M286.35186,319.07226l16.37279,-131.8421l37.78472,-0.15789l12.34248,132z" fill="none" stroke="#000000" stroke-width="2" stroke-linecap="butt"/><path d="M255.63037,149.31489c0,-34.00428 29.36652,-61.5702 65.59196,-61.5702c36.22544,0 65.59196,27.56592 65.59196,61.5702c0,34.00428 -29.36651,61.5702 -65.59196,61.5702c-36.22544,0 -65.59196,-27.56592 -65.59196,-61.5702z" fill="#ffca15" stroke="#000000" stroke-width="2" stroke-linecap="butt"/><path d="" fill="none" stroke="#000000" stroke-width="2" stroke-linecap="round"/><path d="M255.91416,169.43181c0,-13.01631 0,-41.76888 0,-48.23592c0,-2.5329 1.02224,-4.94156 2.46594,-4.94156c9.33638,0 105.05249,0 124.65462,0c2.24876,0 3.49579,2.11219 3.49579,4.39959c0,6.15393 0,34.80562 0,48.23592c0,4.25483 -1.88409,6.98192 -4.30876,6.98192c-11.58141,0 -101.0317,0 -121.94473,0c-2.79239,0 -4.36286,-2.49854 -4.36286,-6.43994z" fill="#ffca15" stroke="#000000" stroke-width="2" stroke-linecap="butt"/><path d="M260.11448,166.87587c0,-11.59267 0,-37.20046 0,-42.96016c0,-2.25587 0.95862,-4.40109 2.31246,-4.40109c8.75527,0 98.51396,0 116.89603,0c2.10879,0 3.27821,1.88117 3.27821,3.91839c0,5.48085 0,30.9988 0,42.96017c0,3.78946 -1.76682,6.21828 -4.04058,6.21828c-10.86057,0 -94.74342,0 -114.35481,0c-2.6186,0 -4.09131,-2.22526 -4.09131,-5.73558z" fill="#000000" stroke="#000000" stroke-width="2" stroke-linecap="butt"/><path d="M256.21219,137.1842l-11.11052,-24.11795l-8.94262,7.85866l-1.35494,-24.93092" fill="none" stroke="#000000" stroke-width="2" stroke-linecap="round"/><path d="M232.30412,93.82608c0,-1.38071 1.11929,-2.5 2.5,-2.5c1.38071,0 2.5,1.11929 2.5,2.5c0,1.38071 -1.11929,2.5 -2.5,2.5c-1.38071,0 -2.5,-1.11929 -2.5,-2.5z" fill="#000000" stroke="#000000" stroke-width="4" stroke-linecap="butt"/><path d="M331.79088,198.09279h-21.13709" fill="none" stroke="#000000" stroke-width="2" stroke-linecap="round"/><path d="M275.78631,183.5232c0,-0.41422 0.33578,-0.75 0.75,-0.75c0.41422,0 0.75,0.33578 0.75,0.75c0,0.41422 -0.33578,0.75 -0.75,0.75c-0.41422,0 -0.75,-0.33578 -0.75,-0.75z" fill="#000000" stroke="none" stroke-width="0.5" stroke-linecap="butt"/><path d="M284.18695,182.71023c0,-0.41422 0.33578,-0.75 0.75,-0.75c0.41422,0 0.75,0.33578 0.75,0.75c0,0.41422 -0.33578,0.75 -0.75,0.75c-0.41422,0 -0.75,-0.33578 -0.75,-0.75z" fill="#000000" stroke="none" stroke-width="0.5" stroke-linecap="butt"/><path d="M279.58015,188.67198c0,-0.41422 0.33578,-0.75 0.75,-0.75c0.41422,0 0.75,0.33578 0.75,0.75c0,0.41422 -0.33578,0.75 -0.75,0.75c-0.41422,0 -0.75,-0.33578 -0.75,-0.75z" fill="#000000" stroke="none" stroke-width="0.5" stroke-linecap="butt"/><path d="M286.62584,187.85901c0,-0.41422 0.33578,-0.75 0.75,-0.75c0.41422,0 0.75,0.33578 0.75,0.75c0,0.41422 -0.33578,0.75 -0.75,0.75c-0.41422,0 -0.75,-0.33578 -0.75,-0.75z" fill="#000000" stroke="none" stroke-width="0.5" stroke-linecap="butt"/><path d="M281.74806,193.82075c0,-0.41422 0.33578,-0.75 0.75,-0.75c0.41422,0 0.75,0.33578 0.75,0.75c0,0.41422 -0.33578,0.75 -0.75,0.75c-0.41422,0 -0.75,-0.33578 -0.75,-0.75z" fill="#000000" stroke="none" stroke-width="0.5" stroke-linecap="butt"/><path d="M287.7098,193.00779c0,-0.41422 0.33578,-0.75 0.75,-0.75c0.41422,0 0.75,0.33578 0.75,0.75c0,0.41422 -0.33578,0.75 -0.75,0.75c-0.41422,0 -0.75,-0.33578 -0.75,-0.75z" fill="#000000" stroke="none" stroke-width="0.5" stroke-linecap="butt"/><path d="M289.8777,197.3436c0,-0.41422 0.33578,-0.75 0.75,-0.75c0.41422,0 0.75,0.33578 0.75,0.75c0,0.41422 -0.33578,0.75 -0.75,0.75c-0.41422,0 -0.75,-0.33578 -0.75,-0.75z" fill="#000000" stroke="none" stroke-width="0.5" stroke-linecap="butt"/><path d="M365.90835,184.2732c-0.41422,0 -0.75,-0.33578 -0.75,-0.75c0,-0.41422 0.33578,-0.75 0.75,-0.75c0.41422,0 0.75,0.33578 0.75,0.75c0,0.41422 -0.33578,0.75 -0.75,0.75z" fill="#000000" stroke="none" stroke-width="0.5" stroke-linecap="butt"/><path d="M357.50771,183.46023c-0.41422,0 -0.75,-0.33578 -0.75,-0.75c0,-0.41422 0.33578,-0.75 0.75,-0.75c0.41422,0 0.75,0.33578 0.75,0.75c0,0.41422 -0.33578,0.75 -0.75,0.75z" fill="#000000" stroke="none" stroke-width="0.5" stroke-linecap="butt"/><path d="M362.11452,189.42198c-0.41422,0 -0.75,-0.33578 -0.75,-0.75c0,-0.41422 0.33578,-0.75 0.75,-0.75c0.41422,0 0.75,0.33578 0.75,0.75c0,0.41422 -0.33578,0.75 -0.75,0.75z" fill="#000000" stroke="none" stroke-width="0.5" stroke-linecap="butt"/><path d="M355.06882,188.60901c-0.41422,0 -0.75,-0.33578 -0.75,-0.75c0,-0.41422 0.33578,-0.75 0.75,-0.75c0.41422,0 0.75,0.33578 0.75,0.75c0,0.41422 -0.33578,0.75 -0.75,0.75z" fill="#000000" stroke="none" stroke-width="0.5" stroke-linecap="butt"/><path d="M359.94661,194.57075c-0.41422,0 -0.75,-0.33578 -0.75,-0.75c0,-0.41422 0.33578,-0.75 0.75,-0.75c0.41422,0 0.75,0.33578 0.75,0.75c0,0.41422 -0.33578,0.75 -0.75,0.75z" fill="#000000" stroke="none" stroke-width="0.5" stroke-linecap="butt"/><path d="M353.98487,193.75779c-0.41422,0 -0.75,-0.33578 -0.75,-0.75c0,-0.41422 0.33578,-0.75 0.75,-0.75c0.41422,0 0.75,0.33578 0.75,0.75c0,0.41422 -0.33578,0.75 -0.75,0.75z" fill="#000000" stroke="none" stroke-width="0.5" stroke-linecap="butt"/><path d="M351.81696,198.0936c-0.41422,0 -0.75,-0.33578 -0.75,-0.75c0,-0.41422 0.33578,-0.75 0.75,-0.75c0.41422,0 0.75,0.33578 0.75,0.75c0,0.41422 -0.33578,0.75 -0.75,0.75z" fill="#000000" stroke="none" stroke-width="0.5" stroke-linecap="butt"/><path d="M263.63023,171.39153v-7.46237h12.79264v7.46237z" fill="#00ffe8" stroke="none" stroke-width="0" stroke-linecap="butt"/><path d="M276.42287,171.39153v-11.9398h12.79264v11.9398z" fill="#000000" stroke="none" stroke-width="0" stroke-linecap="butt"/><path d="M289.21552,171.39153v-15.85754h12.79264v15.85754z" fill="#000000" stroke="none" stroke-width="0" stroke-linecap="butt"/><path d="M302.00816,171.39153v-20.25501h12.79264v20.25501z" fill="#000000" stroke="none" stroke-width="0" stroke-linecap="butt"/><path d="M314.8008,171.39153v-24.73244h12.79264v24.73244z" fill="#000000" stroke="none" stroke-width="0" stroke-linecap="butt"/><path d="M327.59344,171.39153v-29.20987h12.79264v29.20987z" fill="#000000" stroke="none" stroke-width="0" stroke-linecap="butt"/><path d="M340.38608,171.39153v-33.12761h12.79264v33.12761z" fill="#000000" stroke="none" stroke-width="0" stroke-linecap="butt"/><path d="M353.17872,171.39153v-37.52508h12.79264v37.52508z" fill="#000000" stroke="none" stroke-width="0" stroke-linecap="butt"/><path d="M365.97136,171.39153v-41.57608h12.79264v41.57608z" fill="#000000" stroke="none" stroke-width="0" stroke-linecap="butt"/></g></g></svg>