<svg version="1.1" xmlns="http://www.w3.org/2000/svg" xmlns:xlink="http://www.w3.org/1999/xlink" width="294.93246" height="284.83352" viewBox="0,0,294.93246,284.83352"><defs><linearGradient x1="370.88402" y1="146.41067" x2="376.06638" y2="222.3142" gradientUnits="userSpaceOnUse" id="color-1"><stop offset="0" stop-color="#b19380"/><stop offset="1" stop-color="#b19380" stop-opacity="0"/></linearGradient><linearGradient x1="286.30746" y1="190.72108" x2="289.77612" y2="247.88058" gradientUnits="userSpaceOnUse" id="color-2"><stop offset="0" stop-color="#4f0000"/><stop offset="1" stop-color="#4f0000" stop-opacity="0"/></linearGradient></defs><g transform="translate(-173.9086,-38.88752)"><g stroke-miterlimit="10"><path d="M173.9086,306.61253v-267.72501h294.93246v267.72501z" fill="none" stroke="none" stroke-width="0" stroke-linecap="butt"/><g stroke="#000000" stroke-linecap="butt"><path d="M356.46147,321.69675l-0.10764,-175.07642l29.54241,-0.20967l22.58621,175.2861z" fill="#fff5ef" stroke-width="0"/><path d="M356.58283,294.0751l0.7599,-22.98527l43.90531,-0.02753l3.05455,23.0128z" fill="#cab2a4" stroke-width="0"/><path d="M356.39987,221.49009l-0.04603,-74.86975l29.54241,-0.20967l9.78044,75.90354z" fill="url(#color-1)" stroke-width="0"/><path d="M356.88405,252.28847l0.7599,-22.98527l39.0306,-0.02753l3.05455,23.0128z" fill="#cab2a4" stroke-width="0"/><path d="M356.43786,212.15442l-0.10035,-22.98527l35.01613,-0.02753l2.7678,23.0128z" fill="#cab2a4" stroke-width="0"/><path d="M356.46147,321.69675l-0.10764,-175.07642l29.54241,-0.20967l22.58621,175.2861z" fill="none" stroke-width="2"/></g><path d="" fill="none" stroke="#000000" stroke-width="2" stroke-linecap="round"/><path d="" fill="none" stroke="#000000" stroke-width="2" stroke-linecap="round"/><path d="M311.6746,118.38303c1.91522,-33.24674 32.18009,-58.54453 67.5985,-56.50421c35.41841,2.04032 62.57811,30.64611 60.6629,63.89284c-1.91522,33.24674 -32.18008,58.54454 -67.59849,56.50423c-35.4184,-2.04032 -62.57811,-30.64612 -60.66291,-63.89286z" fill="#fff5ef" stroke="#000000" stroke-width="2" stroke-linecap="butt"/><path d="M343.1962,154.67548c0,0 14.13105,6.99017 21.84599,8.7727c8.34575,1.92828 26.48495,2.39415 26.48495,2.39415c0,0 -29.36414,6.34894 -36.5973,4.67772c-14.31115,-0.7819 -11.73364,-15.84457 -11.73364,-15.84457z" fill="#000202" stroke="#000000" stroke-width="2" stroke-linecap="round"/><g stroke="#000000" stroke-linecap="butt"><path d="M251.12056,322.72103l11.38912,-131.8421l48.37082,-0.15789l25.39145,132z" fill="#a20000" stroke-width="0"/><path d="M257.6391,247.25998l4.87044,-56.38101l48.37082,-0.15789l10.99519,57.15951z" fill="url(#color-2)" stroke-width="0"/><path d="M251.35177,322.72103l11.38912,-131.8421l48.37082,-0.15789l25.39145,132z" fill="none" stroke-width="2"/></g><g stroke-linecap="butt"><g fill="#a20000" stroke="#000000" stroke-width="2"><path d="M326.9197,132.10307c0,0 56.62941,-14.59327 63.51542,-16.36778c1.3373,-0.34462 1.50869,0.57898 0.43825,2.02298c-4.88845,6.59455 -40.81993,55.06619 -40.81993,55.06619z"/><path d="M345.77607,200.86447c0,0 2.21514,30.6831 2.59985,36.01221c0.10977,1.52038 -1.17136,2.65003 -2.26756,2.3237c-4.83996,-1.44081 -38.85165,-11.6964 -38.85165,-11.6964z"/><path d="M230.62054,170.97233c0,0 -34.41118,-49.5625 -39.09281,-56.30547c-1.02514,-1.47652 -0.82516,-2.39434 0.5008,-2.00842c6.82764,1.98717 62.97734,18.32942 62.97734,18.32942z"/><path d="M271.47,226.94902c0,0 -34.31335,9.196 -39.19566,10.48606c-1.10579,0.29218 -2.35129,-0.87664 -2.19443,-2.39289c0.54979,-5.31462 3.71529,-35.91427 3.71529,-35.91427z"/><path d="M226.11133,173.6207c0.51638,-33.29784 29.69141,-59.84512 65.16426,-59.29501c35.47288,0.5501 63.8107,27.98928 63.29433,61.28714c-0.51637,33.29784 -29.6914,59.84512 -65.16426,59.29504c-35.47286,-0.5501 -63.8107,-27.98929 -63.29432,-61.28712z"/></g><path d="M239.6454,174.05559c0.04262,-2.58175 0.50036,-5.05928 1.30857,-7.37005c0.13959,-0.39909 5.8181,23.85613 23.09024,21.99166c19.85687,-2.14349 20.5034,-24.51241 21.55063,-21.06396c0.69258,2.2806 1.04692,4.70626 1.00546,7.21751c-0.21404,12.96623 -10.89878,23.30394 -23.86503,23.08989c-12.96625,-0.21405 -23.30395,-10.89879 -23.08989,-23.86503z" fill="#000000" stroke="#000000" stroke-width="2"/><path d="M239.48626,173.25362l-8.14411,-2.70496l8.5988,-3.29056z" fill="#000000" stroke="#000000" stroke-width="0"/><path d="M317.09819,198.79085c-12.96646,-0.20108 -23.31481,-10.87548 -23.11375,-23.84192c0.04009,-2.5858 0.49672,-5.06747 1.30496,-7.38213c1.70843,-4.89261 6.60144,21.37696 20.68961,23.78851c21.70486,3.71535 21.61548,-28.88544 23.24481,-24.87754c1.15288,2.8359 1.76675,5.94545 1.7163,9.19931c-0.20108,12.96645 -10.87547,23.31483 -23.84193,23.11376z" fill="#000000" stroke="#000000" stroke-width="2"/><path d="M252.81544,145.49855c0,0 6.78829,-5.06456 11.89445,-6.17987c5.10617,-1.1153 12.32182,0.89055 12.32182,0.89055c0,0 -8.03621,-0.18491 -11.97954,0.6764c-4.12095,0.90009 -12.2367,4.61293 -12.2367,4.61293z" fill="#000000" stroke="none" stroke-width="0"/><path d="M316.81671,141.6884c-3.9147,-0.98316 -11.9528,-1.04754 -11.9528,-1.04754c0,0 7.27434,-1.78113 12.34348,-0.50803c5.06914,1.27309 11.69712,6.54572 11.69712,6.54572c0,0 -7.99677,-3.96268 -12.0878,-4.99014z" fill="#000000" stroke="none" stroke-width="0"/><path d="M340.86231,168.87362l8.48909,3.56409l-8.22652,2.44292z" fill="#000000" stroke="#000000" stroke-width="0"/></g><path d="M304.498,233.50001c0,0 -14.22547,0.30983 -19.26197,-0.72506c-6.66691,-1.36991 -17.23803,-6.77494 -17.23803,-6.77494" fill="none" stroke="#000000" stroke-width="2" stroke-linecap="round"/></g></g></svg>