<svg version="1.1" xmlns="http://www.w3.org/2000/svg" xmlns:xlink="http://www.w3.org/1999/xlink" width="223.39816" height="280.18477" viewBox="0,0,223.39816,280.18477"><defs><linearGradient x1="363.39596" y1="65.32402" x2="367.85643" y2="104.22712" gradientUnits="userSpaceOnUse" id="color-1"><stop offset="0" stop-color="#000000" stop-opacity="0"/><stop offset="1" stop-color="#000000" stop-opacity="0.12941"/></linearGradient><linearGradient x1="244.06154" y1="79.00642" x2="248.522" y2="117.90953" gradientUnits="userSpaceOnUse" id="color-2"><stop offset="0" stop-color="#000000" stop-opacity="0"/><stop offset="1" stop-color="#000000" stop-opacity="0.12941"/></linearGradient></defs><g transform="translate(-204.3075,-38.88751)"><g stroke-miterlimit="10"><g stroke-linecap="round"><path d="M323.41303,98.7873l49.49439,-52.62448l-1.69983,85.27024" fill="#a9a9a9" stroke="#000000" stroke-width="0"/><path d="M361.6777,104.93555c0,0 1.59071,-14.19541 2.93142,-21.04082c1.28961,-6.58444 4.96555,-19.27914 4.96555,-19.27914" fill="none" stroke="url(#color-1)" stroke-width="2"/></g><g stroke-linecap="butt"><g><g><g><path d="M283.90721,319.07226l16.25621,-128.78993l40.56121,-0.15423l14.57189,128.94418z" fill="#ffffff" stroke="#000000" stroke-width="0"/><path d="M293.23152,245.20038c2.48159,-19.66042 6.93191,-54.91804 6.93191,-54.91804l40.56121,-0.15423c0,0 4.00019,35.39708 6.22765,55.10741c0.07297,0.64569 -53.81986,0.74992 -53.72077,-0.03514z" fill="#c5c5c5" stroke="#000000" stroke-width="0"/><path d="M294.56973,234.59838c2.16269,-17.13392 5.59369,-44.31605 5.59369,-44.31605l40.56121,-0.15423c0,0 5.00591,44.06979 5.06361,44.58023c0.00362,0.03203 -51.24761,0.12057 -51.21851,-0.10994z" fill="#7e7e7e" stroke="#000000" stroke-width="0"/><path d="M296.14093,222.15046c1.70436,-13.50276 4.02248,-31.86813 4.02248,-31.86813l40.56121,-0.15423c0,0 2.09617,18.54869 3.63254,32.14373c0.00764,0.06759 -48.23002,-0.0122 -48.21623,-0.12135z" fill="#424242" stroke="#000000" stroke-width="0"/><path d="M295.875,222.45635c0,-0.94413 0.84111,-1.70949 1.87867,-1.70949c1.03756,0 1.87867,0.76536 1.87867,1.70949c0,0.94413 -0.84111,1.70949 -1.87867,1.70949c-1.03756,0 -1.87867,-0.76536 -1.87867,-1.70949z" fill="#424242" stroke="none" stroke-width="0.5"/><path d="M305.98402,220.09563c1.03756,0 1.87867,0.76536 1.87867,1.70949c0,0.94413 -0.84111,1.70949 -1.87867,1.70949c-0.32388,0 -0.62862,-0.07458 -0.8946,-0.20589c-0.26599,0.13131 -0.57072,0.20589 -0.8946,0.20589c-1.03756,0 -1.87867,-0.76536 -1.87867,-1.70949c0,-0.94413 0.84111,-1.70949 1.87867,-1.70949c0.32388,0 0.62862,0.07458 0.8946,0.20589c0.26599,-0.13131 0.57072,-0.20589 0.8946,-0.20589z" fill="#424242" stroke="none" stroke-width="0.5"/><path d="M307.68376,222.94478c0,-0.51857 0.35525,-0.96162 0.85638,-1.13867c0.28119,-0.62162 0.95341,-1.05924 1.73797,-1.05924c0.44568,0 0.85512,0.14121 1.17721,0.37716c0.22448,-0.21355 0.5333,-0.35309 0.87779,-0.37433c0.24469,-0.10619 0.51859,-0.16563 0.80774,-0.16563c0.66418,0 1.24784,0.31362 1.58192,0.78699c0.2111,-0.73392 0.94484,-1.27541 1.81756,-1.27541c1.03756,0 1.87867,0.76536 1.87867,1.70949c0,0.94413 -0.84111,1.70949 -1.87867,1.70949c-0.66418,0 -1.24784,-0.31362 -1.58192,-0.78699c-0.2111,0.73392 -0.94484,1.27541 -1.81756,1.27541c-0.53275,0 -1.0137,-0.20178 -1.35559,-0.52594c-0.34248,0.41802 -0.89007,0.68874 -1.50714,0.68874c-0.24028,0 -0.47001,-0.04104 -0.6812,-0.11584c-0.17332,0.0743 -0.36696,0.11584 -0.57124,0.11584c-0.74112,0 -1.34191,-0.54668 -1.34191,-1.22106z" fill="#424242" stroke="none" stroke-width="0.5"/><path d="M333.89564,219.77002c1.03756,0 1.87867,0.76536 1.87867,1.70949c0,0.94413 -0.84111,1.70949 -1.87867,1.70949c-0.63269,0 -1.19233,-0.2846 -1.53274,-0.72077c-0.47787,0.88358 -1.68782,0.88358 -1.68782,0.88358h-2.68381c0,0 -0.92947,0 -1.48086,-0.5949c-0.33722,0.45698 -0.91041,0.75771 -1.56079,0.75771c-0.52567,0 -1.00092,-0.19645 -1.34191,-0.51309c-0.34098,0.31664 -0.81624,0.51309 -1.34191,0.51309c-1.03756,0 -1.87867,-0.76536 -1.87867,-1.70949c0,-0.94413 0.84111,-1.70949 1.87867,-1.70949c0.52567,0 1.00092,0.19645 1.34191,0.51309c0.34098,-0.31664 0.81624,-0.51309 1.34191,-0.51309c0.57155,0 1.08349,0.23225 1.42806,0.5987c0.51781,-0.7615 1.61359,-0.7615 1.61359,-0.7615h2.68381c0,0 1.04946,0 1.57961,0.71373c0.32129,-0.52297 0.93574,-0.87654 1.64096,-0.87654z" fill="#424242" stroke="none" stroke-width="0.5"/><path d="M340.24732,223.4332c0,0.67438 -0.60079,1.22106 -1.34191,1.22106c-0.58429,0 -1.08136,-0.3398 -1.26557,-0.81408c-1.03152,-0.00642 -1.86555,-0.7693 -1.86555,-1.70944c0,-0.94413 0.84111,-1.70949 1.87867,-1.70949c0.78179,0 1.45204,0.43452 1.73499,1.05264c0.1695,-0.7856 0.93041,-1.37826 1.84343,-1.37826c0.41234,0 0.79367,0.12089 1.1035,0.32583c1.02374,0.01457 1.84869,0.77426 1.84869,1.70928c0,0.94413 -0.84111,1.70949 -1.87867,1.70949c-0.41234,0 -0.79367,-0.12089 -1.1035,-0.32584c-0.35557,-0.00506 -0.68716,-0.1 -0.96854,-0.26097c0.00953,0.05867 0.01444,0.1187 0.01444,0.17977z" fill="#424242" stroke="none" stroke-width="0.5"/><path d="M294.9804,234.82979c0,-0.94413 0.84111,-1.70949 1.87867,-1.70949c1.03756,0 1.87867,0.76536 1.87867,1.70949c0,0.94413 -0.84111,1.70949 -1.87867,1.70949c-1.03756,0 -1.87867,-0.76536 -1.87867,-1.70949z" fill="#7e7e7e" stroke="none" stroke-width="0.5"/><path d="M299.27449,234.17855c0,-0.94413 0.84111,-1.70949 1.87867,-1.70949c1.03756,0 1.87867,0.76536 1.87867,1.70949c0,0.94413 -0.84111,1.70949 -1.87867,1.70949c-1.03756,0 -1.87867,-0.76536 -1.87867,-1.70949z" fill="#7e7e7e" stroke="none" stroke-width="0.5"/><path d="M309.3835,232.30625c1.03756,0 1.87867,0.76536 1.87867,1.70949c0,0.94413 -0.84111,1.70949 -1.87867,1.70949c-0.64775,0 -1.21895,-0.29831 -1.55671,-0.75218c-0.31437,0.54401 -0.94151,0.915 -1.66387,0.915c-1.03756,0 -1.87867,-0.76536 -1.87867,-1.70949c0,-0.94413 0.84111,-1.70949 1.87867,-1.70949c0.64775,0 1.21894,0.29831 1.5567,0.75219c0.31437,-0.54401 0.94151,-0.915 1.66388,-0.915z" fill="#7e7e7e" stroke="none" stroke-width="0.5"/><path d="M313.94598,234.82979c0,-0.94413 0.84111,-1.70949 1.87867,-1.70949c1.03756,0 1.87867,0.76536 1.87867,1.70949c0,0.94413 -0.84111,1.70949 -1.87867,1.70949c-1.03756,0 -1.87867,-0.76536 -1.87867,-1.70949z" fill="#7e7e7e" stroke="none" stroke-width="0.5"/><path d="M322.35525,234.82979c0,-0.94413 0.84111,-1.70949 1.87867,-1.70949c1.03756,0 1.87867,0.76536 1.87867,1.70949c0,0.94413 -0.84111,1.70949 -1.87867,1.70949c-1.03756,0 -1.87867,-0.76536 -1.87867,-1.70949z" fill="#7e7e7e" stroke="none" stroke-width="0.5"/><path d="M328.43855,234.66698c0,-0.94413 0.84111,-1.70949 1.87867,-1.70949c1.03756,0 1.87867,0.76536 1.87867,1.70949c0,0.94413 -0.84111,1.70949 -1.87867,1.70949c-1.03756,0 -1.87867,-0.76536 -1.87867,-1.70949z" fill="#7e7e7e" stroke="none" stroke-width="0.5"/><path d="M332.37481,234.66698c0,-0.94413 0.84111,-1.70949 1.87867,-1.70949c1.03756,0 1.87867,0.76536 1.87867,1.70949c0,0.94413 -0.84111,1.70949 -1.87867,1.70949c-1.03756,0 -1.87867,-0.76536 -1.87867,-1.70949z" fill="#7e7e7e" stroke="none" stroke-width="0.5"/><path d="M343.37842,232.95749c1.03756,0 1.87867,0.76536 1.87867,1.70949c0,0.94413 -0.84111,1.70949 -1.87867,1.70949c-0.15414,0 -0.30394,-0.01689 -0.4473,-0.04874c-0.14335,0.03186 -0.29316,0.04874 -0.4473,0.04874c-0.48115,0 -0.92007,-0.1646 -1.25244,-0.43529c-0.33237,0.27069 -0.77128,0.43529 -1.25244,0.43529c-0.28813,0 -0.56112,-0.05902 -0.80514,-0.16451c-0.24402,0.10549 -0.51701,0.16451 -0.80514,0.16451c-1.03756,0 -1.87867,-0.76536 -1.87867,-1.70949c0,-0.94413 0.84111,-1.70949 1.87867,-1.70949c0.28813,0 0.56112,0.05902 0.80514,0.16451c0.24402,-0.10549 0.51701,-0.16451 0.80514,-0.16451c0.48115,0 0.92007,0.1646 1.25244,0.43529c0.33237,-0.27069 0.77128,-0.43529 1.25244,-0.43529c0.15414,0 0.30394,0.0169 0.4473,0.04875c0.14335,-0.03186 0.29316,-0.04875 0.4473,-0.04875z" fill="#7e7e7e" stroke="none" stroke-width="0.5"/><path d="M317.70332,234.99259c0,-0.94413 0.84111,-1.70949 1.87867,-1.70949c1.03756,0 1.87867,0.76536 1.87867,1.70949c0,0.94413 -0.84111,1.70949 -1.87867,1.70949c-1.03756,0 -1.87867,-0.76536 -1.87867,-1.70949z" fill="#7e7e7e" stroke="none" stroke-width="0.5"/><path d="M293.01227,245.73794c0,-0.94413 0.84111,-1.70949 1.87867,-1.70949c1.03756,0 1.87867,0.76536 1.87867,1.70949c0,0.94413 -0.84111,1.70949 -1.87867,1.70949c-1.03756,0 -1.87867,-0.76536 -1.87867,-1.70949z" fill="#c5c5c5" stroke="none" stroke-width="0.5"/><path d="M342.93113,245.90075c0,-0.94413 0.84111,-1.70949 1.87867,-1.70949c1.03756,0 1.87867,0.76536 1.87867,1.70949c0,0.94413 -0.84111,1.70949 -1.87867,1.70949c-1.03756,0 -1.87867,-0.76536 -1.87867,-1.70949z" fill="#c5c5c5" stroke="none" stroke-width="0.5"/><path d="M336.48998,245.73794c0,-0.94413 0.84111,-1.70949 1.87867,-1.70949c0.39915,0 0.76922,0.11327 1.07352,0.30641c0.3043,-0.19314 0.67438,-0.30641 1.07352,-0.30641c1.03756,0 1.87867,0.76536 1.87867,1.70949c0,0.94413 -0.84111,1.70949 -1.87867,1.70949c-0.39915,0 -0.76922,-0.11327 -1.07352,-0.30641c-0.3043,0.19314 -0.67438,0.30641 -1.07352,0.30641c-1.03756,0 -1.87867,-0.76536 -1.87867,-1.70949z" fill="#c5c5c5" stroke="none" stroke-width="0.5"/><path d="M332.55373,246.06356c0,-0.94413 0.84111,-1.70949 1.87867,-1.70949c1.03756,0 1.87867,0.76536 1.87867,1.70949c0,0.94413 -0.84111,1.70949 -1.87867,1.70949c-1.03756,0 -1.87867,-0.76536 -1.87867,-1.70949z" fill="#c5c5c5" stroke="none" stroke-width="0.5"/><path d="M327.18611,246.06356c0,-0.94413 0.84111,-1.70949 1.87867,-1.70949c1.03756,0 1.87867,0.76536 1.87867,1.70949c0,0.94413 -0.84111,1.70949 -1.87867,1.70949c-1.03756,0 -1.87867,-0.76536 -1.87867,-1.70949z" fill="#c5c5c5" stroke="none" stroke-width="0.5"/><path d="M319.67793,245.43317c0.15601,-1.70358 2.0282,-1.56161 2.0282,-1.56161l2.14705,0.1628c0,0 1.87217,0.14197 1.71615,1.84555c-0.15601,1.70358 -2.02819,1.56161 -2.02819,1.56161l-2.14705,-0.1628c0,0 -1.87219,-0.14197 -1.71616,-1.84555z" fill="#c5c5c5" stroke="none" stroke-width="0.5"/><path d="M305.98402,243.70284c0.26379,0 0.51489,0.04948 0.74269,0.13878c0.26522,-0.65138 0.95413,-1.11563 1.76221,-1.11563c0.62535,0 1.17935,0.27803 1.52083,0.70567c0.34148,-0.42764 0.89547,-0.70567 1.52083,-0.70567c0.57901,0 1.09683,0.23834 1.44145,0.61309c0.21786,-0.08038 0.45605,-0.12467 0.7056,-0.12467c1.03756,0 1.87867,0.76536 1.87867,1.70949c0,0.94413 -0.84111,1.70949 -1.87867,1.70949c-0.57901,0 -1.09683,-0.23834 -1.44145,-0.61309c-0.21786,0.08038 -0.45605,0.12467 -0.7056,0.12467c-0.62535,0 -1.17935,-0.27803 -1.52083,-0.70567c-0.34148,0.42764 -0.89547,0.70567 -1.52083,0.70567c-0.26379,0 -0.51489,-0.04948 -0.74269,-0.13878c-0.26522,0.65138 -0.95413,1.11563 -1.76221,1.11563c-0.85706,0 -1.58007,-0.52222 -1.80568,-1.23606c-0.33034,0.26279 -0.76272,0.42202 -1.23596,0.42202c-0.32388,0 -0.62862,-0.07458 -0.8946,-0.20589c-0.26599,0.13131 -0.57072,0.20589 -0.8946,0.20589c-0.23155,0 -0.45332,-0.03813 -0.65814,-0.10784c-0.31305,0.54776 -0.94243,0.92188 -1.66783,0.92188c-1.03756,0 -1.87867,-0.76536 -1.87867,-1.70949c0,-0.94413 0.84111,-1.70949 1.87867,-1.70949c0.23155,0 0.45332,0.03813 0.65814,0.10784c0.31305,-0.54776 0.94243,-0.92188 1.66783,-0.92188c0.32388,0 0.62862,0.07458 0.8946,0.20589c0.26599,-0.13131 0.57072,-0.20589 0.8946,-0.20589c0.85706,0 1.58007,0.52222 1.80568,1.23606c0.33034,-0.26279 0.76272,-0.42202 1.23596,-0.42202z" fill="#c5c5c5" stroke="none" stroke-width="0.5"/><path d="M300.34802,227.01499c0,-0.67438 0.60079,-1.22106 1.34191,-1.22106c0.74112,0 1.34191,0.54668 1.34191,1.22106c0,0.67438 -0.60079,1.22106 -1.34191,1.22106c-0.74112,0 -1.34191,-0.54668 -1.34191,-1.22106z" fill="#424242" stroke="none" stroke-width="0.5"/><path d="M315.91412,224.89848c0,-0.67438 0.60079,-1.22106 1.34191,-1.22106c0.74112,0 1.34191,0.54668 1.34191,1.22106c0,0.67438 -0.60079,1.22106 -1.34191,1.22106c-0.74112,0 -1.34191,-0.54668 -1.34191,-1.22106z" fill="#424242" stroke="none" stroke-width="0.5"/><path d="M319.13468,226.03814c0,-0.67438 0.60079,-1.22106 1.34191,-1.22106c0.74112,0 1.34191,0.54668 1.34191,1.22106c0,0.67438 -0.60079,1.22106 -1.34191,1.22106c-0.74112,0 -1.34191,-0.54668 -1.34191,-1.22106z" fill="#424242" stroke="none" stroke-width="0.5"/><path d="M325.03906,227.66622c0,-0.67438 0.60079,-1.22106 1.34191,-1.22106c0.74112,0 1.34191,0.54668 1.34191,1.22106c0,0.67438 -0.60079,1.22106 -1.34191,1.22106c-0.74112,0 -1.34191,-0.54668 -1.34191,-1.22106z" fill="#424242" stroke="none" stroke-width="0.5"/><path d="M328.08071,227.50341c0,-0.67438 0.60079,-1.22106 1.34191,-1.22106c0.74112,0 1.34191,0.54668 1.34191,1.22106c0,0.67438 -0.60079,1.22106 -1.34191,1.22106c-0.74112,0 -1.34191,-0.54668 -1.34191,-1.22106z" fill="#424242" stroke="none" stroke-width="0.5"/><path d="M332.73265,225.54971c0,-0.67438 0.60079,-1.22106 1.34191,-1.22106c0.74112,0 1.34191,0.54668 1.34191,1.22106c0,0.67438 -0.60079,1.22106 -1.34191,1.22106c-0.74112,0 -1.34191,-0.54668 -1.34191,-1.22106z" fill="#424242" stroke="none" stroke-width="0.5"/><path d="M297.84313,240.20246c0,-0.67438 0.60079,-1.22106 1.34191,-1.22106c0.74112,0 1.34191,0.54668 1.34191,1.22106c0,0.67438 -0.60079,1.22106 -1.34191,1.22106c-0.74112,0 -1.34191,-0.54668 -1.34191,-1.22106z" fill="#7e7e7e" stroke="none" stroke-width="0.5"/><path d="M311.79893,236.29506c0,-0.67438 0.60079,-1.22106 1.34191,-1.22106c0.74112,0 1.34191,0.54668 1.34191,1.22106c0,0.67438 -0.60079,1.22106 -1.34191,1.22106c-0.74112,0 -1.34191,-0.54668 -1.34191,-1.22106z" fill="#7e7e7e" stroke="none" stroke-width="0.5"/><path d="M317.88224,235.64383c0,-0.67438 0.60079,-1.22106 1.34191,-1.22106c0.74112,0 1.34191,0.54668 1.34191,1.22106c0,0.67438 -0.60079,1.22106 -1.34191,1.22106c-0.74112,0 -1.34191,-0.54668 -1.34191,-1.22106z" fill="#7e7e7e" stroke="none" stroke-width="0.5"/><path d="M325.93367,238.24876c0,-0.67438 0.60079,-1.22106 1.34191,-1.22106c0.74112,0 1.34191,0.54668 1.34191,1.22106c0,0.67438 -0.60079,1.22106 -1.34191,1.22106c-0.74112,0 -1.34191,-0.54668 -1.34191,-1.22106z" fill="#7e7e7e" stroke="none" stroke-width="0.5"/><path d="M337.38458,239.87684c0,-0.67438 0.60079,-1.22106 1.34191,-1.22106c0.74112,0 1.34191,0.54668 1.34191,1.22106c0,0.67438 -0.60079,1.22106 -1.34191,1.22106c-0.74112,0 -1.34191,-0.54668 -1.34191,-1.22106z" fill="#7e7e7e" stroke="none" stroke-width="0.5"/><path d="M341.49975,240.20246c0,-0.67438 0.60079,-1.22106 1.34191,-1.22106c0.74112,0 1.34191,0.54668 1.34191,1.22106c0,0.67438 -0.60079,1.22106 -1.34191,1.22106c-0.74112,0 -1.34191,-0.54668 -1.34191,-1.22106z" fill="#7e7e7e" stroke="none" stroke-width="0.5"/><path d="M304.46319,238.57438c0,-0.67438 0.60079,-1.22106 1.34191,-1.22106c0.74112,0 1.34191,0.54668 1.34191,1.22106c0,0.67438 -0.60079,1.22106 -1.34191,1.22106c-0.74112,0 -1.34191,-0.54668 -1.34191,-1.22106z" fill="#7e7e7e" stroke="none" stroke-width="0.5"/><path d="M294.44364,250.94781c0,-0.67438 0.60079,-1.22106 1.34191,-1.22106c0.74112,0 1.34191,0.54668 1.34191,1.22106c0,0.67438 -0.60079,1.22106 -1.34191,1.22106c-0.74112,0 -1.34191,-0.54668 -1.34191,-1.22106z" fill="#c5c5c5" stroke="none" stroke-width="0.5"/><path d="M305.53671,249.97096c0,-0.67438 0.60079,-1.22106 1.34191,-1.22106c0.74112,0 1.34191,0.54668 1.34191,1.22106c0,0.67438 -0.60079,1.22106 -1.34191,1.22106c-0.74112,0 -1.34191,-0.54668 -1.34191,-1.22106z" fill="#c5c5c5" stroke="none" stroke-width="0.5"/><path d="M310.18865,248.01726c0,-0.67438 0.60079,-1.22106 1.34191,-1.22106c0.74112,0 1.34191,0.54668 1.34191,1.22106c0,0.67438 -0.60079,1.22106 -1.34191,1.22106c-0.74112,0 -1.34191,-0.54668 -1.34191,-1.22106z" fill="#c5c5c5" stroke="none" stroke-width="0.5"/><path d="M316.98764,246.38917c0,-0.67438 0.60079,-1.22106 1.34191,-1.22106c0.74112,0 1.34191,0.54668 1.34191,1.22106c0,0.67438 -0.60079,1.22106 -1.34191,1.22106c-0.74112,0 -1.34191,-0.54668 -1.34191,-1.22106z" fill="#c5c5c5" stroke="none" stroke-width="0.5"/><path d="M333.2694,251.43623c0,-0.67438 0.60079,-1.22106 1.34191,-1.22106c0.74112,0 1.34191,0.54668 1.34191,1.22106c0,0.67438 -0.60079,1.22106 -1.34191,1.22106c-0.74112,0 -1.34191,-0.54668 -1.34191,-1.22106z" fill="#c5c5c5" stroke="none" stroke-width="0.5"/><path d="M343.28897,251.11061c0,-0.67438 0.60079,-1.22106 1.34191,-1.22106c0.74112,0 1.34191,0.54668 1.34191,1.22106c0,0.67438 -0.60079,1.22106 -1.34191,1.22106c-0.74112,0 -1.34191,-0.54668 -1.34191,-1.22106z" fill="#c5c5c5" stroke="none" stroke-width="0.5"/><path d="M342.57328,246.22636c0,-0.67438 0.60079,-1.22106 1.34191,-1.22106c0.74112,0 1.34191,0.54668 1.34191,1.22106c0,0.67438 -0.60079,1.22106 -1.34191,1.22106c-0.74112,0 -1.34191,-0.54668 -1.34191,-1.22106z" fill="#c5c5c5" stroke="none" stroke-width="0.5"/><path d="M301.24262,231.57361c0,-0.40463 0.36047,-0.73264 0.80514,-0.73264c0.44468,0 0.80514,0.32801 0.80514,0.73264c0,0.40463 -0.36047,0.73264 -0.80514,0.73264c-0.44468,0 -0.80514,-0.32801 -0.80514,-0.73264z" fill="#424242" stroke="none" stroke-width="0.5"/><path d="M309.47298,228.80588c0,-0.40463 0.36047,-0.73264 0.80514,-0.73264c0.44468,0 0.80514,0.32801 0.80514,0.73264c0,0.40463 -0.36047,0.73264 -0.80514,0.73264c-0.44468,0 -0.80514,-0.32801 -0.80514,-0.73264z" fill="#424242" stroke="none" stroke-width="0.5"/><path d="M318.06116,231.41081c0,-0.40463 0.36047,-0.73264 0.80514,-0.73264c0.44468,0 0.80514,0.32801 0.80514,0.73264c0,0.40463 -0.36047,0.73264 -0.80514,0.73264c-0.44468,0 -0.80514,-0.32801 -0.80514,-0.73264z" fill="#424242" stroke="none" stroke-width="0.5"/><path d="M323.42878,232.06204c0,-0.40463 0.36047,-0.73264 0.80514,-0.73264c0.44468,0 0.80514,0.32801 0.80514,0.73264c0,0.40463 -0.36047,0.73264 -0.80514,0.73264c-0.44468,0 -0.80514,-0.32801 -0.80514,-0.73264z" fill="#424242" stroke="none" stroke-width="0.5"/><path d="M330.40668,231.89924c0,-0.40463 0.36047,-0.73264 0.80514,-0.73264c0.44468,0 0.80514,0.32801 0.80514,0.73264c0,0.40463 -0.36047,0.73264 -0.80514,0.73264c-0.44468,0 -0.80514,-0.32801 -0.80514,-0.73264z" fill="#424242" stroke="none" stroke-width="0.5"/><path d="M342.93113,231.248c0,-0.40463 0.36047,-0.73264 0.80514,-0.73264c0.44468,0 0.80514,0.32801 0.80514,0.73264c0,0.40463 -0.36047,0.73264 -0.80514,0.73264c-0.44468,0 -0.80514,-0.32801 -0.80514,-0.73264z" fill="#424242" stroke="none" stroke-width="0.5"/><path d="M299.63233,243.94705c0,-0.40463 0.36047,-0.73264 0.80514,-0.73264c0.44468,0 0.80514,0.32801 0.80514,0.73264c0,0.40463 -0.36047,0.73264 -0.80514,0.73264c-0.44468,0 -0.80514,-0.32801 -0.80514,-0.73264z" fill="#7e7e7e" stroke="none" stroke-width="0.5"/><path d="M310.72541,241.66774c0,-0.40463 0.36047,-0.73264 0.80514,-0.73264c0.44468,0 0.80514,0.32801 0.80514,0.73264c0,0.40463 -0.36047,0.73264 -0.80514,0.73264c-0.44468,0 -0.80514,-0.32801 -0.80514,-0.73264z" fill="#7e7e7e" stroke="none" stroke-width="0.5"/><path d="M323.78662,241.83054c0,-0.40463 0.36047,-0.73264 0.80514,-0.73264c0.44468,0 0.80514,0.32801 0.80514,0.73264c0,0.40463 -0.36047,0.73264 -0.80514,0.73264c-0.44468,0 -0.80514,-0.32801 -0.80514,-0.73264z" fill="#7e7e7e" stroke="none" stroke-width="0.5"/><path d="M339.3527,244.59829c0,-0.40463 0.36047,-0.73264 0.80514,-0.73264c0.44468,0 0.80514,0.32801 0.80514,0.73264c0,0.40463 -0.36047,0.73264 -0.80514,0.73264c-0.44468,0 -0.80514,-0.32801 -0.80514,-0.73264z" fill="#7e7e7e" stroke="none" stroke-width="0.5"/><path d="M298.55881,256.15767c0,-0.40463 0.36047,-0.73264 0.80514,-0.73264c0.44468,0 0.80514,0.32801 0.80514,0.73264c0,0.40463 -0.36047,0.73264 -0.80514,0.73264c-0.44468,0 -0.80514,-0.32801 -0.80514,-0.73264z" fill="#c5c5c5" stroke="none" stroke-width="0.5"/><path d="M312.33569,252.41308c0,-0.40463 0.36047,-0.73264 0.80514,-0.73264c0.44468,0 0.80514,0.32801 0.80514,0.73264c0,0.40463 -0.36047,0.73264 -0.80514,0.73264c-0.44468,0 -0.80514,-0.32801 -0.80514,-0.73264z" fill="#c5c5c5" stroke="none" stroke-width="0.5"/><path d="M331.12235,257.13452c0,-0.40463 0.36047,-0.73264 0.80514,-0.73264c0.44468,0 0.80514,0.32801 0.80514,0.73264c0,0.40462 -0.36047,0.73264 -0.80514,0.73264c-0.44468,0 -0.80514,-0.32802 -0.80514,-0.73264z" fill="#c5c5c5" stroke="none" stroke-width="0.5"/><path d="M340.60516,257.13452c0,-0.40463 0.36047,-0.73264 0.80514,-0.73264c0.44468,0 0.80514,0.32801 0.80514,0.73264c0,0.40462 -0.36047,0.73264 -0.80514,0.73264c-0.44468,0 -0.80514,-0.32802 -0.80514,-0.73264z" fill="#c5c5c5" stroke="none" stroke-width="0.5"/></g><path d="M305.70696,249.69185c0,-0.13487 0.12016,-0.24421 0.26838,-0.24421c0.14822,0 0.26838,0.10934 0.26838,0.24421c0,0.13487 -0.12016,0.24421 -0.26838,0.24421c-0.14822,0 -0.26838,-0.10934 -0.26838,-0.24421z" fill="#ff3b4e" stroke="none" stroke-width="0.5"/></g></g><path d="M297.45169,221.46357c0.1434,0.07492 0.21829,0.16655 0.25318,0.25761c5.0367,-2.17694 10.6925,-3.9921 16.11067,-4.98504c4.53002,-0.63874 9.10352,-0.69062 13.69243,-0.70746l1.07308,-0.00394c0.00085,0 0.00169,-0.00001 0.00253,-0.00001c0.29645,0 0.54012,0.21868 0.54428,0.48842c0.00386,0.25139 -0.20166,0.45842 -0.4696,0.48544l-1.05624,0.12073l-0.00698,-0.04559c-5.91557,2.12021 -12.71502,2.84704 -17.48984,6.91028c-0.31279,0.49152 -1.60184,2.10791 -1.48156,2.64804c0.34945,1.56925 2.75532,1.3321 3.92817,1.33297c4.21341,0.00315 8.16269,-1.71292 12.51315,-1.76176c1.43381,-0.01558 5.57206,-0.68246 6.75028,0.05544c1.26426,0.79178 1.65946,3.98509 0.07846,4.46115c-2.97954,0.89718 -6.82329,-0.47202 -9.93344,0.24383c-4.608,0.29645 -9.38018,2.84665 -12.74526,5.51261c-0.85759,0.67943 -4.51091,3.51703 -2.99573,3.91748c2.1903,0.98961 4.38211,0.70561 6.80263,0.70561c5.02998,0 9.82526,-0.2659 14.81104,-0.81122c1.5848,-0.17153 4.84295,-0.59113 6.34185,-0.05883c2.59594,0.92189 0.97237,4.4605 -0.50872,5.60858c-2.42312,1.87832 -6.78232,1.30122 -9.74598,1.30644c-6.95531,0.01223 -15.22156,-1.0951 -21.85899,0.86501c-0.45029,0.20644 -3.62968,2.57012 -1.92191,2.97821c0.8401,0.20075 2.66615,-0.11701 3.31679,0.6527c1.95378,2.31132 -6.56749,3.51431 -1.874,5.63011c0.61527,0.27736 1.25715,0.51044 1.91377,0.68943c2.77766,0.77969 8.92835,-0.85524 11.03232,1.17906c1.29995,1.25691 -0.0927,2.19512 -1.26854,2.64935c-2.48825,0.96122 -4.70679,1.4126 -7.43537,1.4442c-3.84854,0.04285 -7.35603,-0.56211 -11.16403,-0.83696c-1.0746,-0.07756 -3.11543,0.40267 -3.87399,-0.55084c-0.48825,-0.61372 2.72797,-20.08584 2.94339,-23.23127c0.25619,-3.74047 0.39716,-7.28407 1.02888,-10.97076c0.25938,-1.5137 1.25005,-2.94784 1.51193,-4.43322c-0.07319,-0.04172 -0.14284,-0.10781 -0.2001,-0.20918c-0.24676,-0.43686 0.22997,-0.65529 0.22997,-0.65529c0.02664,-0.01215 0.05329,-0.02429 0.07997,-0.03642l0.34083,-0.66693c0,0 0.2624,-0.42271 0.73071,-0.17802z" fill="#da3243" stroke="none" stroke-width="0.5"/><path d="M334.835,226.59767c0.58132,-1.56212 3.96986,-1.54337 5.42704,-0.32986c0.27877,0.23216 0.5483,1.57036 0.24709,1.87422c-0.1461,0.14738 -0.40261,0.27235 -0.72652,0.37102c-0.09578,0.08088 -0.22406,0.13033 -0.36503,0.13033h-0.17949c-1.21402,0.22507 -2.88689,0.1639 -3.63203,-0.3085c-0.40344,0.1071 -0.60517,-0.26001 -0.60517,-0.26001c-0.00521,-0.01104 -0.01032,-0.02203 -0.01537,-0.033c-0.44885,-0.28192 -0.63105,-0.69764 -0.3285,-1.26787c0.03266,-0.06154 0.09367,-0.12051 0.17797,-0.17634z" fill="#da3243" stroke="none" stroke-width="0.5"/><path d="M329.19655,261.03772c-0.05738,-0.05221 -0.09741,-0.10444 -0.12403,-0.15546c-0.28298,0 -0.80862,0 -0.80862,0c-0.2571,0 -0.47199,-0.16448 -0.52449,-0.38412c-0.23945,0.04511 -0.49265,0.08066 -0.78771,0.0856c0,0 -0.53676,0 -0.53676,-0.48842c0,-0.48842 0.53676,-0.48842 0.53676,-0.48842c0.17703,0.00434 0.34184,-0.00443 0.50005,-0.02132c0.08657,-0.16398 0.2708,-0.27719 0.48411,-0.27719h0.98415v0.03257c0.15253,-0.01655 0.31376,-0.02717 0.48756,-0.02839l0.06392,0.02952l0.00502,-0.01703l1.02568,0.25038c0.23469,0.0522 0.40887,0.24483 0.40887,0.47448c0,0.19881 -0.13053,0.36987 -0.31787,0.4461l-0.64944,0.27982l0.0119,0.26186c0,0 -0.37954,0.34537 -0.7591,0z" fill="#da3243" stroke="none" stroke-width="0.5"/></g><g stroke-linecap="round"><path d="M251.41551,145.16793l-20.9555,-82.67266l60.12082,40.05644" fill="#a9a9a9" stroke="#000000" stroke-width="0"/><path d="M237.88282,79.71485c0,0 6.45382,11.53326 9.20027,17.65494c2.8553,6.3643 7.61767,19.8313 7.61767,19.8313" fill="none" stroke="url(#color-2)" stroke-width="2"/></g><path d="M214.52364,173.90964v-135.02213h213.18203v267.72501h-213.18203v-115.80104" fill="none" stroke="none" stroke-width="0" stroke-linecap="butt"/><path d="" fill="none" stroke="#000000" stroke-width="0" stroke-linecap="round"/><path d="M356.75001,187.24999c0,0 2.85571,2.79584 -1.02911,3.5078c-5.70655,1.04583 -15.51797,3.11533 -24.68432,4.01651c-10.35262,1.01781 -19.97427,0.82091 -23.649,1.13271c-3.76424,0.31939 -1.9709,-3.32368 -1.9709,-3.32368" fill="none" stroke="#000000" stroke-width="0" stroke-linecap="round"/><path d="M214.52364,173.90964v-135.02213h213.18203v267.72501h-213.18203v-115.80104" fill="none" stroke="none" stroke-width="0" stroke-linecap="butt"/><path d="" fill="none" stroke="#000000" stroke-width="0" stroke-linecap="round"/><g><g><g><path d="M375.01598,173.24678c0,0 6.53457,-1.60287 13.26671,-2.42686c5.48229,-0.67101 11.12618,-0.55875 13.22973,-0.81621c1.69252,-0.20715 1.9142,0.80817 0.36043,2.04919c-2.40679,1.92232 -9.36848,8.73678 -16.05371,14.07634c-6.47168,5.169 -12.711,8.89835 -12.711,8.89835c0,0 1.37828,5.02302 1.85749,9.20252c0.21874,1.90775 -0.36242,3.83703 -0.2653,4.68411c0.12779,1.11453 -0.60331,2.09838 -1.52909,1.82006c-1.08596,-0.32646 -4.27845,-0.32423 -7.48157,-1.28716c-6.01986,-1.80973 -13.05043,-4.88528 -13.05043,-4.88528" fill="#ffffff" stroke="#000000" stroke-width="0" stroke-linecap="round"/><path d="M285.99607,212.20287c0,0 -6.15202,4.58702 -11.60606,7.7123c-2.90204,1.66294 -6.0122,2.38333 -6.99608,2.94712c-0.83876,0.48063 -1.77357,-0.31222 -1.90135,-1.42674c-0.09712,-0.84708 -1.09987,-2.59475 -1.3186,-4.50251c-0.4792,-4.17949 -0.27358,-9.38412 -0.27358,-9.38412c0,0 -6.92151,-2.22039 -14.39517,-5.79047c-7.72027,-3.68789 -16.04367,-8.74981 -18.82309,-10.0775c-1.79432,-0.85714 -1.80821,-1.89629 -0.11272,-2.0776c2.10723,-0.22532 7.57925,-1.6121 13.07114,-2.19935c6.74392,-0.72112 13.47172,-0.63886 13.47172,-0.63886" fill="#ffffff" stroke="#000000" stroke-width="0" stroke-linecap="round"/><g fill="none" stroke="none" stroke-width="1" stroke-linecap="butt" font-family="sans-serif" font-weight="normal" font-size="12" text-anchor="start"/><g fill="none" stroke="none" stroke-width="1" stroke-linecap="butt" font-family="sans-serif" font-weight="normal" font-size="12" text-anchor="start"/><path d="M249.71303,165.27095c-3.7934,-33.08509 21.70414,-63.18189 56.95034,-67.22308c35.24621,-4.04119 66.89407,19.50354 70.68747,52.58863c3.7934,33.08509 -21.70413,63.1819 -56.95034,67.22309c-35.2462,4.04119 -66.89408,-19.50355 -70.68748,-52.58864z" fill="#ffffff" stroke="#000000" stroke-width="0" stroke-linecap="butt"/><g fill="#000000" stroke="#000000" stroke-width="0" stroke-linecap="round"><path d="M263.21362,161.11907l-5.18777,-9.32455l9.00923,3.56254z"/><path d="M265.51246,165.20771l-6.37713,-1.2105l4.76973,-5.51413z"/></g><path d="M263.28283,163.99252c-1.47718,-12.8836 7.76955,-24.52531 20.65316,-26.0025c12.8836,-1.47718 24.52531,7.76954 26.00249,20.65315c1.47718,12.8836 -7.76954,24.52532 -20.65314,26.0025c-12.8836,1.47718 -24.52532,-7.76955 -26.00251,-20.65315z" fill="#ffffff" stroke="#000000" stroke-width="0" stroke-linecap="butt"/><path d="M271.8255,163.80867c-0.94541,-8.24562 4.97257,-15.69643 13.2182,-16.64184c8.24562,-0.94541 15.69643,4.97258 16.64184,13.21821c0.94541,8.24562 -4.97258,15.69644 -13.21821,16.64185c-8.24562,0.94541 -15.69642,-4.97258 -16.64184,-13.21822z" fill="#ffffff" stroke="#000000" stroke-width="0" stroke-linecap="butt"/><g fill="#000000" stroke="#000000" stroke-width="0" stroke-linecap="round"><path d="M358.23443,144.90051l7.9691,-5.50921l-2.94266,10.25676z"/><path d="M361.99076,147.23697l4.87773,4.20668l-4.92138,2.70726z"/></g><path d="M343.19064,178.46512c-12.8836,1.47718 -24.52531,-7.76955 -26.0025,-20.65315c-1.47718,-12.8836 7.76954,-24.52531 20.65315,-26.00249c12.8836,-1.47718 24.52532,7.76954 26.0025,20.65314c1.47718,12.8836 -7.76955,24.52532 -20.65315,26.0025z" fill="#ffffff" stroke="#000000" stroke-width="0" stroke-linecap="butt"/><path d="M355.21265,154.03322c0.94541,8.24564 -4.97257,15.69644 -13.2182,16.64185c-8.24562,0.94541 -15.69644,-4.9726 -16.64185,-13.21822c-0.94541,-8.24564 4.97259,-15.69644 13.21821,-16.64185c8.24562,-0.94541 15.69642,4.97259 16.64183,13.21821z" fill="#ffffff" stroke="#000000" stroke-width="0" stroke-linecap="butt"/><path d="M271.72716,131.22616c0,0 7.21846,-4.42996 12.40457,-5.07893c5.18611,-0.64897 12.19079,2.00115 12.19079,2.00115c0,0 -7.98658,-0.91086 -11.99164,-0.40967c-4.18544,0.52375 -12.60373,3.48745 -12.60373,3.48745z" fill="#000000" stroke="none" stroke-width="0" stroke-linecap="butt"/><path d="M335.31642,121.88103c-4.03355,0.14897 -11.76993,2.33148 -11.76993,2.33148c0,0 6.48774,-3.74137 11.71073,-3.93426c5.22299,-0.19291 13.05955,3.01942 13.05955,3.01942c0,0 -8.78515,-1.57231 -13.00035,-1.41663z" fill="#000000" stroke="none" stroke-width="0" stroke-linecap="butt"/><path d="M263.28283,163.99252c-1.47718,-12.8836 7.76955,-24.52531 20.65316,-26.0025c12.8836,-1.47718 24.52531,7.76954 26.00249,20.65315c0.05114,0.44603 -46.6142,5.71084 -46.65565,5.34935z" fill="#ffffff" stroke="#000000" stroke-width="0" stroke-linecap="butt"/><path d="M317.18814,157.81197c-1.47718,-12.8836 7.76954,-24.52531 20.65315,-26.00249c12.8836,-1.47718 24.52532,7.76954 26.0025,20.65314c0.09002,0.78514 -46.56143,6.17106 -46.65565,5.34935z" fill="#ffffff" stroke="#000000" stroke-width="0" stroke-linecap="butt"/><path d="M281.30512,208.38949c0,0 -11.64664,-3.54795 -14.76062,-6.20936c-4.38733,-3.7497 -11.46264,-14.37338 -11.46264,-14.37338l11.24569,-1.28939l22.06878,17.52869z" fill="#ffffff" stroke="none" stroke-width="0" stroke-linecap="butt"/><path d="M348.45506,197.15995l17.52869,-22.06878l11.2457,-1.28939c0,0 -4.48717,11.94939 -7.91195,16.59479c-2.43079,3.29716 -12.97217,9.38909 -12.97217,9.38909z" fill="#ffffff" stroke="none" stroke-width="0" stroke-linecap="butt"/></g><g fill="#da3243" stroke="none" stroke-width="0.5" stroke-linecap="butt"><path d="M275.43352,220.12416c-0.00737,0.02002 -0.01471,0.04006 -0.02203,0.06014c0,0 -0.17121,0.46977 -0.64098,0.29857c-0.46977,-0.17121 -0.29857,-0.64099 -0.29857,-0.64099c1.33603,-3.66589 4.431,-6.84531 4.85695,-10.88677c0.1083,-1.02748 -0.27877,-2.32279 -0.37824,-3.3586c0.45032,-1.2356 0.12167,-2.79362 0.46288,-4.08188c1.16199,-4.38732 5.40765,-8.69369 8.63667,-11.58715c0.76127,-0.68217 1.50462,-1.34808 2.32187,-1.96298c0.50665,-0.38119 2.71347,-2.35522 3.41282,-1.90226c1.05194,0.68134 -0.37245,2.31287 -0.73255,2.88361c-1.32421,2.09881 -2.95179,5.77633 -1.64116,8.19055c3.62366,0.59276 5.16612,-1.76446 7.50341,-3.99366c2.5839,-2.46441 5.43653,-4.59265 7.84387,-7.24537c2.64532,-2.91497 5.05668,-6.34993 8.79481,-7.90361c3.45716,-1.43691 5.45876,-0.14065 4.30908,3.62408c-2.49348,3.2011 -5.04192,4.8907 -8.03844,7.56207c-2.00916,1.79115 -3.4309,4.14398 -5.45057,5.96538c-0.48514,2.0758 -2.23612,3.62786 -2.34806,5.92701c-0.01079,0.22158 0.28138,2.21161 0.39344,2.25728c2.24944,0.91668 6.53837,-4.49377 7.23547,-0.15711c0.00183,0.01138 0.19761,1.71991 0.21157,1.84162c0.1511,1.31788 -0.70701,2.43801 -0.24875,3.5939c0.2007,0.50625 1.33802,0.0841 1.70034,0.04256c1.80173,-0.20658 5.34172,-2.23253 6.94133,-1.65233c1.7143,0.62181 1.97255,3.53312 1.14149,4.66058c-0.27625,0.3459 -1.88131,1.50339 -1.49748,2.0839c0.37364,0.5651 1.16653,0.17074 1.70068,0.1095c2.15354,-0.24692 3.27835,-0.59668 5.18493,-1.42099c0.69348,-0.29982 1.33149,-1.09491 2.0682,-0.92731c2.34954,0.53455 1.29013,4.7209 0.00054,5.58555c-6.53033,0.82823 -13.61972,1.68068 -20.17117,1.28405c-3.91978,-0.25261 -8.13742,-0.38227 -12.06714,-0.86157c-2.07346,-0.2529 -4.57432,-1.35229 -6.53903,-1.20733c-1.51086,-0.57622 -3.25003,-2.6324 -4.92866,-2.81637c-1.15948,-0.12708 -1.71558,1.0358 -2.46653,1.73919c-1.73181,1.6221 -4.50873,1.85493 -6.02737,3.76692c-0.19079,0.1244 -0.38158,0.2488 -0.57237,0.3732l-0.4827,0.61811c0,0 -0.06321,0.07959 -0.16851,0.13849z"/><path d="M324.7372,201.52905c-0.04812,0.02177 -0.10881,0.03219 -0.18521,0.02214c-0.32252,-0.04244 -0.28008,-0.36495 -0.28008,-0.36495c0.02535,-0.18311 0.06794,-0.37271 0.12621,-0.56454c-0.00487,-0.06832 0.00779,-0.15253 0.07462,-0.22354c0.61417,-1.68859 2.38249,-3.42184 4.24848,-2.3462c1.63527,0.94266 0.78495,3.15 0.01663,4.13384c-0.99989,1.16972 -3.5087,0.88998 -4.00064,-0.65676z"/></g></g><g stroke-linecap="butt"><g><path d="M250.72959,146.25256c5.60816,-24.90794 27.62707,-44.95915 55.93379,-48.20468c28.57439,-3.27623 54.78376,11.57832 65.70361,34.94834c0.07803,0.167 -121.68126,13.45117 -121.6374,13.25634z" fill="#c5c5c5" stroke="#000000" stroke-width="0"/><path d="M255.4508,133.02738c9.23252,-18.51439 28.13243,-32.33322 51.21256,-34.97949c23.44385,-2.68798 46.03401,7.41494 59.156,23.8257c0.54689,0.68395 -110.48,11.37727 -110.36856,11.15381z" fill="#7e7e7e" stroke="#000000" stroke-width="0"/><path d="M264.37636,119.81031c10.28306,-11.65428 25.13006,-19.79529 42.28702,-21.76243c18.63324,-2.13641 36.26081,3.4369 49.29887,14.05373c0.1235,0.10056 -91.82822,7.98335 -91.58588,7.70871z" fill="#424242" stroke="#000000" stroke-width="0"/><path d="M264.37095,120.73917c-0.1101,-0.96021 0.57905,-1.82785 1.53926,-1.93795c0.96021,-0.1101 1.82785,0.57905 1.93795,1.53926c0.1101,0.96021 -0.57905,1.82785 -1.53926,1.93795c-0.96021,0.1101 -1.82785,-0.57905 -1.93795,-1.53926z" fill="#424242" stroke="none" stroke-width="0.5"/><path d="M269.13485,119.85744c-0.1101,-0.96021 0.57906,-1.82785 1.53927,-1.93795c0.96021,-0.1101 1.82785,0.57905 1.93795,1.53926c0.1101,0.96021 -0.57905,1.82785 -1.53926,1.93795c-0.96021,0.1101 -1.82786,-0.57906 -1.93796,-1.53927z" fill="#424242" stroke="none" stroke-width="0.5"/><path d="M274.58007,119.06535c-0.1101,-0.96021 0.57906,-1.82785 1.53927,-1.93795c0.96021,-0.1101 1.82785,0.57906 1.93795,1.53927c0.1101,0.96021 -0.57905,1.82785 -1.53926,1.93795c-0.96021,0.1101 -1.82786,-0.57906 -1.93795,-1.53927z" fill="#424242" stroke="none" stroke-width="0.5"/><path d="M291.5891,114.51491c0.96021,-0.1101 1.82785,0.57905 1.93795,1.53926c0.1101,0.96021 -0.57906,1.82786 -1.53927,1.93796c-0.09312,0.01068 -0.18536,0.01384 -0.27612,0.00997c-0.27003,0.45205 -0.74021,0.77761 -1.30375,0.84222c-0.48648,0.05578 -0.94921,-0.0936 -1.3017,-0.37945c-0.27864,0.35821 -0.69555,0.60845 -1.18203,0.66423c-0.96021,0.1101 -1.82786,-0.57906 -1.93795,-1.53927c-0.1101,-0.96021 0.57906,-1.82785 1.53927,-1.93795c0.48648,-0.05578 0.94921,0.0936 1.30169,0.37945c0.27864,-0.35821 0.69555,-0.60845 1.18203,-0.66423c0.09312,-0.01068 0.18535,-0.01384 0.27612,-0.00997c0.27003,-0.45205 0.74022,-0.77761 1.30376,-0.84222z" fill="#424242" stroke="none" stroke-width="0.5"/><path d="M308.12949,116.38213c-0.12447,1.74557 -1.87004,1.62109 -1.87004,1.62109l-2.70627,-0.19299c0,0 -0.25382,-0.0181 -0.56098,-0.13729c-0.14362,0.05818 -0.29739,0.09811 -0.45884,0.11662c-0.96021,0.1101 -1.82786,-0.57906 -1.93795,-1.53927c-0.1101,-0.96021 0.57906,-1.82785 1.53927,-1.93795c0.30963,-0.0355 0.60964,0.01211 0.87772,0.12511c0.41475,-0.1451 0.78974,-0.11837 0.78974,-0.11837l2.70626,0.19298c0,0 1.74558,0.12448 1.62109,1.87005z" fill="#424242" stroke="none" stroke-width="0.5"/><path d="M312.51464,114.12877c0.96021,-0.1101 1.82786,0.57906 1.93795,1.53927c0.1101,0.96021 -0.57906,1.82785 -1.53927,1.93795c-0.53965,0.06187 -1.05006,-0.12869 -1.41319,-0.47795c-0.25678,0.2216 -0.58054,0.37105 -0.94292,0.41259c-0.96021,0.1101 -1.82785,-0.57905 -1.93795,-1.53926c-0.1101,-0.96021 0.57906,-1.82786 1.53927,-1.93795c0.53965,-0.06187 1.05006,0.12869 1.41319,0.47795c0.25678,-0.2216 0.58054,-0.37105 0.94292,-0.41259z" fill="#424242" stroke="none" stroke-width="0.5"/><path d="M334.80019,113.16731c-0.1101,-0.96021 0.57906,-1.82785 1.53927,-1.93795c0.96021,-0.1101 1.82785,0.57905 1.93795,1.53926c0.1101,0.96021 -0.57906,1.82785 -1.53927,1.93795c-0.96021,0.1101 -1.82785,-0.57905 -1.93795,-1.53926z" fill="#424242" stroke="none" stroke-width="0.5"/><path d="M345.2482,111.38223c0.96021,-0.1101 1.82785,0.57905 1.93795,1.53926c0.1101,0.96021 -0.57905,1.82785 -1.53926,1.93795c-0.53965,0.06187 -1.05006,-0.12869 -1.41319,-0.47795c-0.25678,0.2216 -0.58054,0.37105 -0.94292,0.41259c-0.96021,0.1101 -1.82785,-0.57905 -1.93795,-1.53926c-0.1101,-0.96021 0.57906,-1.82786 1.53927,-1.93796c0.53965,-0.06187 1.05007,0.1287 1.4132,0.47796c0.25678,-0.2216 0.58054,-0.37105 0.94292,-0.41259z" fill="#424242" stroke="none" stroke-width="0.5"/><path d="M351.76285,111.13856c0.96021,-0.1101 1.82786,0.57906 1.93795,1.53927c0.1101,0.96021 -0.57906,1.82785 -1.53927,1.93795c-0.50756,0.05819 -0.98927,-0.10693 -1.34689,-0.41737c-0.23897,0.17767 -0.52652,0.29666 -0.84364,0.33301c-0.96021,0.1101 -1.82785,-0.57905 -1.93795,-1.53926c-0.1101,-0.96021 0.57906,-1.82786 1.53927,-1.93795c0.50756,-0.05819 0.98927,0.10693 1.34689,0.41737c0.23897,-0.17767 0.52652,-0.29666 0.84365,-0.33301z" fill="#424242" stroke="none" stroke-width="0.5"/><path d="M294.34128,117.30289c-0.1101,-0.96021 0.57905,-1.82785 1.53926,-1.93795c0.96021,-0.1101 1.82786,0.57906 1.93796,1.53927c0.1101,0.96021 -0.57906,1.82786 -1.53927,1.93795c-0.96021,0.1101 -1.82785,-0.57906 -1.93795,-1.53927z" fill="#424242" stroke="none" stroke-width="0.5"/><path d="M279.08876,118.88393c-0.1101,-0.96021 0.57905,-1.82785 1.53926,-1.93795c0.70626,-0.08098 1.36245,0.27043 1.70394,0.84406c0.00791,-0.87051 0.66365,-1.61879 1.55075,-1.7205c0.96021,-0.1101 1.82786,0.57906 1.93796,1.53927c0.1101,0.96021 -0.57906,1.82785 -1.53927,1.93795c-0.70626,0.08098 -1.36245,-0.27044 -1.70394,-0.84407c-0.00791,0.87051 -0.66365,1.61881 -1.55075,1.72052c-0.96021,0.1101 -1.82785,-0.57906 -1.93795,-1.53927z" fill="#424242" stroke="none" stroke-width="0.5"/><path d="M363.81663,121.1641c0.96021,-0.1101 1.82785,0.57906 1.93795,1.53927c0.1101,0.96021 -0.57905,1.82785 -1.53926,1.93795c-0.61398,0.0704 -1.19011,-0.18599 -1.55455,-0.63106c-0.2774,0.32572 -0.67415,0.55107 -1.13273,0.60365c-0.96021,0.1101 -1.82785,-0.57905 -1.93795,-1.53926c-0.1101,-0.96021 0.57906,-1.82786 1.53927,-1.93796c0.61398,-0.0704 1.19011,0.18599 1.55455,0.63106c0.27739,-0.32571 0.67415,-0.55108 1.13273,-0.60366z" fill="#7e7e7e" stroke="none" stroke-width="0.5"/><path d="M352.54074,123.04412c-0.1101,-0.96021 0.57906,-1.82785 1.53927,-1.93795c0.96021,-0.1101 1.82785,0.57905 1.93795,1.53926c0.1101,0.96021 -0.57906,1.82785 -1.53927,1.93795c-0.96021,0.1101 -1.82785,-0.57905 -1.93795,-1.53926z" fill="#7e7e7e" stroke="none" stroke-width="0.5"/><path d="M347.63024,124.11041c-0.1101,-0.96021 0.57906,-1.82786 1.53927,-1.93796c0.96021,-0.1101 1.82785,0.57906 1.93795,1.53927c0.1101,0.96021 -0.57905,1.82785 -1.53926,1.93795c-0.96021,0.1101 -1.82785,-0.57905 -1.93795,-1.53926z" fill="#7e7e7e" stroke="none" stroke-width="0.5"/><path d="M338.23004,125.52371c-0.1101,-0.96021 0.57906,-1.82786 1.53927,-1.93795c0.42763,-0.04903 0.83689,0.06046 1.16907,0.28182c0.23287,-0.57431 0.76424,-1.00676 1.42329,-1.08232c0.96021,-0.1101 1.82786,0.57906 1.93795,1.53927c0.1101,0.96021 -0.57906,1.82785 -1.53927,1.93795c-0.42763,0.04903 -0.8369,-0.06046 -1.16906,-0.28181c-0.23287,0.57431 -0.76424,1.00675 -1.42329,1.08231c-0.96021,0.1101 -1.82786,-0.57906 -1.93795,-1.53927z" fill="#7e7e7e" stroke="none" stroke-width="0.5"/><path d="M325.4043,126.32322c-0.1101,-0.96021 0.57905,-1.82785 1.53926,-1.93795c0.42932,-0.04922 0.84014,0.06133 1.17301,0.28444c0.16103,-0.07264 0.33588,-0.12193 0.52079,-0.14313c0.96021,-0.1101 1.82785,0.57906 1.93795,1.53927c0.1101,0.96021 -0.57905,1.82785 -1.53926,1.93795c-0.42932,0.04922 -0.84013,-0.06133 -1.17301,-0.28444c-0.16103,0.07264 -0.33588,0.12193 -0.52078,0.14313c-0.96021,0.1101 -1.82786,-0.57906 -1.93796,-1.53927z" fill="#7e7e7e" stroke="none" stroke-width="0.5"/><path d="M314.45691,127.41065c-0.1101,-0.96021 0.57905,-1.82785 1.53926,-1.93795c0.74661,-0.0856 1.43726,0.312 1.75933,0.94452c0.10986,-0.76872 0.72571,-1.39721 1.53332,-1.4898c0.96021,-0.1101 1.82785,0.57905 1.93795,1.53926c0.1101,0.96021 -0.57906,1.82786 -1.53927,1.93796c-0.74661,0.0856 -1.43726,-0.31201 -1.75934,-0.94452c-0.10986,0.76872 -0.72571,1.39721 -1.53332,1.4898c-0.96021,0.1101 -1.82785,-0.57905 -1.93795,-1.53926z" fill="#7e7e7e" stroke="none" stroke-width="0.5"/><path d="M308.64256,127.90954c-0.1101,-0.96021 0.57905,-1.82785 1.53926,-1.93795c0.96021,-0.1101 1.82786,0.57906 1.93795,1.53927c0.1101,0.96021 -0.57906,1.82785 -1.53927,1.93795c-0.96021,0.1101 -1.82785,-0.57906 -1.93795,-1.53927z" fill="#7e7e7e" stroke="none" stroke-width="0.5"/><path d="M299.53555,128.95371c-0.1101,-0.96021 0.57906,-1.82785 1.53927,-1.93795c0.96021,-0.1101 1.82785,0.57905 1.93795,1.53926c0.1101,0.96021 -0.57906,1.82786 -1.53927,1.93796c-0.96021,0.1101 -1.82786,-0.57906 -1.93795,-1.53927z" fill="#7e7e7e" stroke="none" stroke-width="0.5"/><path d="M294.42148,129.70783c-0.1101,-0.96021 0.57905,-1.82785 1.53926,-1.93795c0.96021,-0.1101 1.82786,0.57906 1.93796,1.53927c0.1101,0.96021 -0.57906,1.82786 -1.53927,1.93795c-0.96021,0.1101 -1.82785,-0.57906 -1.93795,-1.53927z" fill="#7e7e7e" stroke="none" stroke-width="0.5"/><path d="M289.6576,130.58956c-0.1101,-0.96021 0.57906,-1.82785 1.53927,-1.93795c0.96021,-0.1101 1.82785,0.57905 1.93795,1.53926c0.1101,0.96021 -0.57906,1.82785 -1.53927,1.93795c-0.96021,0.1101 -1.82785,-0.57905 -1.93795,-1.53926z" fill="#7e7e7e" stroke="none" stroke-width="0.5"/><path d="M281.98388,130.96612c-0.1101,-0.96021 0.57906,-1.82785 1.53927,-1.93795c0.96021,-0.1101 1.82785,0.57905 1.93795,1.53926c0.1101,0.96021 -0.57905,1.82785 -1.53926,1.93795c-0.96021,0.1101 -1.82786,-0.57906 -1.93796,-1.53927z" fill="#7e7e7e" stroke="none" stroke-width="0.5"/><path d="M277.25266,130.6698c-0.1101,-0.96021 0.57906,-1.82786 1.53927,-1.93796c0.96021,-0.1101 1.82785,0.57906 1.93795,1.53927c0.1101,0.96021 -0.57905,1.82785 -1.53926,1.93795c-0.96021,0.1101 -1.82785,-0.57905 -1.93795,-1.53926z" fill="#7e7e7e" stroke="none" stroke-width="0.5"/><path d="M270.53445,130.60127c-0.1101,-0.96021 0.57905,-1.82785 1.53926,-1.93795c0.96021,-0.1101 1.82786,0.57906 1.93796,1.53927c0.1101,0.96021 -0.57906,1.82786 -1.53927,1.93795c-0.96021,0.1101 -1.82785,-0.57906 -1.93795,-1.53927z" fill="#7e7e7e" stroke="none" stroke-width="0.5"/><path d="M265.80852,131.81417c-0.1101,-0.96021 0.57906,-1.82786 1.53927,-1.93795c0.96021,-0.1101 1.82785,0.57906 1.93795,1.53927c0.1101,0.96021 -0.57905,1.82785 -1.53926,1.93795c-0.96021,0.1101 -1.82786,-0.57906 -1.93796,-1.53927z" fill="#7e7e7e" stroke="none" stroke-width="0.5"/><path d="M260.24677,130.85816c0.76686,-0.08792 1.47466,0.33391 1.78471,0.99647c0.24404,-0.54613 0.76197,-0.95295 1.39932,-1.02602c0.96021,-0.1101 1.82785,0.57906 1.93795,1.53927c0.1101,0.96021 -0.57906,1.82785 -1.53927,1.93795c-0.76686,0.08792 -1.47466,-0.33391 -1.78471,-0.99647c-0.02243,0.05022 -0.0472,0.09926 -0.07415,0.14697c-0.26615,0.47115 -0.74642,0.8127 -1.32516,0.87906c-0.56988,0.06534 -1.10715,-0.15084 -1.47282,-0.53813c-0.20195,0.63758 -0.76226,1.12991 -1.46969,1.21102c-0.96021,0.1101 -1.82785,-0.57905 -1.93795,-1.53926c-0.1101,-0.96021 0.57906,-1.82786 1.53927,-1.93795c0.56988,-0.06534 1.10715,0.15085 1.47281,0.53814c0.20195,-0.63758 0.76226,-1.12991 1.46969,-1.21102z" fill="#7e7e7e" stroke="none" stroke-width="0.5"/><path d="M259.22488,143.89273c0.96021,-0.1101 1.82785,0.57906 1.93795,1.53927c0.1101,0.96021 -0.57905,1.82785 -1.53926,1.93795c-0.57873,0.06635 -1.12385,-0.15763 -1.48974,-0.55632c-0.26615,0.47116 -0.74642,0.8127 -1.32516,0.87906c-0.77478,0.08883 -1.48929,-0.34269 -1.79421,-1.0171c-0.14436,0.72593 -0.74265,1.30797 -1.51744,1.3968c-0.96021,0.1101 -1.82785,-0.57906 -1.93795,-1.53927c-0.1101,-0.96021 0.57905,-1.82785 1.53926,-1.93795c0.77478,-0.08883 1.4893,0.3427 1.79421,1.01711c0.14436,-0.72593 0.74265,-1.30798 1.51744,-1.39681c0.57873,-0.06635 1.12385,0.15763 1.48974,0.55632c0.26615,-0.47116 0.74642,-0.8127 1.32516,-0.87906z" fill="#c5c5c5" stroke="none" stroke-width="0.5"/><path d="M264.50451,143.11963c0.96021,-0.1101 1.82785,0.57906 1.93795,1.53927c0.10689,0.93229 -0.53967,1.77733 -1.45622,1.92644c-0.21364,0.13333 -0.45956,0.22243 -0.7264,0.25302c-0.96021,0.1101 -1.82786,-0.57906 -1.93796,-1.53927c-0.10689,-0.93229 0.53967,-1.77732 1.45622,-1.92644c0.21364,-0.13333 0.45956,-0.22244 0.7264,-0.25303z" fill="#c5c5c5" stroke="none" stroke-width="0.5"/><path d="M299.72441,140.84292c-0.1101,-0.96021 0.57905,-1.82785 1.53926,-1.93795c0.96021,-0.1101 1.82786,0.57906 1.93796,1.53927c0.1101,0.96021 -0.57906,1.82785 -1.53927,1.93795c-0.96021,0.1101 -1.82785,-0.57905 -1.93795,-1.53926z" fill="#c5c5c5" stroke="none" stroke-width="0.5"/><path d="M310.37068,137.8608c0.96021,-0.1101 1.82785,0.57905 1.93795,1.53926c0.1101,0.96021 -0.57906,1.82786 -1.53927,1.93796c-0.02776,0.00318 -0.05543,0.0057 -0.08301,0.00755c-0.02729,0.00443 -0.05482,0.00825 -0.08257,0.01143c-0.96021,0.1101 -1.82785,-0.57906 -1.93795,-1.53927c-0.1101,-0.96021 0.57906,-1.82785 1.53927,-1.93795c0.02776,-0.00318 0.05543,-0.0057 0.08301,-0.00756c0.02729,-0.00443 0.05482,-0.00825 0.08257,-0.01143z" fill="#c5c5c5" stroke="none" stroke-width="0.5"/><path d="M316.35853,139.60675c-0.1101,-0.96021 0.57905,-1.82785 1.53926,-1.93795c0.96021,-0.1101 1.82785,0.57905 1.93795,1.53926c0.1101,0.96021 -0.57905,1.82785 -1.53926,1.93795c-0.96021,0.1101 -1.82785,-0.57905 -1.93795,-1.53926z" fill="#c5c5c5" stroke="none" stroke-width="0.5"/><path d="M354.29576,135.42478c-0.1101,-0.96021 0.57905,-1.82785 1.53926,-1.93795c0.96021,-0.1101 1.82785,0.57905 1.93795,1.53926c0.1101,0.96021 -0.57906,1.82786 -1.53927,1.93796c-0.96021,0.1101 -1.82785,-0.57906 -1.93795,-1.53927z" fill="#c5c5c5" stroke="none" stroke-width="0.5"/><path d="M362.52583,136.24263c-0.96021,0.1101 -1.82786,-0.57906 -1.93796,-1.53927c-0.1101,-0.96021 0.57906,-1.82786 1.53927,-1.93795c0.44528,-0.05105 0.87067,0.06978 1.20983,0.30982c0.27603,-0.31057 0.66302,-0.52455 1.10832,-0.5756c0.96021,-0.1101 1.82785,0.57905 1.93795,1.53926c0.1101,0.96021 -0.57905,1.82785 -1.53926,1.93795c-0.44528,0.05105 -0.87068,-0.06977 -1.20984,-0.30981c-0.27603,0.31057 -0.66302,0.52455 -1.10831,0.5756z" fill="#c5c5c5" stroke="none" stroke-width="0.5"/><path d="M366.56781,134.18547c-0.1101,-0.96021 0.57905,-1.82785 1.53926,-1.93795c0.96021,-0.1101 1.82786,0.57906 1.93796,1.53927c0.1101,0.96021 -0.57906,1.82786 -1.53927,1.93795c-0.96021,0.1101 -1.82785,-0.57906 -1.93795,-1.53927z" fill="#c5c5c5" stroke="none" stroke-width="0.5"/><path d="M315.90486,115.16602c-0.1101,-0.96021 0.57905,-1.82785 1.53926,-1.93795c0.96021,-0.1101 1.82786,0.57906 1.93796,1.53927c0.1101,0.96021 -0.57906,1.82786 -1.53927,1.93795c-0.96021,0.1101 -1.82785,-0.57906 -1.93795,-1.53927z" fill="#424242" stroke="none" stroke-width="0.5"/><path d="M322.80764,115.38112c-0.1101,-0.96021 0.57906,-1.82785 1.53927,-1.93795c0.96021,-0.1101 1.82785,0.57905 1.93795,1.53926c0.1101,0.96021 -0.57906,1.82786 -1.53927,1.93795c-0.96021,0.1101 -1.82785,-0.57906 -1.93795,-1.53927z" fill="#424242" stroke="none" stroke-width="0.5"/><path d="M331.96367,112.56986c0.96021,-0.1101 1.82785,0.57906 1.93795,1.53927c0.1101,0.96021 -0.57905,1.82785 -1.53926,1.93795c-0.48648,0.05578 -0.94921,-0.0936 -1.3017,-0.37945c-0.27864,0.35821 -0.69555,0.60845 -1.18203,0.66423c-0.96021,0.1101 -1.82785,-0.57905 -1.93795,-1.53926c-0.1101,-0.96021 0.57906,-1.82786 1.53927,-1.93795c0.48648,-0.05578 0.94921,0.0936 1.30169,0.37945c0.27864,-0.35821 0.69555,-0.60845 1.18203,-0.66423z" fill="#424242" stroke="none" stroke-width="0.5"/><path d="M270.63038,121.1958c-0.07864,-0.68585 0.41362,-1.30561 1.09948,-1.38425c0.68586,-0.07864 1.30561,0.41362 1.38425,1.09948c0.07864,0.68585 -0.41361,1.30561 -1.09948,1.38425c-0.68586,0.07864 -1.30562,-0.41362 -1.38425,-1.09948z" fill="#424242" stroke="none" stroke-width="0.5"/><path d="M276.78117,122.16816c-0.07864,-0.68585 0.41362,-1.30561 1.09948,-1.38425c0.68586,-0.07864 1.30561,0.41362 1.38425,1.09948c0.07864,0.68585 -0.41361,1.30562 -1.09948,1.38425c-0.68586,0.07864 -1.30562,-0.41363 -1.38425,-1.09948z" fill="#424242" stroke="none" stroke-width="0.5"/><path d="M283.90648,122.86103c-0.07864,-0.68585 0.41361,-1.30561 1.09948,-1.38425c0.68586,-0.07864 1.30562,0.41362 1.38425,1.09948c0.07864,0.68585 -0.41362,1.30561 -1.09948,1.38425c-0.68586,0.07864 -1.30561,-0.41362 -1.38425,-1.09948z" fill="#424242" stroke="none" stroke-width="0.5"/><path d="M290.29351,122.96751c-0.07864,-0.68585 0.41361,-1.30561 1.09948,-1.38425c0.68586,-0.07864 1.30562,0.41362 1.38425,1.09948c0.07864,0.68585 -0.41362,1.30562 -1.09948,1.38425c-0.68586,0.07864 -1.30561,-0.41363 -1.38425,-1.09948z" fill="#424242" stroke="none" stroke-width="0.5"/><path d="M295.51617,121.69766c-0.07864,-0.68585 0.41361,-1.30561 1.09948,-1.38425c0.68586,-0.07864 1.30561,0.41362 1.38425,1.09948c0.07864,0.68585 -0.41361,1.30561 -1.09948,1.38425c-0.68586,0.07864 -1.30561,-0.41362 -1.38425,-1.09948z" fill="#424242" stroke="none" stroke-width="0.5"/><path d="M301.07003,120.38985c-0.07864,-0.68585 0.41361,-1.30561 1.09948,-1.38425c0.68586,-0.07864 1.30561,0.41362 1.38425,1.09948c0.07864,0.68585 -0.41361,1.30561 -1.09948,1.38425c-0.68586,0.07864 -1.30561,-0.41362 -1.38425,-1.09948z" fill="#424242" stroke="none" stroke-width="0.5"/><path d="M309.91125,117.02753c-0.07864,-0.68585 0.41362,-1.30561 1.09948,-1.38425c0.68586,-0.07864 1.30561,0.41362 1.38425,1.09948c0.07864,0.68585 -0.41361,1.30561 -1.09948,1.38425c-0.68586,0.07864 -1.30562,-0.41362 -1.38425,-1.09948z" fill="#424242" stroke="none" stroke-width="0.5"/><path d="M315.02529,116.27342c-0.07864,-0.68585 0.41362,-1.30561 1.09948,-1.38425c0.68586,-0.07864 1.30561,0.41362 1.38425,1.09948c0.07864,0.68585 -0.41361,1.30562 -1.09948,1.38425c-0.68586,0.07864 -1.30562,-0.41363 -1.38425,-1.09948z" fill="#424242" stroke="none" stroke-width="0.5"/><path d="M320.54643,116.14366c-0.07864,-0.68585 0.41361,-1.30562 1.09948,-1.38425c0.68586,-0.07864 1.30562,0.41363 1.38425,1.09948c0.07864,0.68585 -0.41362,1.30561 -1.09948,1.38425c-0.68586,0.07864 -1.30561,-0.41362 -1.38425,-1.09948z" fill="#424242" stroke="none" stroke-width="0.5"/><path d="M324.87584,117.32485c-0.07864,-0.68585 0.41362,-1.30561 1.09948,-1.38425c0.68586,-0.07864 1.30561,0.41362 1.38425,1.09948c0.07864,0.68585 -0.41361,1.30561 -1.09948,1.38425c-0.68586,0.07864 -1.30562,-0.41362 -1.38425,-1.09948z" fill="#424242" stroke="none" stroke-width="0.5"/><path d="M328.08414,118.9701c-0.07864,-0.68585 0.41361,-1.30562 1.09948,-1.38425c0.68586,-0.07864 1.30562,0.41363 1.38425,1.09948c0.07864,0.68585 -0.41362,1.30561 -1.09948,1.38425c-0.68586,0.07864 -1.30561,-0.41362 -1.38425,-1.09948z" fill="#424242" stroke="none" stroke-width="0.5"/><path d="M334.34885,120.93596c-0.07864,-0.68585 0.41361,-1.30561 1.09948,-1.38425c0.68586,-0.07864 1.30561,0.41362 1.38425,1.09948c0.07864,0.68585 -0.41361,1.30562 -1.09948,1.38425c-0.68586,0.07864 -1.30561,-0.41363 -1.38425,-1.09948z" fill="#424242" stroke="none" stroke-width="0.5"/><path d="M341.34126,120.46975c-0.07864,-0.68585 0.41362,-1.30561 1.09948,-1.38425c0.68586,-0.07864 1.30561,0.41362 1.38425,1.09948c0.07864,0.68585 -0.41361,1.30561 -1.09948,1.38425c-0.68586,0.07864 -1.30562,-0.41362 -1.38425,-1.09948z" fill="#424242" stroke="none" stroke-width="0.5"/><path d="M329.84447,132.85999c-0.07864,-0.68585 0.41361,-1.30561 1.09948,-1.38425c0.68586,-0.07864 1.30561,0.41362 1.38425,1.09948c0.07864,0.68585 -0.41361,1.30561 -1.09948,1.38425c-0.68586,0.07864 -1.30561,-0.41362 -1.38425,-1.09948z" fill="#7e7e7e" stroke="none" stroke-width="0.5"/><path d="M349.67731,120.01725c-0.07864,-0.68585 0.41361,-1.30561 1.09948,-1.38425c0.68586,-0.07864 1.30562,0.41362 1.38425,1.09948c0.07864,0.68585 -0.41362,1.30562 -1.09948,1.38425c-0.68586,0.07864 -1.30561,-0.41363 -1.38425,-1.09948z" fill="#424242" stroke="none" stroke-width="0.5"/><path d="M352.55757,117.33839c-0.07864,-0.68585 0.41361,-1.30561 1.09948,-1.38425c0.68586,-0.07864 1.30561,0.41362 1.38425,1.09948c0.07864,0.68585 -0.41361,1.30562 -1.09948,1.38425c-0.68586,0.07864 -1.30561,-0.41363 -1.38425,-1.09948z" fill="#424242" stroke="none" stroke-width="0.5"/><path d="M352.92985,113.2695c-0.07864,-0.68585 0.41361,-1.30561 1.09948,-1.38425c0.68586,-0.07864 1.30561,0.41362 1.38425,1.09948c0.07864,0.68585 -0.41361,1.30562 -1.09948,1.38425c-0.68586,0.07864 -1.30561,-0.41363 -1.38425,-1.09948z" fill="#424242" stroke="none" stroke-width="0.5"/><path d="M260.20829,135.64369c-0.07864,-0.68585 0.41361,-1.30562 1.09948,-1.38425c0.68586,-0.07864 1.30561,0.41363 1.38425,1.09948c0.07864,0.68585 -0.41361,1.30561 -1.09948,1.38425c-0.68586,0.07864 -1.30561,-0.41362 -1.38425,-1.09948z" fill="#7e7e7e" stroke="none" stroke-width="0.5"/><path d="M265.37086,138.23917c-0.07864,-0.68585 0.41361,-1.30562 1.09948,-1.38425c0.68586,-0.07864 1.30562,0.41363 1.38425,1.09948c0.07864,0.68585 -0.41362,1.30561 -1.09948,1.38425c-0.68586,0.07864 -1.30561,-0.41362 -1.38425,-1.09948z" fill="#7e7e7e" stroke="none" stroke-width="0.5"/><path d="M270.84036,139.12189c-0.07864,-0.68585 0.41361,-1.30561 1.09948,-1.38425c0.68586,-0.07864 1.30561,0.41362 1.38425,1.09948c0.07864,0.68585 -0.41361,1.30561 -1.09948,1.38425c-0.68586,0.07864 -1.30561,-0.41362 -1.38425,-1.09948z" fill="#7e7e7e" stroke="none" stroke-width="0.5"/><path d="M277.95511,136.79631c-0.07864,-0.68585 0.41361,-1.30561 1.09948,-1.38425c0.68586,-0.07864 1.30561,0.41362 1.38425,1.09948c0.07864,0.68585 -0.41361,1.30561 -1.09948,1.38425c-0.68586,0.07864 -1.30561,-0.41362 -1.38425,-1.09948z" fill="#7e7e7e" stroke="none" stroke-width="0.5"/><path d="M284.2609,134.73125c-0.07864,-0.68585 0.41361,-1.30561 1.09948,-1.38425c0.68586,-0.07864 1.30561,0.41362 1.38425,1.09948c0.07864,0.68585 -0.41361,1.30561 -1.09948,1.38425c-0.68586,0.07864 -1.30561,-0.41362 -1.38425,-1.09948z" fill="#7e7e7e" stroke="none" stroke-width="0.5"/><path d="M288.02603,132.45421c-0.07864,-0.68585 0.41362,-1.30561 1.09948,-1.38425c0.68586,-0.07864 1.30561,0.41362 1.38425,1.09948c0.07864,0.68585 -0.41361,1.30561 -1.09948,1.38425c-0.68586,0.07864 -1.30562,-0.41362 -1.38425,-1.09948z" fill="#7e7e7e" stroke="none" stroke-width="0.5"/><path d="M297.57282,130.85634c-0.07864,-0.68585 0.41361,-1.30561 1.09948,-1.38425c0.68586,-0.07864 1.30562,0.41362 1.38425,1.09948c0.07864,0.68585 -0.41362,1.30561 -1.09948,1.38425c-0.68586,0.07864 -1.30561,-0.41362 -1.38425,-1.09948z" fill="#7e7e7e" stroke="none" stroke-width="0.5"/><path d="M306.5902,130.49347c-0.07864,-0.68585 0.41361,-1.30561 1.09948,-1.38425c0.68586,-0.07864 1.30562,0.41362 1.38425,1.09948c0.07864,0.68585 -0.41362,1.30562 -1.09948,1.38425c-0.68586,0.07864 -1.30561,-0.41363 -1.38425,-1.09948z" fill="#7e7e7e" stroke="none" stroke-width="0.5"/><path d="M314.97477,133.39059c-0.07864,-0.68585 0.41361,-1.30561 1.09948,-1.38425c0.68586,-0.07864 1.30562,0.41362 1.38425,1.09948c0.07864,0.68585 -0.41362,1.30561 -1.09948,1.38425c-0.68586,0.07864 -1.30561,-0.41362 -1.38425,-1.09948z" fill="#7e7e7e" stroke="none" stroke-width="0.5"/><path d="M322.39327,133.71431c-0.07864,-0.68585 0.41361,-1.30561 1.09948,-1.38425c0.68586,-0.07864 1.30562,0.41362 1.38425,1.09948c0.07864,0.68585 -0.41362,1.30561 -1.09948,1.38425c-0.68586,0.07864 -1.30561,-0.41362 -1.38425,-1.09948z" fill="#7e7e7e" stroke="none" stroke-width="0.5"/><path d="M336.29159,129.10114c-0.07864,-0.68585 0.41362,-1.30561 1.09948,-1.38425c0.68586,-0.07864 1.30561,0.41362 1.38425,1.09948c0.07864,0.68585 -0.41361,1.30561 -1.09948,1.38425c-0.68586,0.07864 -1.30562,-0.41362 -1.38425,-1.09948z" fill="#7e7e7e" stroke="none" stroke-width="0.5"/><path d="M341.84016,126.2841c-0.07864,-0.68585 0.41361,-1.30561 1.09948,-1.38425c0.68586,-0.07864 1.30561,0.41362 1.38425,1.09948c0.07864,0.68585 -0.41361,1.30562 -1.09948,1.38425c-0.68586,0.07864 -1.30561,-0.41363 -1.38425,-1.09948z" fill="#7e7e7e" stroke="none" stroke-width="0.5"/><path d="M352.41841,124.90349c-0.07864,-0.68585 0.41361,-1.30562 1.09948,-1.38425c0.68586,-0.07864 1.30561,0.41363 1.38425,1.09948c0.07864,0.68585 -0.41361,1.30561 -1.09948,1.38425c-0.68586,0.07864 -1.30561,-0.41362 -1.38425,-1.09948z" fill="#7e7e7e" stroke="none" stroke-width="0.5"/><path d="M359.05753,128.67175c-0.07864,-0.68585 0.41361,-1.30561 1.09948,-1.38425c0.68586,-0.07864 1.30561,0.41362 1.38425,1.09948c0.07864,0.68585 -0.41361,1.30562 -1.09948,1.38425c-0.68586,0.07864 -1.30561,-0.41363 -1.38425,-1.09948z" fill="#7e7e7e" stroke="none" stroke-width="0.5"/><path d="M362.578,130.11345c-0.07864,-0.68585 0.41362,-1.30562 1.09948,-1.38425c0.68586,-0.07864 1.30561,0.41363 1.38425,1.09948c0.07864,0.68585 -0.41361,1.30561 -1.09948,1.38425c-0.68586,0.07864 -1.30562,-0.41362 -1.38425,-1.09948z" fill="#7e7e7e" stroke="none" stroke-width="0.5"/><path d="M251.11615,151.4489c-0.07864,-0.68586 0.41361,-1.30561 1.09948,-1.38425c0.68586,-0.07864 1.30561,0.41361 1.38425,1.09948c0.07864,0.68586 -0.41361,1.30562 -1.09948,1.38425c-0.68586,0.07864 -1.30561,-0.41362 -1.38425,-1.09948z" fill="#c5c5c5" stroke="none" stroke-width="0.5"/><path d="M259.65045,149.79937c-0.07864,-0.68586 0.41361,-1.30561 1.09948,-1.38425c0.68586,-0.07864 1.30562,0.41361 1.38425,1.09948c0.07864,0.68586 -0.41362,1.30561 -1.09948,1.38425c-0.68586,0.07864 -1.30561,-0.41361 -1.38425,-1.09948z" fill="#c5c5c5" stroke="none" stroke-width="0.5"/><path d="M303.9072,142.20869c-0.07864,-0.68586 0.41361,-1.30561 1.09948,-1.38425c0.68586,-0.07864 1.30561,0.41361 1.38425,1.09948c0.07864,0.68586 -0.41361,1.30561 -1.09948,1.38425c-0.68586,0.07864 -1.30561,-0.41361 -1.38425,-1.09948z" fill="#c5c5c5" stroke="none" stroke-width="0.5"/><path d="M309.63719,143.90033c-0.07864,-0.68586 0.41361,-1.30561 1.09948,-1.38425c0.68586,-0.07864 1.30561,0.41361 1.38425,1.09948c0.07864,0.68586 -0.41361,1.30561 -1.09948,1.38425c-0.68586,0.07864 -1.30561,-0.41361 -1.38425,-1.09948z" fill="#c5c5c5" stroke="none" stroke-width="0.5"/><path d="M313.85267,144.08803c-0.07864,-0.68586 0.41362,-1.30561 1.09948,-1.38425c0.68586,-0.07864 1.30561,0.41361 1.38425,1.09948c0.07864,0.68586 -0.41361,1.30561 -1.09948,1.38425c-0.68586,0.07864 -1.30562,-0.41361 -1.38425,-1.09948z" fill="#c5c5c5" stroke="none" stroke-width="0.5"/><path d="M319.02684,139.46858c-0.07864,-0.68586 0.41361,-1.30562 1.09948,-1.38425c0.68586,-0.07864 1.30561,0.41362 1.38425,1.09948c0.07864,0.68586 -0.41361,1.30561 -1.09948,1.38425c-0.68586,0.07864 -1.30561,-0.41361 -1.38425,-1.09948z" fill="#c5c5c5" stroke="none" stroke-width="0.5"/><path d="M358.34568,135.63147c-0.07864,-0.68586 0.41361,-1.30561 1.09948,-1.38425c0.68586,-0.07864 1.30561,0.41361 1.38425,1.09948c0.07864,0.68586 -0.41361,1.30561 -1.09948,1.38425c-0.68586,0.07864 -1.30561,-0.41361 -1.38425,-1.09948z" fill="#c5c5c5" stroke="none" stroke-width="0.5"/><path d="M365.25373,137.3558c-0.07864,-0.68586 0.41361,-1.30562 1.09948,-1.38425c0.68586,-0.07864 1.30561,0.41362 1.38425,1.09948c0.07864,0.68586 -0.41361,1.30561 -1.09948,1.38425c-0.68586,0.07864 -1.30561,-0.41361 -1.38425,-1.09948z" fill="#c5c5c5" stroke="none" stroke-width="0.5"/><path d="M369.91742,134.13695c-0.07864,-0.68586 0.41362,-1.30561 1.09948,-1.38425c0.68586,-0.07864 1.30561,0.41361 1.38425,1.09948c0.07864,0.68586 -0.41361,1.30561 -1.09948,1.38425c-0.68586,0.07864 -1.30562,-0.41361 -1.38425,-1.09948z" fill="#c5c5c5" stroke="none" stroke-width="0.5"/></g><g fill="none" stroke="none" stroke-width="1" font-family="sans-serif" font-weight="normal" font-size="12" text-anchor="start"/></g><g stroke="#000000"><g fill="#000000" stroke-width="0" stroke-linecap="round"><path d="M263.21362,161.11907l-5.18777,-9.32455l9.00923,3.56254z"/><path d="M265.51246,165.20771l-10.35743,-2.56593l8.75003,-4.1587z"/></g><path d="M263.28283,163.99252c-1.47718,-12.8836 7.76955,-24.52531 20.65316,-26.0025c12.8836,-1.47718 24.52531,7.76954 26.00249,20.65315c1.47718,12.8836 -7.76954,24.52532 -20.65314,26.0025c-12.8836,1.47718 -24.52532,-7.76955 -26.00251,-20.65315z" fill="#ffffff" stroke-width="0" stroke-linecap="butt"/><path d="M271.8255,163.80867c-0.94541,-8.24562 4.97257,-15.69643 13.2182,-16.64184c8.24562,-0.94541 15.69643,4.97258 16.64184,13.21821c0.94541,8.24562 -4.97258,15.69644 -13.21821,16.64185c-8.24562,0.94541 -15.69642,-4.97258 -16.64184,-13.21822z" fill="#ffffff" stroke-width="2" stroke-linecap="butt"/></g><g stroke="#000000"><g fill="#000000" stroke-width="0" stroke-linecap="round"><path d="M358.23443,144.90051l7.9691,-5.50921l-2.94266,10.25676z"/><path d="M361.99076,147.23697l9.46423,2.07033l-9.50788,4.84361z"/></g><path d="M343.19064,178.46512c-12.8836,1.47718 -24.52531,-7.76955 -26.0025,-20.65315c-1.47718,-12.8836 7.76954,-24.52531 20.65315,-26.00249c12.8836,-1.47718 24.52532,7.76954 26.0025,20.65314c1.47718,12.8836 -7.76955,24.52532 -20.65315,26.0025z" fill="#ffffff" stroke-width="0" stroke-linecap="butt"/><path d="M355.21265,154.03322c0.94541,8.24564 -4.97257,15.69644 -13.2182,16.64185c-8.24562,0.94541 -15.69644,-4.9726 -16.64185,-13.21822c-0.94541,-8.24564 4.97259,-15.69644 13.21821,-16.64185c8.24562,-0.94541 15.69642,4.97259 16.64183,13.21821z" fill="#ffffff" stroke-width="2" stroke-linecap="butt"/></g></g><path d="M206.00122,196.10172c-0.52101,0.10521 -1.1085,0.12498 -1.69372,0.0995c0.56904,-0.01671 1.13529,-0.04785 1.69372,-0.0995z" fill="#da3243" stroke="none" stroke-width="0.5" stroke-linecap="butt"/><path d="M289.62649,198.28435c0,0 20.48127,6.29242 32.83972,2.73427c12.35845,-3.55815 29.7423,-20.7524 29.7423,-20.7524c0,0 -15.53047,31.93112 -34.66628,37.44055c-19.13581,5.50943 -27.91574,-19.42242 -27.91574,-19.42242z" fill="#ffffff" stroke="#000000" stroke-width="1.5" stroke-linecap="round"/></g></g></svg>